# Blender v2.82 (sub 7) OBJ File: ''
# www.blender.org
o 00000_2357.dat_Mesh_2357.dat_4.008
v 30.000002 0.000005 10.000001
v 26.000002 0.000003 6.000001
v 26.000002 0.000005 -5.999999
v 30.000002 0.000007 -9.999999
v -5.999997 -0.000002 -6.000000
v -9.999998 -0.000002 -10.000000
v -5.999998 -0.000002 26.000000
v -9.999998 -0.000002 30.000000
v 6.000002 0.000002 26.000000
v 10.000002 0.000002 30.000000
v 6.000002 0.000002 6.000000
v 10.000003 0.000002 10.000000
v 5.999999 20.000000 6.000000
v 5.999998 20.000000 26.000000
v -6.000002 20.000000 26.000000
v -6.000000 20.000000 -6.000000
v 25.999998 20.000006 6.000001
v 26.000000 20.000006 -5.999999
v 9.999998 24.000002 30.000000
v 9.999998 24.000002 10.000000
v -10.000001 23.999998 -10.000000
v -10.000002 23.999998 30.000000
v 30.000000 24.000006 -9.999999
v 29.999998 24.000006 10.000001
v 3.535503 0.500000 4.949700
v 4.949703 0.500000 3.535500
v 6.000002 0.500002 6.000000
v 5.999996 0.500002 7.414207
v 7.414209 0.500002 5.999993
v 11.530803 0.000003 3.695601
v 10.000003 0.000002 4.000000
v 10.000003 0.000002 0.000000
v 12.828403 0.000003 2.828400
v 13.695603 0.000003 1.530801
v 14.000003 0.000003 0.000001
v 13.695603 0.000003 -1.530799
v 12.828403 0.000003 -2.828399
v 11.530803 0.000003 -3.695600
v 10.000003 0.000002 -4.000000
v 8.469203 0.000002 -3.695600
v 7.171603 0.000002 -2.828400
v 6.304403 0.000002 -1.530800
v 6.000003 0.000002 0.000000
v 6.304403 0.000002 1.530800
v 7.171603 0.000002 2.828400
v 8.469203 0.000002 3.695601
v 10.000003 0.000002 4.000000
v 11.530803 0.000003 3.695601
v 11.530800 20.000002 3.695601
v 10.000000 20.000002 4.000000
v 12.828403 0.000003 2.828400
v 12.828400 20.000002 2.828400
v 13.695603 0.000003 1.530801
v 13.695601 20.000002 1.530801
v 14.000003 0.000003 0.000001
v 14.000000 20.000002 0.000001
v 13.695603 0.000003 -1.530799
v 13.695601 20.000002 -1.530799
v 12.828403 0.000003 -2.828399
v 12.828400 20.000002 -2.828399
v 11.530803 0.000003 -3.695600
v 11.530800 20.000002 -3.695600
v 10.000003 0.000002 -4.000000
v 10.000000 20.000002 -4.000000
v 8.469203 0.000002 -3.695600
v 8.469200 20.000002 -3.695600
v 7.171603 0.000002 -2.828400
v 7.171599 20.000002 -2.828400
v 6.304403 0.000002 -1.530800
v 6.304399 20.000000 -1.530800
v 6.000003 0.000002 0.000000
v 5.999999 20.000000 0.000000
v 6.304403 0.000002 1.530800
v 6.304399 20.000000 1.530800
v 7.171603 0.000002 2.828400
v 7.171599 20.000002 2.828400
v 8.469203 0.000002 3.695601
v 8.469200 20.000002 3.695601
v 1.530802 0.000000 13.695601
v 0.000002 0.000000 14.000000
v 0.000003 0.000000 10.000000
v 2.828403 0.000000 12.828400
v 3.695602 0.000000 11.530800
v 4.000002 0.000000 10.000000
v 3.695602 0.000000 8.469200
v 2.828403 0.000000 7.171600
v 1.530803 0.000000 6.304400
v 0.000003 0.000000 6.000000
v -1.530797 -0.000000 6.304400
v -2.828397 -0.000000 7.171600
v -3.695597 -0.000000 8.469200
v -3.999997 -0.000000 10.000000
v -3.695597 -0.000000 11.530800
v -2.828398 -0.000000 12.828400
v -1.530798 -0.000000 13.695601
v 0.000002 0.000000 14.000000
v 1.530802 0.000000 13.695601
v 1.530800 20.000000 13.695601
v -0.000000 20.000000 14.000000
v 2.828403 0.000000 12.828400
v 2.828400 20.000000 12.828400
v 3.695602 0.000000 11.530800
v 3.695600 20.000000 11.530800
v 4.000002 0.000000 10.000000
v 3.999999 20.000000 10.000000
v 3.695602 0.000000 8.469200
v 3.695600 20.000000 8.469200
v 2.828403 0.000000 7.171600
v 2.828400 20.000000 7.171600
v 1.530803 0.000000 6.304400
v 1.530800 20.000000 6.304400
v 0.000003 0.000000 6.000000
v -0.000000 20.000000 6.000000
v -1.530797 -0.000000 6.304400
v -1.530800 20.000000 6.304400
v -2.828397 -0.000000 7.171600
v -2.828400 20.000000 7.171600
v -3.695597 -0.000000 8.469200
v -3.695600 20.000000 8.469200
v -3.999997 -0.000000 10.000000
v -4.000000 20.000000 10.000000
v -3.695597 -0.000000 11.530800
v -3.695601 20.000000 11.530800
v -2.828398 -0.000000 12.828400
v -2.828400 20.000000 12.828400
v -1.530798 -0.000000 13.695601
v -1.530800 20.000000 13.695601
v 9.999998 24.000002 30.000000
v -10.000002 23.999998 30.000000
v -9.999998 -0.000002 30.000000
v 10.000002 0.000002 30.000000
v 10.000003 0.000002 10.000000
v 9.999998 24.000002 10.000000
v 9.999998 24.000002 30.000000
v 10.000002 0.000002 30.000000
v 29.999998 24.000006 10.000001
v 9.999998 24.000002 10.000000
v 10.000003 0.000002 10.000000
v 30.000002 0.000005 10.000001
v 30.000002 0.000007 -9.999999
v 30.000000 24.000006 -9.999999
v 29.999998 24.000006 10.000001
v 30.000002 0.000005 10.000001
v 4.949703 0.500000 3.535500
v 3.535503 0.500000 4.949700
v 3.535514 20.000000 4.949728
v 4.949727 20.000000 3.535514
v 3.535503 0.500000 4.949700
v 5.999996 0.500002 7.414207
v 5.999991 20.000000 7.414207
v 3.535514 20.000000 4.949728
v 4.949727 20.000000 3.535514
v 7.414206 20.000002 5.999993
v 7.414209 0.500002 5.999993
v 4.949703 0.500000 3.535500
v -10.000001 23.999998 -10.000000
v 30.000000 24.000006 -9.999999
v 30.000002 0.000007 -9.999999
v -9.999998 -0.000002 -10.000000
v -9.999998 -0.000002 30.000000
v -10.000002 23.999998 30.000000
v -10.000001 23.999998 -10.000000
v -9.999998 -0.000002 -10.000000
v -0.000001 24.000000 6.000000
v 2.296199 24.000000 5.543400
v 2.296198 28.000000 5.543400
v -0.000002 28.000000 6.000000
v 4.242599 24.000000 4.242600
v 4.242598 28.000000 4.242600
v 5.543399 24.000000 2.296200
v 5.543397 28.000000 2.296200
v 5.999999 24.000002 0.000000
v 5.999999 28.000000 0.000000
v 5.543399 24.000000 -2.296200
v 5.543398 28.000000 -2.296200
v 4.242599 24.000000 -4.242600
v 4.242598 28.000000 -4.242600
v 2.296199 24.000000 -5.543400
v 2.296198 28.000000 -5.543400
v -0.000001 24.000000 -6.000000
v -0.000002 28.000000 -6.000000
v -2.296201 24.000000 -5.543400
v -2.296202 28.000000 -5.543400
v -4.242601 24.000000 -4.242600
v -4.242601 28.000000 -4.242600
v -5.543401 24.000000 -2.296200
v -5.543401 28.000000 -2.296200
v -6.000001 23.999998 -0.000000
v -6.000001 28.000000 -0.000000
v -5.543401 24.000000 2.296200
v -5.543401 28.000000 2.296200
v -4.242601 24.000000 4.242600
v -4.242601 28.000000 4.242600
v -2.296201 24.000000 5.543400
v -2.296202 28.000000 5.543400
v -0.000002 28.000000 -0.000000
v -0.000002 28.000000 6.000000
v 2.296198 28.000000 5.543400
v 4.242598 28.000000 4.242600
v 5.543397 28.000000 2.296200
v 5.999999 28.000000 0.000000
v 5.543398 28.000000 -2.296200
v 4.242598 28.000000 -4.242600
v 2.296198 28.000000 -5.543400
v -0.000002 28.000000 -6.000000
v -2.296202 28.000000 -5.543400
v -4.242601 28.000000 -4.242600
v -5.543401 28.000000 -2.296200
v -6.000001 28.000000 -0.000000
v -5.543401 28.000000 2.296200
v -4.242601 28.000000 4.242600
v -2.296202 28.000000 5.543400
v -0.000002 24.000000 26.000000
v 2.296198 24.000000 25.543400
v 2.296197 28.000000 25.543400
v -0.000003 28.000000 26.000000
v 4.242598 24.000000 24.242599
v 4.242597 28.000000 24.242599
v 5.543398 24.000000 22.296200
v 5.543396 28.000000 22.296200
v 5.999998 24.000002 20.000000
v 5.999998 28.000000 20.000000
v 5.543398 24.000000 17.703800
v 5.543397 28.000000 17.703800
v 4.242598 24.000000 15.757401
v 4.242597 28.000000 15.757401
v 2.296198 24.000000 14.456600
v 2.296197 28.000000 14.456600
v -0.000002 24.000000 14.000000
v -0.000003 28.000000 14.000000
v -2.296202 24.000000 14.456600
v -2.296203 28.000000 14.456600
v -4.242602 24.000000 15.757401
v -4.242602 28.000000 15.757401
v -5.543402 24.000000 17.703800
v -5.543402 28.000000 17.703800
v -6.000002 23.999998 20.000000
v -6.000002 28.000000 20.000000
v -5.543402 24.000000 22.296200
v -5.543402 28.000000 22.296200
v -4.242602 24.000000 24.242599
v -4.242602 28.000000 24.242599
v -2.296202 24.000000 25.543400
v -2.296203 28.000000 25.543400
v -0.000003 28.000000 20.000000
v -0.000003 28.000000 26.000000
v 2.296197 28.000000 25.543400
v 4.242597 28.000000 24.242599
v 5.543396 28.000000 22.296200
v 5.999998 28.000000 20.000000
v 5.543397 28.000000 17.703800
v 4.242597 28.000000 15.757401
v 2.296197 28.000000 14.456600
v -0.000003 28.000000 14.000000
v -2.296203 28.000000 14.456600
v -4.242602 28.000000 15.757401
v -5.543402 28.000000 17.703800
v -6.000002 28.000000 20.000000
v -5.543402 28.000000 22.296200
v -4.242602 28.000000 24.242599
v -2.296203 28.000000 25.543400
v 19.999998 24.000002 6.000001
v 22.296198 24.000004 5.543401
v 22.296198 28.000006 5.543401
v 19.999998 28.000002 6.000001
v 24.242598 24.000006 4.242601
v 24.242598 28.000006 4.242601
v 25.543398 24.000006 2.296201
v 25.543398 28.000006 2.296201
v 25.999998 24.000006 0.000001
v 25.999998 28.000006 0.000001
v 25.543400 24.000006 -2.296199
v 25.543398 28.000006 -2.296199
v 24.242599 24.000006 -4.242599
v 24.242598 28.000006 -4.242599
v 22.296200 24.000004 -5.543399
v 22.296198 28.000006 -5.543399
v 20.000000 24.000002 -5.999999
v 19.999998 28.000002 -5.999999
v 17.703800 24.000002 -5.543399
v 17.703798 28.000002 -5.543399
v 15.757401 24.000002 -4.242599
v 15.757401 28.000002 -4.242599
v 14.456599 24.000002 -2.296199
v 14.456598 28.000002 -2.296199
v 13.999999 24.000002 0.000001
v 13.999998 28.000002 0.000001
v 14.456599 24.000002 2.296201
v 14.456598 28.000002 2.296201
v 15.757401 24.000002 4.242600
v 15.757401 28.000002 4.242600
v 17.703798 24.000002 5.543401
v 17.703798 28.000002 5.543401
v 19.999998 28.000002 0.000001
v 19.999998 28.000002 6.000001
v 22.296198 28.000006 5.543401
v 24.242598 28.000006 4.242601
v 25.543398 28.000006 2.296201
v 25.999998 28.000006 0.000001
v 25.543398 28.000006 -2.296199
v 24.242598 28.000006 -4.242599
v 22.296198 28.000006 -5.543399
v 19.999998 28.000002 -5.999999
v 17.703798 28.000002 -5.543399
v 15.757401 28.000002 -4.242599
v 14.456598 28.000002 -2.296199
v 13.999998 28.000002 0.000001
v 14.456598 28.000002 2.296201
v 15.757401 28.000002 4.242600
v 17.703798 28.000002 5.543401
v 26.000002 0.000003 6.000001
v 6.000002 0.000002 6.000000
v 5.999999 20.000000 6.000000
v 25.999998 20.000006 6.000001
v 26.000002 0.000003 6.000001
v 25.999998 20.000006 6.000001
v 26.000000 20.000006 -5.999999
v 26.000002 0.000005 -5.999999
v 6.000002 0.000002 26.000000
v -5.999998 -0.000002 26.000000
v -6.000002 20.000000 26.000000
v 5.999998 20.000000 26.000000
v 6.000002 0.000002 26.000000
v 5.999998 20.000000 26.000000
v 5.999999 20.000000 6.000000
v 6.000002 0.000002 6.000000
v -5.999997 -0.000002 -6.000000
v 26.000002 0.000005 -5.999999
v 26.000000 20.000006 -5.999999
v -6.000000 20.000000 -6.000000
v -5.999997 -0.000002 -6.000000
v -6.000000 20.000000 -6.000000
v -6.000002 20.000000 26.000000
v -5.999998 -0.000002 26.000000
vn 0.0000 -1.0000 0.0000
vn -0.0000 1.0000 0.0000
vn 0.0000 0.0000 1.0000
vn 0.3827 0.0000 0.9239
vn 0.7071 0.0000 0.7071
vn 0.9239 0.0000 0.3827
vn 1.0000 0.0000 0.0000
vn 0.9239 0.0000 -0.3827
vn 0.7071 0.0000 -0.7071
vn 0.3827 0.0000 -0.9239
vn 0.0000 0.0000 -1.0000
vn -0.3827 -0.0000 -0.9239
vn -0.7071 -0.0000 -0.7071
vn -0.9239 -0.0000 -0.3827
vn -1.0000 -0.0000 0.0000
vn -0.9239 -0.0000 0.3827
vn -0.7071 -0.0000 0.7071
vn -0.3827 -0.0000 0.9239
s 1
f 1//1 2//1 3//1 4//1
f 4//1 3//1 5//1 6//1
f 6//1 5//1 7//1 8//1
f 8//1 7//1 9//1 10//1
f 10//1 9//1 11//1 12//1
f 12//1 11//1 2//1 1//1
f 13//1 14//1 15//1 16//1
f 17//1 13//1 16//1 18//1
f 19//2 20//2 21//2 22//2
f 23//2 21//2 20//2 24//2
f 25//1 26//1 27//1
f 25//1 27//1 28//1
f 26//1 29//1 27//1
f 30//1 31//1 32//1
f 33//1 30//1 32//1
f 34//1 33//1 32//1
f 35//1 34//1 32//1
f 36//1 35//1 32//1
f 37//1 36//1 32//1
f 38//1 37//1 32//1
f 39//1 38//1 32//1
f 40//1 39//1 32//1
f 41//1 40//1 32//1
f 42//1 41//1 32//1
f 43//1 42//1 32//1
f 44//1 43//1 32//1
f 45//1 44//1 32//1
f 46//1 45//1 32//1
f 31//1 46//1 32//1
f 47//3 48//4 49//4 50//3
f 48//4 51//5 52//5 49//4
f 51//5 53//6 54//6 52//5
f 53//6 55//7 56//7 54//6
f 55//7 57//8 58//8 56//7
f 57//8 59//9 60//9 58//8
f 59//9 61//10 62//10 60//9
f 61//10 63//11 64//11 62//10
f 63//11 65//12 66//12 64//11
f 65//12 67//13 68//13 66//12
f 67//13 69//14 70//14 68//13
f 69//14 71//15 72//15 70//14
f 71//15 73//16 74//16 72//15
f 73//16 75//17 76//17 74//16
f 75//17 77//18 78//18 76//17
f 77//18 47//3 50//3 78//18
f 79//1 80//1 81//1
f 82//1 79//1 81//1
f 83//1 82//1 81//1
f 84//1 83//1 81//1
f 85//1 84//1 81//1
f 86//1 85//1 81//1
f 87//1 86//1 81//1
f 88//1 87//1 81//1
f 89//1 88//1 81//1
f 90//1 89//1 81//1
f 91//1 90//1 81//1
f 92//1 91//1 81//1
f 93//1 92//1 81//1
f 94//1 93//1 81//1
f 95//1 94//1 81//1
f 80//1 95//1 81//1
f 96//3 97//4 98//4 99//3
f 97//4 100//5 101//5 98//4
f 100//5 102//6 103//6 101//5
f 102//6 104//7 105//7 103//6
f 104//7 106//8 107//8 105//7
f 106//8 108//9 109//9 107//8
f 108//9 110//10 111//10 109//9
f 110//10 112//11 113//11 111//10
f 112//11 114//12 115//12 113//11
f 114//12 116//13 117//13 115//12
f 116//13 118//14 119//14 117//13
f 118//14 120//15 121//15 119//14
f 120//15 122//16 123//16 121//15
f 122//16 124//17 125//17 123//16
f 124//17 126//18 127//18 125//17
f 126//18 96//3 99//3 127//18
f 128//3 129//3 130//3 131//3
f 132//7 133//7 134//7 135//7
f 136//3 137//3 138//3 139//3
f 140//7 141//7 142//7 143//7
f 144//13 145//13 146//13 147//13
f 148//17 149//17 150//17 151//17
f 152//9 153//9 154//9 155//9
f 156//11 157//11 158//11 159//11
f 160//15 161//15 162//15 163//15
f 164//3 165//4 166//4 167//3
f 165//4 168//5 169//5 166//4
f 168//5 170//6 171//6 169//5
f 170//6 172//7 173//7 171//6
f 172//7 174//8 175//8 173//7
f 174//8 176//9 177//9 175//8
f 176//9 178//10 179//10 177//9
f 178//10 180//11 181//11 179//10
f 180//11 182//12 183//12 181//11
f 182//12 184//13 185//13 183//12
f 184//13 186//14 187//14 185//13
f 186//14 188//15 189//15 187//14
f 188//15 190//16 191//16 189//15
f 190//16 192//17 193//17 191//16
f 192//17 194//18 195//18 193//17
f 194//18 164//3 167//3 195//18
f 196//2 197//2 198//2
f 196//2 198//2 199//2
f 196//2 199//2 200//2
f 196//2 200//2 201//2
f 196//2 201//2 202//2
f 196//2 202//2 203//2
f 196//2 203//2 204//2
f 196//2 204//2 205//2
f 196//2 205//2 206//2
f 196//2 206//2 207//2
f 196//2 207//2 208//2
f 196//2 208//2 209//2
f 196//2 209//2 210//2
f 196//2 210//2 211//2
f 196//2 211//2 212//2
f 196//2 212//2 197//2
f 213//3 214//4 215//4 216//3
f 214//4 217//5 218//5 215//4
f 217//5 219//6 220//6 218//5
f 219//6 221//7 222//7 220//6
f 221//7 223//8 224//8 222//7
f 223//8 225//9 226//9 224//8
f 225//9 227//10 228//10 226//9
f 227//10 229//11 230//11 228//10
f 229//11 231//12 232//12 230//11
f 231//12 233//13 234//13 232//12
f 233//13 235//14 236//14 234//13
f 235//14 237//15 238//15 236//14
f 237//15 239//16 240//16 238//15
f 239//16 241//17 242//17 240//16
f 241//17 243//18 244//18 242//17
f 243//18 213//3 216//3 244//18
f 245//2 246//2 247//2
f 245//2 247//2 248//2
f 245//2 248//2 249//2
f 245//2 249//2 250//2
f 245//2 250//2 251//2
f 245//2 251//2 252//2
f 245//2 252//2 253//2
f 245//2 253//2 254//2
f 245//2 254//2 255//2
f 245//2 255//2 256//2
f 245//2 256//2 257//2
f 245//2 257//2 258//2
f 245//2 258//2 259//2
f 245//2 259//2 260//2
f 245//2 260//2 261//2
f 245//2 261//2 246//2
f 262//3 263//4 264//4 265//3
f 263//4 266//5 267//5 264//4
f 266//5 268//6 269//6 267//5
f 268//6 270//7 271//7 269//6
f 270//7 272//8 273//8 271//7
f 272//8 274//9 275//9 273//8
f 274//9 276//10 277//10 275//9
f 276//10 278//11 279//11 277//10
f 278//11 280//12 281//12 279//11
f 280//12 282//13 283//13 281//12
f 282//13 284//14 285//14 283//13
f 284//14 286//15 287//15 285//14
f 286//15 288//16 289//16 287//15
f 288//16 290//17 291//17 289//16
f 290//17 292//18 293//18 291//17
f 292//18 262//3 265//3 293//18
f 294//2 295//2 296//2
f 294//2 296//2 297//2
f 294//2 297//2 298//2
f 294//2 298//2 299//2
f 294//2 299//2 300//2
f 294//2 300//2 301//2
f 294//2 301//2 302//2
f 294//2 302//2 303//2
f 294//2 303//2 304//2
f 294//2 304//2 305//2
f 294//2 305//2 306//2
f 294//2 306//2 307//2
f 294//2 307//2 308//2
f 294//2 308//2 309//2
f 294//2 309//2 310//2
f 294//2 310//2 295//2
f 311//11 312//11 313//11 314//11
f 315//15 316//15 317//15 318//15
f 319//11 320//11 321//11 322//11
f 323//15 324//15 325//15 326//15
f 327//3 328//3 329//3 330//3
f 331//7 332//7 333//7 334//7
