# Blender v2.82 (sub 7) OBJ File: ''
# www.blender.org
o 00000_2420.dat_Mesh_2420.dat_4.009
v 30.000002 0.000009 10.000001
v 26.000002 0.000007 6.000001
v 26.000002 0.000007 -5.999999
v 30.000002 0.000009 -9.999999
v -5.999999 -0.000002 -6.000000
v -9.999999 -0.000004 -10.000000
v -6.000000 -0.000002 26.000000
v -10.000000 -0.000004 30.000000
v 6.000000 0.000002 26.000000
v 10.000000 0.000003 30.000000
v 6.000000 0.000002 6.000000
v 10.000001 0.000002 10.000000
v -6.000002 3.999998 26.000000
v -6.000000 3.999998 -6.000000
v 5.999999 4.000002 6.000000
v 5.999998 4.000002 26.000000
v 26.000000 4.000007 6.000001
v 26.000000 4.000007 -5.999999
v 9.999997 8.000004 30.000000
v 9.999998 8.000003 10.000000
v -10.000001 7.999998 -10.000000
v -10.000003 7.999998 30.000000
v 29.999998 8.000009 10.000001
v 30.000000 8.000009 -9.999999
v 11.530801 0.000003 3.695601
v 10.000001 0.000003 4.000000
v 10.000001 0.000003 0.000000
v 12.828401 0.000003 2.828400
v 13.695601 0.000003 1.530801
v 14.000001 0.000003 0.000001
v 13.695601 0.000003 -1.530799
v 12.828401 0.000003 -2.828399
v 11.530801 0.000003 -3.695600
v 10.000001 0.000003 -4.000000
v 8.469201 0.000002 -3.695600
v 7.171601 0.000002 -2.828400
v 6.304401 0.000002 -1.530800
v 6.000001 0.000002 0.000000
v 6.304401 0.000002 1.530800
v 7.171601 0.000002 2.828400
v 8.469201 0.000002 3.695601
v 10.000001 0.000003 4.000000
v 11.530801 0.000003 3.695601
v 11.530800 4.000004 3.695601
v 10.000000 4.000003 4.000000
v 12.828401 0.000003 2.828400
v 12.828400 4.000004 2.828400
v 13.695601 0.000003 1.530801
v 13.695601 4.000004 1.530801
v 14.000001 0.000003 0.000001
v 14.000000 4.000004 0.000001
v 13.695601 0.000003 -1.530799
v 13.695601 4.000004 -1.530799
v 12.828401 0.000003 -2.828399
v 12.828400 4.000004 -2.828399
v 11.530801 0.000003 -3.695600
v 11.530800 4.000004 -3.695600
v 10.000001 0.000003 -4.000000
v 10.000000 4.000003 -4.000000
v 8.469201 0.000002 -3.695600
v 8.469200 4.000002 -3.695600
v 7.171601 0.000002 -2.828400
v 7.171599 4.000002 -2.828400
v 6.304401 0.000002 -1.530800
v 6.304399 4.000002 -1.530800
v 6.000001 0.000002 0.000000
v 6.000000 4.000002 0.000000
v 6.304401 0.000002 1.530800
v 6.304399 4.000002 1.530800
v 7.171601 0.000002 2.828400
v 7.171599 4.000002 2.828400
v 8.469201 0.000002 3.695601
v 8.469200 4.000002 3.695601
v 1.530800 0.000000 13.695601
v 0.000000 0.000000 14.000000
v 0.000001 0.000000 10.000000
v 2.828401 0.000000 12.828400
v 3.695601 0.000001 11.530800
v 4.000000 0.000001 10.000000
v 3.695601 0.000001 8.469200
v 2.828401 0.000000 7.171600
v 1.530801 0.000000 6.304400
v 0.000001 0.000000 6.000000
v -1.530799 -0.000000 6.304400
v -2.828399 -0.000000 7.171600
v -3.695600 -0.000002 8.469200
v -4.000000 -0.000002 10.000000
v -3.695600 -0.000002 11.530800
v -2.828399 -0.000000 12.828400
v -1.530800 -0.000000 13.695601
v 0.000000 0.000000 14.000000
v 1.530800 0.000000 13.695601
v 1.530800 4.000000 13.695601
v -0.000000 4.000000 14.000000
v 2.828401 0.000000 12.828400
v 2.828400 4.000000 12.828400
v 3.695601 0.000001 11.530800
v 3.695600 4.000001 11.530800
v 4.000000 0.000001 10.000000
v 3.999999 4.000001 10.000000
v 3.695601 0.000001 8.469200
v 3.695600 4.000001 8.469200
v 2.828401 0.000000 7.171600
v 2.828400 4.000000 7.171600
v 1.530801 0.000000 6.304400
v 1.530800 4.000000 6.304400
v 0.000001 0.000000 6.000000
v 0.000000 4.000000 6.000000
v -1.530799 -0.000000 6.304400
v -1.530800 4.000000 6.304400
v -2.828399 -0.000000 7.171600
v -2.828400 4.000000 7.171600
v -3.695600 -0.000002 8.469200
v -3.695600 3.999999 8.469200
v -4.000000 -0.000002 10.000000
v -4.000000 3.999999 10.000000
v -3.695600 -0.000002 11.530800
v -3.695600 3.999999 11.530800
v -2.828399 -0.000000 12.828400
v -2.828400 4.000000 12.828400
v -1.530800 -0.000000 13.695601
v -1.530800 4.000000 13.695601
v 9.999997 8.000004 30.000000
v -10.000003 7.999998 30.000000
v -10.000000 -0.000004 30.000000
v 10.000000 0.000003 30.000000
v 10.000001 0.000002 10.000000
v 9.999998 8.000003 10.000000
v 9.999997 8.000004 30.000000
v 10.000000 0.000003 30.000000
v 29.999998 8.000009 10.000001
v 9.999998 8.000003 10.000000
v 10.000001 0.000002 10.000000
v 30.000002 0.000009 10.000001
v 30.000002 0.000009 -9.999999
v 30.000000 8.000009 -9.999999
v 29.999998 8.000009 10.000001
v 30.000002 0.000009 10.000001
v -10.000001 7.999998 -10.000000
v 30.000000 8.000009 -9.999999
v 30.000002 0.000009 -9.999999
v -9.999999 -0.000004 -10.000000
v -10.000000 -0.000004 30.000000
v -10.000003 7.999998 30.000000
v -10.000001 7.999998 -10.000000
v -9.999999 -0.000004 -10.000000
v -0.000002 8.000000 6.000000
v 2.296199 8.000000 5.543400
v 2.296197 12.000000 5.543400
v -0.000003 12.000000 6.000000
v 4.242599 8.000002 4.242600
v 4.242597 12.000001 4.242600
v 5.543398 8.000002 2.296200
v 5.543397 12.000002 2.296200
v 5.999999 8.000002 0.000000
v 5.999998 12.000002 0.000000
v 5.543398 8.000002 -2.296200
v 5.543397 12.000002 -2.296200
v 4.242599 8.000002 -4.242600
v 4.242597 12.000001 -4.242600
v 2.296199 8.000000 -5.543400
v 2.296197 12.000000 -5.543400
v -0.000001 8.000000 -6.000000
v -0.000003 12.000000 -6.000000
v -2.296201 8.000000 -5.543400
v -2.296203 12.000000 -5.543400
v -4.242601 8.000000 -4.242600
v -4.242602 11.999998 -4.242600
v -5.543401 7.999998 -2.296200
v -5.543402 11.999998 -2.296200
v -6.000001 7.999998 -0.000000
v -6.000002 11.999998 -0.000000
v -5.543401 7.999998 2.296200
v -5.543402 11.999998 2.296200
v -4.242601 8.000000 4.242600
v -4.242602 11.999998 4.242600
v -2.296201 8.000000 5.543400
v -2.296203 12.000000 5.543400
v -0.000003 12.000000 -0.000000
v -0.000003 12.000000 6.000000
v 2.296197 12.000000 5.543400
v 4.242597 12.000001 4.242600
v 5.543397 12.000002 2.296200
v 5.999998 12.000002 0.000000
v 5.543397 12.000002 -2.296200
v 4.242597 12.000001 -4.242600
v 2.296197 12.000000 -5.543400
v -0.000003 12.000000 -6.000000
v -2.296203 12.000000 -5.543400
v -4.242602 11.999998 -4.242600
v -5.543402 11.999998 -2.296200
v -6.000002 11.999998 -0.000000
v -5.543402 11.999998 2.296200
v -4.242602 11.999998 4.242600
v -2.296203 12.000000 5.543400
v -0.000002 8.000000 26.000000
v 2.296198 8.000000 25.543400
v 2.296196 12.000000 25.543400
v -0.000004 12.000000 26.000000
v 4.242598 8.000002 24.242599
v 4.242596 12.000001 24.242599
v 5.543397 8.000002 22.296200
v 5.543396 12.000002 22.296200
v 5.999998 8.000002 20.000000
v 5.999997 12.000002 20.000000
v 5.543398 8.000002 17.703800
v 5.543396 12.000002 17.703800
v 4.242598 8.000002 15.757401
v 4.242596 12.000001 15.757401
v 2.296198 8.000000 14.456600
v 2.296196 12.000000 14.456600
v -0.000002 8.000000 14.000000
v -0.000004 12.000000 14.000000
v -2.296202 8.000000 14.456600
v -2.296204 12.000000 14.456600
v -4.242602 8.000000 15.757401
v -4.242603 11.999998 15.757401
v -5.543402 7.999998 17.703800
v -5.543403 11.999998 17.703800
v -6.000002 7.999998 20.000000
v -6.000003 11.999998 20.000000
v -5.543402 7.999998 22.296200
v -5.543403 11.999998 22.296200
v -4.242602 8.000000 24.242599
v -4.242603 11.999998 24.242599
v -2.296202 8.000000 25.543400
v -2.296204 12.000000 25.543400
v -0.000004 12.000000 20.000000
v -0.000004 12.000000 26.000000
v 2.296196 12.000000 25.543400
v 4.242596 12.000001 24.242599
v 5.543396 12.000002 22.296200
v 5.999997 12.000002 20.000000
v 5.543396 12.000002 17.703800
v 4.242596 12.000001 15.757401
v 2.296196 12.000000 14.456600
v -0.000004 12.000000 14.000000
v -2.296204 12.000000 14.456600
v -4.242603 11.999998 15.757401
v -5.543403 11.999998 17.703800
v -6.000003 11.999998 20.000000
v -5.543403 11.999998 22.296200
v -4.242603 11.999998 24.242599
v -2.296204 12.000000 25.543400
v 19.999998 8.000005 6.000001
v 22.296198 8.000007 5.543401
v 22.296198 12.000007 5.543401
v 19.999998 12.000005 6.000001
v 24.242598 8.000007 4.242601
v 24.242598 12.000007 4.242601
v 25.543398 8.000007 2.296201
v 25.543398 12.000008 2.296201
v 25.999998 8.000007 0.000001
v 25.999998 12.000008 0.000001
v 25.543398 8.000007 -2.296199
v 25.543398 12.000008 -2.296199
v 24.242598 8.000007 -4.242599
v 24.242598 12.000007 -4.242599
v 22.296198 8.000007 -5.543399
v 22.296198 12.000007 -5.543399
v 19.999998 8.000005 -5.999999
v 19.999998 12.000005 -5.999999
v 17.703798 8.000005 -5.543399
v 17.703798 12.000005 -5.543399
v 15.757401 8.000005 -4.242599
v 15.757400 12.000005 -4.242599
v 14.456599 8.000003 -2.296199
v 14.456597 12.000004 -2.296199
v 13.999999 8.000003 0.000001
v 13.999997 12.000004 0.000001
v 14.456599 8.000003 2.296201
v 14.456597 12.000004 2.296201
v 15.757400 8.000005 4.242600
v 15.757400 12.000005 4.242600
v 17.703798 8.000005 5.543401
v 17.703798 12.000005 5.543401
v 19.999998 12.000005 0.000001
v 19.999998 12.000005 6.000001
v 22.296198 12.000007 5.543401
v 24.242598 12.000007 4.242601
v 25.543398 12.000008 2.296201
v 25.999998 12.000008 0.000001
v 25.543398 12.000008 -2.296199
v 24.242598 12.000007 -4.242599
v 22.296198 12.000007 -5.543399
v 19.999998 12.000005 -5.999999
v 17.703798 12.000005 -5.543399
v 15.757400 12.000005 -4.242599
v 14.456597 12.000004 -2.296199
v 13.999997 12.000004 0.000001
v 14.456597 12.000004 2.296201
v 15.757400 12.000005 4.242600
v 17.703798 12.000005 5.543401
v 26.000002 0.000007 6.000001
v 6.000000 0.000002 6.000000
v 5.999999 4.000002 6.000000
v 26.000000 4.000007 6.000001
v 26.000002 0.000007 6.000001
v 26.000000 4.000007 6.000001
v 26.000000 4.000007 -5.999999
v 26.000002 0.000007 -5.999999
v 6.000000 0.000002 26.000000
v -6.000000 -0.000002 26.000000
v -6.000002 3.999998 26.000000
v 5.999998 4.000002 26.000000
v 6.000000 0.000002 26.000000
v 5.999998 4.000002 26.000000
v 5.999999 4.000002 6.000000
v 6.000000 0.000002 6.000000
v -5.999999 -0.000002 -6.000000
v 26.000002 0.000007 -5.999999
v 26.000000 4.000007 -5.999999
v -6.000000 3.999998 -6.000000
v -5.999999 -0.000002 -6.000000
v -6.000000 3.999998 -6.000000
v -6.000002 3.999998 26.000000
v -6.000000 -0.000002 26.000000
vn 0.0000 -1.0000 -0.0000
vn -0.0000 1.0000 -0.0000
vn -0.0000 0.0000 1.0000
vn 0.3827 0.0000 0.9239
vn 0.7071 0.0000 0.7071
vn 0.9239 0.0000 0.3827
vn 1.0000 0.0000 0.0000
vn 0.9239 0.0000 -0.3827
vn 0.7071 0.0000 -0.7071
vn 0.3827 0.0000 -0.9239
vn -0.0000 0.0000 -1.0000
vn -0.3827 -0.0000 -0.9239
vn -0.7071 -0.0000 -0.7071
vn -0.9239 -0.0000 -0.3827
vn -1.0000 -0.0000 -0.0000
vn -0.9239 -0.0000 0.3827
vn -0.7071 -0.0000 0.7071
vn -0.3827 -0.0000 0.9239
s 1
f 1//1 2//1 3//1 4//1
f 4//1 3//1 5//1 6//1
f 6//1 5//1 7//1 8//1
f 8//1 7//1 9//1 10//1
f 10//1 9//1 11//1 12//1
f 12//1 11//1 2//1 1//1
f 13//1 14//1 15//1 16//1
f 17//1 15//1 14//1 18//1
f 19//2 20//2 21//2 22//2
f 20//2 23//2 24//2 21//2
f 25//1 26//1 27//1
f 28//1 25//1 27//1
f 29//1 28//1 27//1
f 30//1 29//1 27//1
f 31//1 30//1 27//1
f 32//1 31//1 27//1
f 33//1 32//1 27//1
f 34//1 33//1 27//1
f 35//1 34//1 27//1
f 36//1 35//1 27//1
f 37//1 36//1 27//1
f 38//1 37//1 27//1
f 39//1 38//1 27//1
f 40//1 39//1 27//1
f 41//1 40//1 27//1
f 26//1 41//1 27//1
f 42//3 43//4 44//4 45//3
f 43//4 46//5 47//5 44//4
f 46//5 48//6 49//6 47//5
f 48//6 50//7 51//7 49//6
f 50//7 52//8 53//8 51//7
f 52//8 54//9 55//9 53//8
f 54//9 56//10 57//10 55//9
f 56//10 58//11 59//11 57//10
f 58//11 60//12 61//12 59//11
f 60//12 62//13 63//13 61//12
f 62//13 64//14 65//14 63//13
f 64//14 66//15 67//15 65//14
f 66//15 68//16 69//16 67//15
f 68//16 70//17 71//17 69//16
f 70//17 72//18 73//18 71//17
f 72//18 42//3 45//3 73//18
f 74//1 75//1 76//1
f 77//1 74//1 76//1
f 78//1 77//1 76//1
f 79//1 78//1 76//1
f 80//1 79//1 76//1
f 81//1 80//1 76//1
f 82//1 81//1 76//1
f 83//1 82//1 76//1
f 84//1 83//1 76//1
f 85//1 84//1 76//1
f 86//1 85//1 76//1
f 87//1 86//1 76//1
f 88//1 87//1 76//1
f 89//1 88//1 76//1
f 90//1 89//1 76//1
f 75//1 90//1 76//1
f 91//3 92//4 93//4 94//3
f 92//4 95//5 96//5 93//4
f 95//5 97//6 98//6 96//5
f 97//6 99//7 100//7 98//6
f 99//7 101//8 102//8 100//7
f 101//8 103//9 104//9 102//8
f 103//9 105//10 106//10 104//9
f 105//10 107//11 108//11 106//10
f 107//11 109//12 110//12 108//11
f 109//12 111//13 112//13 110//12
f 111//13 113//14 114//14 112//13
f 113//14 115//15 116//15 114//14
f 115//15 117//16 118//16 116//15
f 117//16 119//17 120//17 118//16
f 119//17 121//18 122//18 120//17
f 121//18 91//3 94//3 122//18
f 123//3 124//3 125//3 126//3
f 127//7 128//7 129//7 130//7
f 131//3 132//3 133//3 134//3
f 135//7 136//7 137//7 138//7
f 139//11 140//11 141//11 142//11
f 143//15 144//15 145//15 146//15
f 147//3 148//4 149//4 150//3
f 148//4 151//5 152//5 149//4
f 151//5 153//6 154//6 152//5
f 153//6 155//7 156//7 154//6
f 155//7 157//8 158//8 156//7
f 157//8 159//9 160//9 158//8
f 159//9 161//10 162//10 160//9
f 161//10 163//11 164//11 162//10
f 163//11 165//12 166//12 164//11
f 165//12 167//13 168//13 166//12
f 167//13 169//14 170//14 168//13
f 169//14 171//15 172//15 170//14
f 171//15 173//16 174//16 172//15
f 173//16 175//17 176//17 174//16
f 175//17 177//18 178//18 176//17
f 177//18 147//3 150//3 178//18
f 179//2 180//2 181//2
f 179//2 181//2 182//2
f 179//2 182//2 183//2
f 179//2 183//2 184//2
f 179//2 184//2 185//2
f 179//2 185//2 186//2
f 179//2 186//2 187//2
f 179//2 187//2 188//2
f 179//2 188//2 189//2
f 179//2 189//2 190//2
f 179//2 190//2 191//2
f 179//2 191//2 192//2
f 179//2 192//2 193//2
f 179//2 193//2 194//2
f 179//2 194//2 195//2
f 179//2 195//2 180//2
f 196//3 197//4 198//4 199//3
f 197//4 200//5 201//5 198//4
f 200//5 202//6 203//6 201//5
f 202//6 204//7 205//7 203//6
f 204//7 206//8 207//8 205//7
f 206//8 208//9 209//9 207//8
f 208//9 210//10 211//10 209//9
f 210//10 212//11 213//11 211//10
f 212//11 214//12 215//12 213//11
f 214//12 216//13 217//13 215//12
f 216//13 218//14 219//14 217//13
f 218//14 220//15 221//15 219//14
f 220//15 222//16 223//16 221//15
f 222//16 224//17 225//17 223//16
f 224//17 226//18 227//18 225//17
f 226//18 196//3 199//3 227//18
f 228//2 229//2 230//2
f 228//2 230//2 231//2
f 228//2 231//2 232//2
f 228//2 232//2 233//2
f 228//2 233//2 234//2
f 228//2 234//2 235//2
f 228//2 235//2 236//2
f 228//2 236//2 237//2
f 228//2 237//2 238//2
f 228//2 238//2 239//2
f 228//2 239//2 240//2
f 228//2 240//2 241//2
f 228//2 241//2 242//2
f 228//2 242//2 243//2
f 228//2 243//2 244//2
f 228//2 244//2 229//2
f 245//3 246//4 247//4 248//3
f 246//4 249//5 250//5 247//4
f 249//5 251//6 252//6 250//5
f 251//6 253//7 254//7 252//6
f 253//7 255//8 256//8 254//7
f 255//8 257//9 258//9 256//8
f 257//9 259//10 260//10 258//9
f 259//10 261//11 262//11 260//10
f 261//11 263//12 264//12 262//11
f 263//12 265//13 266//13 264//12
f 265//13 267//14 268//14 266//13
f 267//14 269//15 270//15 268//14
f 269//15 271//16 272//16 270//15
f 271//16 273//17 274//17 272//16
f 273//17 275//18 276//18 274//17
f 275//18 245//3 248//3 276//18
f 277//2 278//2 279//2
f 277//2 279//2 280//2
f 277//2 280//2 281//2
f 277//2 281//2 282//2
f 277//2 282//2 283//2
f 277//2 283//2 284//2
f 277//2 284//2 285//2
f 277//2 285//2 286//2
f 277//2 286//2 287//2
f 277//2 287//2 288//2
f 277//2 288//2 289//2
f 277//2 289//2 290//2
f 277//2 290//2 291//2
f 277//2 291//2 292//2
f 277//2 292//2 293//2
f 277//2 293//2 278//2
f 294//11 295//11 296//11 297//11
f 298//15 299//15 300//15 301//15
f 302//11 303//11 304//11 305//11
f 306//15 307//15 308//15 309//15
f 310//3 311//3 312//3 313//3
f 314//7 315//7 316//7 317//7
