# Blender v2.82 (sub 7) OBJ File: ''
# www.blender.org
o 00000_2877.dat_Mesh_2877.dat_4
v -20.000000 0.000000 -8.000000
v -16.000000 0.000000 -6.000000
v -16.000000 0.000000 6.000000
v 20.000000 0.000000 8.000000
v 20.000000 0.000000 -8.000000
v 20.000000 24.000000 -8.000000
v 20.000000 24.000000 8.000000
v -20.000000 24.000000 8.000000
v -20.000000 2.000000 10.000000
v 20.000000 2.000000 10.000000
v 20.000000 10.000000 10.000000
v 20.000000 14.000000 10.000000
v -20.000000 12.000000 8.000000
v 20.000000 16.000000 8.000000
v -20.000000 14.000000 10.000000
v 20.000000 20.000000 8.000000
v -20.000000 18.000000 10.000000
v 20.000000 22.000000 10.000000
v 20.000000 8.000000 8.000000
v 20.000000 6.000000 10.000000
v 20.000000 4.000000 8.000000
v 20.000000 12.000000 8.000000
v 20.000000 18.000000 10.000000
v -20.000000 0.000000 8.000000
v -20.000000 4.000000 8.000000
v -20.000000 6.000000 10.000000
v -20.000000 8.000000 8.000000
v -20.000000 10.000000 10.000000
v -20.000000 16.000000 8.000000
v -20.000000 20.000000 8.000000
v -20.000000 22.000000 10.000000
v 18.000000 24.000000 -10.000000
v 16.000000 0.000000 -8.000000
v 14.000000 0.000000 -10.000000
v 12.000000 0.000000 -8.000000
v 8.000000 0.000000 -8.000000
v 8.000000 24.000000 -8.000000
v 6.000000 0.000000 -10.000000
v 6.000000 24.000000 -10.000000
v 4.000000 0.000000 -8.000000
v 2.000000 0.000000 -10.000000
v 0.000000 24.000000 -8.000000
v 2.000000 24.000000 -10.000000
v 0.000000 0.000000 -8.000000
v -2.000000 24.000000 -10.000000
v -4.000000 24.000000 -8.000000
v -8.000000 0.000000 -8.000000
v -12.000000 0.000000 -8.000000
v -14.000000 0.000000 -10.000000
v -16.000000 0.000000 -8.000000
v -16.000000 24.000000 -8.000000
v -18.000000 0.000000 -10.000000
v -18.000000 24.000000 -10.000000
v -20.000000 24.000000 -8.000000
v -10.000000 0.000000 -10.000000
v -6.000000 0.000000 -10.000000
v -4.000000 0.000000 -8.000000
v -2.000000 0.000000 -10.000000
v 10.000000 0.000000 -10.000000
v 18.000000 0.000000 -10.000000
v 16.000000 24.000000 -8.000000
v 14.000000 24.000000 -10.000000
v 12.000000 24.000000 -8.000000
v 10.000000 24.000000 -10.000000
v 4.000000 24.000000 -8.000000
v -6.000000 24.000000 -10.000000
v -8.000000 24.000000 -8.000000
v -10.000000 24.000000 -10.000000
v -12.000000 24.000000 -8.000000
v -14.000000 24.000000 -10.000000
v 1.530800 0.000000 -3.695600
v 0.000000 0.000000 0.000001
v 0.000000 0.000000 4.000000
v 1.530800 0.000000 3.695601
v 4.000000 0.000000 0.000001
v 3.695600 0.000000 -1.530799
v 3.695600 20.000000 -1.530800
v 2.828400 0.000000 -2.828399
v 2.828400 20.000000 -2.828400
v 1.530800 20.000000 -3.695600
v 0.000000 0.000000 -4.000000
v -1.530800 20.000000 -3.695600
v 0.000000 20.000000 -4.000000
v -1.530800 0.000000 -3.695600
v -2.828400 0.000000 -2.828399
v -3.695600 0.000000 -1.530799
v -3.695600 20.000000 -1.530800
v -2.828400 20.000000 -2.828400
v -4.000000 0.000000 0.000001
v -4.000000 20.000000 -0.000000
v -3.695600 0.000000 1.530801
v -3.695600 20.000000 1.530800
v -2.828400 0.000000 2.828400
v -1.530800 0.000000 3.695601
v -1.530800 20.000000 3.695600
v -2.828400 20.000000 2.828400
v 0.000000 20.000000 4.000000
v 2.828400 20.000000 2.828400
v 1.530800 20.000000 3.695600
v 2.828400 0.000000 2.828400
v 3.695600 0.000000 1.530801
v 3.695600 20.000000 1.530800
v 4.000000 20.000000 -0.000000
v -16.000000 20.000000 -6.000000
v 16.000000 20.000000 -6.000000
v 16.000000 20.000000 6.000000
v 16.000000 0.000000 6.000000
v -16.000000 20.000000 6.000000
v 16.000000 0.000000 -6.000000
v 15.543400 24.000000 -2.296201
v 16.000000 28.000000 -0.000001
v 14.242599 24.000000 -4.242600
v 12.296200 24.000000 -5.543400
v 10.000000 28.000000 -6.000000
v 12.296200 28.000000 -5.543400
v 10.000000 24.000000 -6.000000
v 7.703800 24.000000 -5.543400
v 5.757400 24.000000 -4.242600
v 4.456600 24.000000 -2.296201
v 4.456600 28.000000 -2.296201
v 4.000000 28.000000 -0.000001
v 4.000000 24.000000 -0.000000
v 4.456600 24.000000 2.296200
v 5.757400 24.000000 4.242599
v 4.456600 28.000000 2.296199
v 7.703800 24.000000 5.543399
v 7.703800 28.000000 5.543399
v 10.000000 24.000000 6.000000
v 12.296200 24.000000 5.543399
v 12.296200 28.000000 5.543399
v 14.242599 24.000000 4.242599
v 15.543400 24.000000 2.296200
v 16.000000 24.000000 -0.000000
v 15.543400 28.000000 -2.296201
v 14.242599 28.000000 -4.242600
v 10.000000 28.000000 -0.000001
v 7.703800 28.000000 -5.543400
v 5.757400 28.000000 -4.242600
v 5.757400 28.000000 4.242599
v 10.000000 28.000000 6.000000
v 14.242599 28.000000 4.242599
v 15.543400 28.000000 2.296199
v -4.456600 24.000000 -2.296201
v -5.757400 24.000000 -4.242600
v -4.456600 28.000000 -2.296201
v -7.703800 24.000000 -5.543400
v -10.000000 24.000000 -6.000000
v -12.296200 24.000000 -5.543400
v -14.242599 24.000000 -4.242600
v -14.242599 28.000000 -4.242600
v -15.543400 28.000000 -2.296201
v -15.543400 24.000000 -2.296201
v -16.000000 24.000000 -0.000000
v -15.543400 28.000000 2.296199
v -15.543400 24.000000 2.296200
v -14.242599 24.000000 4.242599
v -12.296200 24.000000 5.543399
v -14.242599 28.000000 4.242599
v -10.000000 24.000000 6.000000
v -7.703800 24.000000 5.543399
v -10.000000 28.000000 6.000000
v -5.757400 24.000000 4.242599
v -5.757400 28.000000 4.242599
v -4.456600 24.000000 2.296200
v -4.000000 24.000000 -0.000000
v -5.757400 28.000000 -4.242600
v -7.703800 28.000000 -5.543400
v -10.000000 28.000000 -6.000000
v -12.296200 28.000000 -5.543400
v -16.000000 28.000000 -0.000001
v -10.000000 28.000000 -0.000001
v -12.296200 28.000000 5.543399
v -7.703800 28.000000 5.543399
v -4.456600 28.000000 2.296199
v -4.000000 28.000000 -0.000001
v -16.000000 0.000000 -6.000000
v -16.000000 0.000000 -6.000000
v -16.000000 0.000000 6.000000
v -16.000000 0.000000 6.000000
v 20.000000 24.000000 -8.000000
v 20.000000 24.000000 -8.000000
v 20.000000 24.000000 -8.000000
v 20.000000 24.000000 8.000000
v 20.000000 24.000000 8.000000
v 20.000000 24.000000 8.000000
v 20.000000 8.000000 8.000000
v 20.000000 8.000000 8.000000
v 20.000000 8.000000 8.000000
v 20.000000 6.000000 10.000000
v 20.000000 6.000000 10.000000
v 20.000000 4.000000 8.000000
v 20.000000 4.000000 8.000000
v 20.000000 4.000000 8.000000
v -20.000000 4.000000 8.000000
v -20.000000 4.000000 8.000000
v -20.000000 4.000000 8.000000
v -20.000000 6.000000 10.000000
v -20.000000 6.000000 10.000000
v -20.000000 8.000000 8.000000
v -20.000000 8.000000 8.000000
v -20.000000 8.000000 8.000000
v -20.000000 20.000000 8.000000
v -20.000000 20.000000 8.000000
v -20.000000 20.000000 8.000000
v -20.000000 22.000000 10.000000
v -20.000000 22.000000 10.000000
v 16.000000 0.000000 -8.000000
v 16.000000 0.000000 -8.000000
v 16.000000 0.000000 -8.000000
v 14.000000 0.000000 -10.000000
v 14.000000 0.000000 -10.000000
v 8.000000 0.000000 -8.000000
v 8.000000 0.000000 -8.000000
v 8.000000 0.000000 -8.000000
v 8.000000 24.000000 -8.000000
v 8.000000 24.000000 -8.000000
v 8.000000 24.000000 -8.000000
v 6.000000 0.000000 -10.000000
v 6.000000 0.000000 -10.000000
v 6.000000 24.000000 -10.000000
v 6.000000 24.000000 -10.000000
v 4.000000 0.000000 -8.000000
v 4.000000 0.000000 -8.000000
v 4.000000 0.000000 -8.000000
v 2.000000 0.000000 -10.000000
v 2.000000 0.000000 -10.000000
v 0.000000 24.000000 -8.000000
v 0.000000 24.000000 -8.000000
v 0.000000 24.000000 -8.000000
v 2.000000 24.000000 -10.000000
v 2.000000 24.000000 -10.000000
v -14.000000 0.000000 -10.000000
v -14.000000 0.000000 -10.000000
v -16.000000 0.000000 -8.000000
v -16.000000 0.000000 -8.000000
v -16.000000 0.000000 -8.000000
v -16.000000 24.000000 -8.000000
v -16.000000 24.000000 -8.000000
v -16.000000 24.000000 -8.000000
v -18.000000 0.000000 -10.000000
v -18.000000 0.000000 -10.000000
v -18.000000 24.000000 -10.000000
v -18.000000 24.000000 -10.000000
v -6.000000 0.000000 -10.000000
v -6.000000 0.000000 -10.000000
v -4.000000 0.000000 -8.000000
v -4.000000 0.000000 -8.000000
v -4.000000 0.000000 -8.000000
v 12.000000 24.000000 -8.000000
v 12.000000 24.000000 -8.000000
v 12.000000 24.000000 -8.000000
v 10.000000 24.000000 -10.000000
v 10.000000 24.000000 -10.000000
v -6.000000 24.000000 -10.000000
v -6.000000 24.000000 -10.000000
v -8.000000 24.000000 -8.000000
v -8.000000 24.000000 -8.000000
v -8.000000 24.000000 -8.000000
v -12.000000 24.000000 -8.000000
v -12.000000 24.000000 -8.000000
v -12.000000 24.000000 -8.000000
v -14.000000 24.000000 -10.000000
v -14.000000 24.000000 -10.000000
v -2.828400 0.000000 -2.828399
v -3.695600 0.000000 -1.530799
v -2.828400 0.000000 2.828400
v -1.530800 0.000000 3.695601
v 2.828400 0.000000 2.828400
v 3.695600 0.000000 1.530801
v 16.000000 20.000000 6.000000
v 16.000000 20.000000 6.000000
v -16.000000 20.000000 6.000000
v -16.000000 20.000000 6.000000
v 16.000000 0.000000 6.000000
v 16.000000 0.000000 6.000000
v 10.000000 28.000000 -6.000000
v 12.296200 28.000000 -5.543400
v 14.242599 28.000000 4.242599
v 15.543400 28.000000 2.296199
v -5.757400 28.000000 -4.242600
v -7.703800 28.000000 -5.543400
v 16.000000 0.000000 -6.000000
v 16.000000 0.000000 -6.000000
v -20.000000 0.000000 -8.000000
v -20.000000 0.000000 -8.000000
v -20.000000 0.000000 -8.000000
v -20.000000 0.000000 8.000000
v -20.000000 0.000000 8.000000
v -20.000000 0.000000 8.000000
v 20.000000 0.000000 8.000000
v 20.000000 0.000000 8.000000
v 20.000000 0.000000 8.000000
v 20.000000 0.000000 -8.000000
v 20.000000 0.000000 -8.000000
v 20.000000 0.000000 -8.000000
v -20.000000 24.000000 -8.000000
v -20.000000 24.000000 -8.000000
v -20.000000 24.000000 -8.000000
v -20.000000 24.000000 8.000000
v -20.000000 24.000000 8.000000
v -20.000000 24.000000 8.000000
v 20.000000 2.000000 10.000000
v 20.000000 2.000000 10.000000
v -20.000000 2.000000 10.000000
v -20.000000 2.000000 10.000000
v 20.000000 10.000000 10.000000
v 20.000000 10.000000 10.000000
v -20.000000 10.000000 10.000000
v -20.000000 10.000000 10.000000
v 20.000000 12.000000 8.000000
v 20.000000 12.000000 8.000000
v 20.000000 12.000000 8.000000
v -20.000000 12.000000 8.000000
v -20.000000 12.000000 8.000000
v -20.000000 12.000000 8.000000
v 20.000000 14.000000 10.000000
v 20.000000 14.000000 10.000000
v -20.000000 14.000000 10.000000
v -20.000000 14.000000 10.000000
v 20.000000 16.000000 8.000000
v 20.000000 16.000000 8.000000
v 20.000000 16.000000 8.000000
v -20.000000 16.000000 8.000000
v -20.000000 16.000000 8.000000
v -20.000000 16.000000 8.000000
v 20.000000 18.000000 10.000000
v 20.000000 18.000000 10.000000
v -20.000000 18.000000 10.000000
v -20.000000 18.000000 10.000000
v 20.000000 20.000000 8.000000
v 20.000000 20.000000 8.000000
v 20.000000 20.000000 8.000000
v 20.000000 22.000000 10.000000
v 20.000000 22.000000 10.000000
v 18.000000 0.000000 -10.000000
v 18.000000 0.000000 -10.000000
v 18.000000 24.000000 -10.000000
v 18.000000 24.000000 -10.000000
v 16.000000 24.000000 -8.000000
v 16.000000 24.000000 -8.000000
v 16.000000 24.000000 -8.000000
v 14.000000 24.000000 -10.000000
v 14.000000 24.000000 -10.000000
v 12.000000 0.000000 -8.000000
v 12.000000 0.000000 -8.000000
v 12.000000 0.000000 -8.000000
v 10.000000 0.000000 -10.000000
v 10.000000 0.000000 -10.000000
v 4.000000 24.000000 -8.000000
v 4.000000 24.000000 -8.000000
v 4.000000 24.000000 -8.000000
v 0.000000 0.000000 -8.000000
v 0.000000 0.000000 -8.000000
v 0.000000 0.000000 -8.000000
v -2.000000 0.000000 -10.000000
v -2.000000 0.000000 -10.000000
v -2.000000 24.000000 -10.000000
v -2.000000 24.000000 -10.000000
v -4.000000 24.000000 -8.000000
v -4.000000 24.000000 -8.000000
v -4.000000 24.000000 -8.000000
v -8.000000 0.000000 -8.000000
v -8.000000 0.000000 -8.000000
v -8.000000 0.000000 -8.000000
v -10.000000 0.000000 -10.000000
v -10.000000 0.000000 -10.000000
v -10.000000 24.000000 -10.000000
v -10.000000 24.000000 -10.000000
v -12.000000 0.000000 -8.000000
v -12.000000 0.000000 -8.000000
v -12.000000 0.000000 -8.000000
v 3.695600 0.000000 -1.530799
v 4.000000 0.000000 0.000001
v 2.828400 0.000000 -2.828399
v 1.530800 0.000000 -3.695600
v 0.000000 0.000000 -4.000000
v -1.530800 0.000000 -3.695600
v -4.000000 0.000000 0.000001
v -3.695600 0.000000 1.530801
v 0.000000 0.000000 4.000000
v 1.530800 0.000000 3.695601
v -16.000000 20.000000 -6.000000
v -16.000000 20.000000 -6.000000
v 16.000000 20.000000 -6.000000
v 16.000000 20.000000 -6.000000
v 15.543400 28.000000 -2.296201
v 16.000000 28.000000 -0.000001
v 14.242599 28.000000 -4.242600
v 7.703800 28.000000 -5.543400
v 5.757400 28.000000 -4.242600
v 4.456600 28.000000 -2.296201
v 4.000000 28.000000 -0.000001
v 4.456600 28.000000 2.296199
v 5.757400 28.000000 4.242599
v 7.703800 28.000000 5.543399
v 10.000000 28.000000 6.000000
v 12.296200 28.000000 5.543399
v -4.456600 28.000000 -2.296201
v -4.000000 28.000000 -0.000001
v -10.000000 28.000000 -6.000000
v -12.296200 28.000000 -5.543400
v -14.242599 28.000000 -4.242600
v -15.543400 28.000000 -2.296201
v -16.000000 28.000000 -0.000001
v -15.543400 28.000000 2.296199
v -14.242599 28.000000 4.242599
v -12.296200 28.000000 5.543399
v -10.000000 28.000000 6.000000
v -7.703800 28.000000 5.543399
v -5.757400 28.000000 4.242599
v -4.456600 28.000000 2.296199
vn 0.0000 -1.0000 0.0000
vn 1.0000 0.0000 0.0000
vn -1.0000 0.0000 0.0000
vn 0.0000 1.0000 0.0000
vn 0.0000 -0.7071 0.7071
vn 0.0000 0.7071 0.7071
vn 0.7071 0.0000 -0.7071
vn -0.7071 0.0000 -0.7071
vn 0.9239 0.0000 -0.3827
vn 0.3827 0.0000 -0.9239
vn 0.0000 0.0000 -1.0000
vn -0.3827 0.0000 -0.9239
vn -0.9239 0.0000 -0.3827
vn -0.9239 0.0000 0.3827
vn -0.7071 0.0000 0.7071
vn -0.3827 0.0000 0.9239
vn 0.0000 0.0000 1.0000
vn 0.3827 0.0000 0.9239
vn 0.7071 0.0000 0.7071
vn 0.9239 0.0000 0.3827
s 1
f 293//1 282//1 176//1 284//1
f 284//1 176//1 178//1 287//1
f 287//1 178//1 275//1 290//1
f 290//1 275//1 282//1 293//1
f 294//2 180//2 183//2 291//2
f 296//3 285//3 288//3 299//3
f 297//4 300//4 184//4 181//4
f 292//5 302//5 304//5 289//5
f 303//6 193//6 196//6 305//6
f 192//5 190//5 197//5 195//5
f 189//6 187//6 200//6 198//6
f 188//5 306//5 308//5 201//5
f 307//6 310//6 313//6 309//6
f 311//5 316//5 318//5 314//5
f 317//6 320//6 323//6 319//6
f 321//5 326//5 328//5 324//5
f 327//6 330//6 203//6 329//6
f 331//5 333//5 205//5 202//5
f 334//6 185//6 301//6 206//6
f 21//2 10//2 4//2
f 186//2 20//2 191//2
f 312//2 11//2 19//2
f 322//2 12//2 22//2
f 332//2 23//2 14//2
f 7//2 18//2 16//2
f 24//3 9//3 25//3
f 194//3 26//3 199//3
f 27//3 28//3 315//3
f 13//3 15//3 325//3
f 29//3 17//3 204//3
f 30//3 31//3 8//3
f 295//7 335//7 337//7 182//7
f 336//8 208//8 339//8 338//8
f 207//7 210//7 342//7 340//7
f 211//8 344//8 250//8 343//8
f 345//7 347//7 252//7 249//7
f 348//8 212//8 215//8 253//8
f 213//7 218//7 220//7 216//7
f 219//8 223//8 349//8 221//8
f 222//7 225//7 231//7 350//7
f 226//8 352//8 227//8 230//8
f 353//7 355//7 357//7 228//7
f 356//8 247//8 359//8 358//8
f 246//7 244//7 255//7 360//7
f 245//8 362//8 256//8 254//8
f 363//7 365//7 367//7 257//7
f 366//8 369//8 260//8 368//8
f 370//7 233//7 262//7 259//7
f 232//8 234//8 237//8 263//8
f 235//7 240//7 242//7 238//7
f 241//8 286//8 298//8 243//8
f 1//1 52//1 236//1
f 50//1 49//1 371//1
f 48//1 55//1 364//1
f 47//1 56//1 248//1
f 57//1 58//1 354//1
f 44//1 41//1 224//1
f 40//1 38//1 214//1
f 36//1 59//1 346//1
f 35//1 34//1 209//1
f 33//1 60//1 5//1
f 6//4 32//4 341//4
f 61//4 62//4 251//4
f 63//4 64//4 217//4
f 37//4 39//4 351//4
f 65//4 43//4 229//4
f 42//4 45//4 361//4
f 46//4 66//4 258//4
f 67//4 68//4 261//4
f 69//4 70//4 239//4
f 51//4 53//4 54//4
f 372//1 373//1 72//1
f 78//1 372//1 72//1
f 375//1 78//1 72//1
f 81//1 375//1 72//1
f 377//1 81//1 72//1
f 85//1 377//1 72//1
f 265//1 85//1 72//1
f 89//1 265//1 72//1
f 379//1 89//1 72//1
f 93//1 379//1 72//1
f 267//1 93//1 72//1
f 380//1 267//1 72//1
f 381//1 380//1 72//1
f 268//1 381//1 72//1
f 269//1 268//1 72//1
f 373//1 269//1 72//1
f 75//2 76//9 77//9 103//2
f 76//9 374//7 79//7 77//9
f 374//7 71//10 80//10 79//7
f 71//10 376//11 83//11 80//10
f 376//11 84//12 82//12 83//11
f 84//12 264//8 88//8 82//12
f 264//8 86//13 87//13 88//8
f 86//13 378//3 90//3 87//13
f 378//3 91//14 92//14 90//3
f 91//14 266//15 96//15 92//14
f 266//15 94//16 95//16 96//15
f 94//16 73//17 97//17 95//16
f 73//17 74//18 99//18 97//17
f 74//18 100//19 98//19 99//18
f 100//19 101//20 102//20 98//19
f 101//20 75//2 103//2 102//20
f 382//1 384//1 270//1 272//1
f 383//17 177//17 283//17 385//17
f 273//2 179//2 2//2 104//2
f 271//11 274//11 3//11 108//11
f 105//3 109//3 107//3 106//3
f 133//2 110//9 386//9 387//2
f 110//9 112//7 388//7 386//9
f 112//7 113//10 277//10 388//7
f 113//10 116//11 276//11 277//10
f 116//11 117//12 389//12 276//11
f 117//12 118//8 390//8 389//12
f 118//8 119//13 391//13 390//8
f 119//13 122//3 392//3 391//13
f 122//3 123//14 393//14 392//3
f 123//14 124//15 394//15 393//14
f 124//15 126//16 395//16 394//15
f 126//16 128//17 396//17 395//16
f 128//17 129//18 397//18 396//17
f 129//18 131//19 278//19 397//18
f 131//19 132//20 279//20 278//19
f 132//20 133//2 387//2 279//20
f 136//4 111//4 134//4
f 136//4 134//4 135//4
f 136//4 135//4 115//4
f 136//4 115//4 114//4
f 136//4 114//4 137//4
f 136//4 137//4 138//4
f 136//4 138//4 120//4
f 136//4 120//4 121//4
f 136//4 121//4 125//4
f 136//4 125//4 139//4
f 136//4 139//4 127//4
f 136//4 127//4 140//4
f 136//4 140//4 130//4
f 136//4 130//4 141//4
f 136//4 141//4 142//4
f 136//4 142//4 111//4
f 165//2 143//9 398//9 399//2
f 143//9 144//7 280//7 398//9
f 144//7 146//10 281//10 280//7
f 146//10 147//11 400//11 281//10
f 147//11 148//12 401//12 400//11
f 148//12 149//8 402//8 401//12
f 149//8 152//13 403//13 402//8
f 152//13 153//3 404//3 403//13
f 153//3 155//14 405//14 404//3
f 155//14 156//15 406//15 405//14
f 156//15 157//16 407//16 406//15
f 157//16 159//17 408//17 407//16
f 159//17 160//18 409//18 408//17
f 160//18 162//19 410//19 409//18
f 162//19 164//20 411//20 410//19
f 164//20 165//2 399//2 411//20
f 171//4 175//4 145//4
f 171//4 145//4 166//4
f 171//4 166//4 167//4
f 171//4 167//4 168//4
f 171//4 168//4 169//4
f 171//4 169//4 150//4
f 171//4 150//4 151//4
f 171//4 151//4 170//4
f 171//4 170//4 154//4
f 171//4 154//4 158//4
f 171//4 158//4 172//4
f 171//4 172//4 161//4
f 171//4 161//4 173//4
f 171//4 173//4 163//4
f 171//4 163//4 174//4
f 171//4 174//4 175//4
