# Blender v2.82 (sub 7) OBJ File: ''
# www.blender.org
o 00000_3040b.dat_Mesh_3040b.dat_4
v 6.000000 0.000000 -16.000000
v -6.000000 0.000000 -16.000000
v -6.000000 0.000002 16.000000
v -10.000000 0.000002 20.000000
v 10.000000 0.000002 20.000000
v 6.000000 0.000002 16.000000
v -6.000000 20.000000 -16.000000
v -10.000000 24.000000 -20.000000
v 10.000000 24.000000 -20.000000
v 6.000000 20.000000 -16.000000
v 10.000000 0.000000 -20.000000
v 10.000000 24.000000 -0.000001
v 10.000000 4.000002 20.000000
v 6.000000 4.000002 15.999999
v 6.000000 20.000000 -0.000001
v -6.000000 20.000000 -0.000001
v -6.000000 4.000002 15.999999
v -10.000000 0.000000 -20.000000
v -10.000000 4.000002 20.000000
v -10.000000 24.000000 -0.000001
v 3.695600 0.000000 -1.530800
v 1.530800 0.000000 -3.695600
v 2.828400 0.000000 -2.828400
v -1.530800 0.000000 -3.695600
v -2.828400 0.000000 -2.828400
v -4.000000 0.000000 0.000000
v -3.695600 0.000000 1.530800
v 0.000000 0.000000 0.000000
v 2.828400 0.000000 2.828400
v 4.000000 0.000000 0.000000
v 3.695600 0.000000 1.530800
v 1.530800 4.000000 -3.695600
v 2.828400 4.000000 -2.828400
v 0.000000 0.000000 -4.000000
v -3.695600 0.000000 -1.530800
v -4.000000 4.000000 0.000000
v -2.828400 0.000000 2.828400
v -2.828400 4.000000 2.828400
v -3.695600 4.000000 1.530800
v -1.530800 0.000000 3.695601
v 0.000000 4.000000 4.000000
v 0.000000 0.000000 4.000000
v 1.530800 4.000000 3.695601
v 1.530800 0.000000 3.695601
v 4.000000 4.000000 0.000000
v 3.695600 4.000000 1.530800
v 1.530800 16.304401 3.695600
v 2.828400 17.171600 2.828399
v 3.695600 16.000000 1.530799
v 4.000000 16.000000 -0.000001
v 3.695600 18.469200 1.530799
v -1.530800 16.304401 3.695600
v -1.530800 16.000000 3.695600
v -2.828400 17.171600 2.828399
v -3.695600 18.469200 1.530799
v -4.000000 20.000000 -0.000001
v -4.000000 16.000000 -0.000001
v 3.695600 4.000000 -1.530800
v 3.695600 20.000000 -1.530801
v 4.000000 20.000000 -0.000001
v 1.530800 20.000000 -3.695601
v 2.828400 20.000000 -2.828401
v 0.000000 4.000000 -4.000000
v -1.530800 20.000000 -3.695601
v 0.000000 20.000000 -4.000001
v -2.828400 4.000000 -2.828400
v -1.530800 4.000000 -3.695600
v -3.695600 4.000000 -1.530800
v -2.828400 20.000000 -2.828401
v -3.695600 20.000000 -1.530801
v 2.828400 16.000000 2.828399
v 2.828400 4.000000 2.828400
v 1.530800 16.000000 3.695600
v 0.000000 16.000000 3.999999
v -1.530800 4.000000 3.695601
v -2.828400 16.000000 2.828399
v -3.695600 16.000000 1.530799
v 6.000000 24.000000 -10.000001
v 5.543400 24.000000 -12.296201
v 4.242600 24.000000 -14.242601
v 5.543400 28.000000 -12.296202
v 2.296200 24.000000 -15.543401
v 2.296200 28.000000 -15.543401
v 0.000000 24.000000 -16.000000
v -2.296200 24.000000 -15.543401
v -2.296200 28.000000 -15.543401
v -4.242600 24.000000 -14.242601
v -5.543400 28.000000 -12.296202
v -5.543400 24.000000 -12.296201
v -6.000000 24.000000 -10.000001
v -5.543400 24.000000 -7.703801
v -4.242600 28.000000 -5.757401
v -5.543400 28.000000 -7.703801
v -4.242600 24.000000 -5.757401
v -2.296200 24.000000 -4.456601
v 0.000000 24.000000 -4.000001
v 2.296200 28.000000 -4.456601
v 2.296200 24.000000 -4.456601
v 4.242600 24.000000 -5.757401
v 5.543400 24.000000 -7.703801
v 4.242600 28.000000 -5.757401
v 0.000000 28.000000 -10.000001
v 4.242600 28.000000 -14.242601
v 0.000000 28.000000 -16.000000
v -4.242600 28.000000 -14.242601
v -6.000000 28.000000 -10.000001
v -2.296200 28.000000 -4.456601
v 0.000000 28.000000 -4.000001
v 5.543400 28.000000 -7.703801
v 6.000000 28.000000 -10.000001
v -6.000000 0.000000 -16.000000
v -6.000000 0.000000 -16.000000
v -6.000000 0.000002 16.000000
v -6.000000 0.000002 16.000000
v -10.000000 0.000002 20.000000
v -10.000000 0.000002 20.000000
v 10.000000 0.000002 20.000000
v 10.000000 0.000002 20.000000
v -10.000000 24.000000 -20.000000
v -10.000000 24.000000 -20.000000
v 10.000000 24.000000 -20.000000
v 10.000000 24.000000 -20.000000
v 10.000000 24.000000 -0.000001
v 10.000000 24.000000 -0.000001
v 10.000000 4.000002 20.000000
v 10.000000 4.000002 20.000000
v -6.000000 20.000000 -0.000001
v -6.000000 20.000000 -0.000001
v -6.000000 4.000002 15.999999
v -6.000000 4.000002 15.999999
v -10.000000 4.000002 20.000000
v -10.000000 4.000002 20.000000
v -10.000000 24.000000 -0.000001
v -10.000000 24.000000 -0.000001
v 1.530800 0.000000 -3.695600
v 2.828400 0.000000 -2.828400
v 4.000000 0.000000 0.000000
v 3.695600 0.000000 1.530800
v 4.000000 20.000000 -0.000001
v -4.242600 28.000000 -5.757401
v -5.543400 28.000000 -7.703801
v 5.543400 28.000000 -7.703801
v 6.000000 28.000000 -10.000001
v 10.000000 0.000000 -20.000000
v 10.000000 0.000000 -20.000000
v -10.000000 0.000000 -20.000000
v -10.000000 0.000000 -20.000000
v 6.000000 0.000000 -16.000000
v 6.000000 0.000000 -16.000000
v 6.000000 0.000002 16.000000
v 6.000000 0.000002 16.000000
v 6.000000 20.000000 -16.000000
v 6.000000 20.000000 -16.000000
v -6.000000 20.000000 -16.000000
v -6.000000 20.000000 -16.000000
v 6.000000 20.000000 -0.000001
v 6.000000 20.000000 -0.000001
v 6.000000 4.000002 15.999999
v 6.000000 4.000002 15.999999
v 3.695600 0.000000 -1.530800
v 0.000000 0.000000 -4.000000
v -1.530800 0.000000 -3.695600
v -2.828400 0.000000 -2.828400
v -3.695600 0.000000 -1.530800
v -4.000000 0.000000 0.000000
v -3.695600 0.000000 1.530800
v -2.828400 0.000000 2.828400
v -1.530800 0.000000 3.695601
v 0.000000 0.000000 4.000000
v 1.530800 0.000000 3.695601
v 2.828400 0.000000 2.828400
v -4.000000 20.000000 -0.000001
v 5.543400 28.000000 -12.296202
v 4.242600 28.000000 -14.242601
v 2.296200 28.000000 -15.543401
v 0.000000 28.000000 -16.000000
v -2.296200 28.000000 -15.543401
v -4.242600 28.000000 -14.242601
v -5.543400 28.000000 -12.296202
v -6.000000 28.000000 -10.000001
v -2.296200 28.000000 -4.456601
v 0.000000 28.000000 -4.000001
v 2.296200 28.000000 -4.456601
v 4.242600 28.000000 -5.757401
vn 0.0000 0.7071 0.7071
vn 0.0000 -1.0000 0.0000
vn 0.0000 1.0000 0.0000
vn 0.0000 0.0000 -1.0000
vn 0.0000 0.0000 1.0000
vn 1.0000 0.0000 0.0000
vn -1.0000 0.0000 0.0000
vn 0.0000 -0.7071 -0.7071
vn 0.9239 0.0000 -0.3827
vn 0.7071 0.0000 -0.7071
vn 0.3827 0.0000 -0.9239
vn -0.3827 0.0000 -0.9239
vn -0.7071 0.0000 -0.7071
vn -0.9239 0.0000 -0.3827
vn -0.9239 0.0000 0.3827
vn -0.7071 0.0000 0.7071
vn -0.3827 0.0000 0.9239
vn 0.3827 0.0000 0.9239
vn 0.7071 0.0000 0.7071
vn 0.9239 0.0000 0.3827
vn 0.4196 0.0000 0.9077
vn 0.7559 0.0000 0.6547
vn 0.9546 0.0000 0.2977
vn 0.9808 0.0000 0.1950
vn -0.4196 0.0000 0.9077
vn -0.7559 0.0000 0.6547
vn -0.9546 0.0000 0.2977
vn -0.9808 0.0000 0.1950
vn 0.9808 0.0000 -0.1950
vn -0.9808 0.0000 -0.1950
s 1
f 125//1 123//1 133//1 131//1
f 144//2 148//2 111//2 146//2
f 146//2 111//2 113//2 115//2
f 115//2 113//2 150//2 117//2
f 117//2 150//2 148//2 144//2
f 152//2 156//2 128//2 154//2
f 124//3 121//3 119//3 134//3
f 147//4 120//4 122//4 145//4
f 149//5 153//5 155//5 112//5
f 158//4 151//4 114//4 130//4
f 118//5 126//5 132//5 116//5
f 11//6 9//6 13//6 5//6
f 9//6 12//6 13//6
f 159//7 10//7 1//7 6//7
f 159//7 157//7 10//7
f 2//6 7//6 129//6 3//6
f 7//6 127//6 129//6
f 19//7 8//7 18//7 4//7
f 19//7 20//7 8//7
f 16//8 15//8 14//8 17//8
f 160//2 137//2 28//2
f 136//2 160//2 28//2
f 135//2 136//2 28//2
f 161//2 135//2 28//2
f 162//2 161//2 28//2
f 163//2 162//2 28//2
f 164//2 163//2 28//2
f 165//2 164//2 28//2
f 166//2 165//2 28//2
f 37//2 166//2 28//2
f 168//2 37//2 28//2
f 169//2 168//2 28//2
f 170//2 169//2 28//2
f 171//2 170//2 28//2
f 138//2 171//2 28//2
f 137//2 138//2 28//2
f 30//6 21//9 58//9 45//6
f 21//9 23//10 33//10 58//9
f 23//10 22//11 32//11 33//10
f 22//11 34//4 63//4 32//11
f 34//4 24//12 67//12 63//4
f 24//12 25//13 66//13 67//12
f 25//13 35//14 68//14 66//13
f 35//14 26//7 36//7 68//14
f 26//7 27//15 39//15 36//7
f 27//15 167//16 38//16 39//15
f 167//16 40//17 75//17 38//16
f 40//17 42//5 41//5 75//17
f 42//5 44//18 43//18 41//5
f 44//18 29//19 72//19 43//18
f 29//19 31//20 46//20 72//19
f 31//20 30//6 45//6 46//20
f 74//5 73//18 47//21
f 73//18 71//19 48//22 47//21
f 71//19 49//20 51//23 48//22
f 49//20 50//24 60//24 51//23
f 52//25 53//17 74//5
f 52//25 54//26 76//16 53//17
f 54//26 55//27 77//15 76//16
f 55//27 172//28 57//28 77//15
f 58//9 59//9 139//29 45//6
f 33//10 62//10 59//9 58//9
f 32//11 61//11 62//10 33//10
f 63//4 65//4 61//11 32//11
f 67//12 64//12 65//4 63//4
f 66//13 69//13 64//12 67//12
f 68//14 70//14 69//13 66//13
f 36//7 56//30 70//14 68//14
f 45//6 50//24 49//20 46//20
f 46//20 49//20 71//19 72//19
f 72//19 71//19 73//18 43//18
f 43//18 73//18 74//5 41//5
f 41//5 74//5 53//17 75//17
f 75//17 53//17 76//16 38//16
f 38//16 76//16 77//15 39//15
f 39//15 77//15 57//28 36//7
f 78//6 79//9 173//9 143//6
f 79//9 80//10 174//10 173//9
f 80//10 82//11 175//11 174//10
f 82//11 84//4 176//4 175//11
f 84//4 85//12 177//12 176//4
f 85//12 87//13 178//13 177//12
f 87//13 89//14 179//14 178//13
f 89//14 90//7 180//7 179//14
f 90//7 91//15 141//15 180//7
f 91//15 94//16 140//16 141//15
f 94//16 95//17 181//17 140//16
f 95//17 96//5 182//5 181//17
f 96//5 98//18 183//18 182//5
f 98//18 99//19 184//19 183//18
f 99//19 100//20 142//20 184//19
f 100//20 78//6 143//6 142//20
f 102//3 110//3 81//3
f 102//3 81//3 103//3
f 102//3 103//3 83//3
f 102//3 83//3 104//3
f 102//3 104//3 86//3
f 102//3 86//3 105//3
f 102//3 105//3 88//3
f 102//3 88//3 106//3
f 102//3 106//3 93//3
f 102//3 93//3 92//3
f 102//3 92//3 107//3
f 102//3 107//3 108//3
f 102//3 108//3 97//3
f 102//3 97//3 101//3
f 102//3 101//3 109//3
f 102//3 109//3 110//3
