# Blender v2.82 (sub 7) OBJ File: ''
# www.blender.org
o 00000_3062b.dat_Mesh_3062b.dat_4
v 9.239000 5.000000 -3.827000
v 7.071000 5.000000 -7.070999
v 7.071000 24.000000 -7.071000
v 3.827000 5.000000 -9.239000
v 3.827000 24.000000 -9.239000
v -3.827000 5.000000 -9.239000
v -3.827000 24.000000 -9.239000
v -7.071000 5.000000 -7.070999
v -9.239000 5.000000 -3.827000
v -9.239000 24.000000 -3.827000
v -7.071000 24.000000 -7.071000
v -10.000000 24.000000 -0.000000
v -9.239000 5.000000 3.827000
v -3.827000 24.000000 9.239000
v 0.000000 5.000000 10.000000
v 3.827000 5.000000 9.239000
v 3.827000 24.000000 9.239000
v 7.071000 5.000000 7.071000
v 9.239000 5.000000 3.827000
v 10.000000 24.000000 -0.000000
v 9.239000 24.000000 3.826999
v 4.000000 24.000000 -0.000000
v 2.828400 24.000000 -2.828400
v 0.000000 24.000000 -4.000000
v 1.530800 20.000000 -3.695600
v -1.530800 20.000000 -3.695600
v -2.828400 20.000000 -2.828400
v -2.828400 24.000000 -2.828400
v -3.695600 20.000000 -1.530800
v -3.695600 24.000000 1.530800
v -2.828400 20.000000 2.828400
v -3.695600 20.000000 1.530800
v -2.828400 24.000000 2.828399
v 1.530800 20.000000 3.695600
v 0.000000 20.000000 4.000000
v 2.828400 20.000000 2.828400
v 3.695600 20.000000 1.530800
v 3.695600 24.000000 1.530800
v 5.543400 20.000000 -2.296200
v 5.543400 4.000000 -2.296200
v 2.296200 20.000000 -5.543400
v 2.296200 4.000000 -5.543399
v -4.242600 4.000000 -4.242599
v -5.543400 4.000000 -2.296200
v -6.000000 20.000000 -0.000000
v -5.543400 20.000000 2.296200
v -4.242600 20.000000 4.242599
v -2.296200 4.000000 5.543400
v -4.242600 4.000000 4.242600
v 2.296200 4.000000 5.543400
v 4.242600 20.000000 4.242599
v 5.543400 20.000000 2.296200
v 4.242600 4.000000 4.242600
v 5.543400 4.000000 2.296201
v 3.695600 28.000000 -1.530801
v 3.695600 24.000000 -1.530800
v 1.530800 24.000000 -3.695601
v -1.530800 24.000000 -3.695601
v -3.695600 24.000000 -1.530800
v -4.000000 24.000000 -0.000000
v -1.530800 24.000000 3.695600
v -1.530800 28.000000 3.695599
v 0.000000 28.000000 3.999999
v 1.530800 24.000000 3.695600
v 0.000000 24.000000 4.000000
v 2.828400 24.000000 2.828399
v 3.695600 28.000000 1.530799
v 4.000000 28.000000 -0.000001
v 5.543400 24.000000 -2.296201
v 4.242600 24.000000 -4.242600
v 5.543400 28.000000 -2.296201
v 2.296200 28.000000 -5.543400
v 2.296200 24.000000 -5.543400
v 0.000000 28.000000 -6.000000
v 0.000000 24.000000 -6.000000
v -2.296200 28.000000 -5.543400
v -2.296200 24.000000 -5.543400
v -4.242600 24.000000 -4.242600
v -5.543400 24.000000 -2.296201
v -6.000000 24.000000 -0.000000
v -5.543400 24.000000 2.296200
v -4.242600 24.000000 4.242599
v -2.296200 24.000000 5.543399
v 0.000000 28.000000 6.000000
v -2.296200 28.000000 5.543399
v 0.000000 24.000000 6.000000
v 2.296200 24.000000 5.543399
v 4.242600 28.000000 4.242599
v 5.543400 24.000000 2.296200
v 5.543400 28.000000 2.296199
v 6.000000 24.000000 -0.000000
v 6.000000 28.000000 -0.000001
v -2.828400 28.000000 -2.828401
v -1.530800 28.000000 -3.695601
v -5.543400 28.000000 -2.296201
v -3.695600 28.000000 -1.530801
v -4.242600 28.000000 -4.242600
v -4.000000 28.000000 -0.000001
v -6.000000 28.000000 -0.000001
v -3.695600 28.000000 1.530799
v -5.543400 28.000000 2.296199
v -2.828400 28.000000 2.828399
v -4.242600 28.000000 4.242599
v 2.296200 28.000000 5.543399
v 2.828400 28.000000 2.828399
v 1.530800 28.000000 3.695599
v 2.828400 28.000000 -2.828401
v 4.242600 28.000000 -4.242600
v 0.000000 28.000000 -4.000000
v 1.530800 28.000000 -3.695601
v -3.061600 24.000000 -7.391201
v -7.391200 24.000000 -3.061600
v -7.391200 24.000000 3.061599
v -3.061600 24.000000 7.391200
v 4.242600 24.000000 4.242599
v 3.061600 24.000000 7.391200
v 7.391200 24.000000 -3.061600
v 8.000000 24.000000 -0.000000
v 3.061600 24.000000 -7.391201
v 5.656800 24.000000 -5.656800
v 0.000000 20.000000 -4.000000
v -2.296200 20.000000 -5.543400
v -4.242600 20.000000 -4.242600
v -5.543400 20.000000 -2.296200
v -4.000000 20.000000 -0.000000
v -1.530800 20.000000 3.695600
v -2.296200 20.000000 5.543399
v 0.000000 20.000000 6.000000
v 2.296200 20.000000 5.543399
v 6.000000 20.000000 -0.000000
v 4.000000 20.000000 -0.000000
v 3.695600 20.000000 -1.530800
v 2.828400 20.000000 -2.828400
v 4.242600 20.000000 -4.242600
v 0.000000 20.000000 -6.000000
v 0.000000 24.000000 -8.000000
v -5.656800 24.000000 -5.656800
v -8.000000 24.000000 -0.000000
v -7.071000 24.000000 7.071000
v -9.239000 24.000000 3.826999
v -5.656800 24.000000 5.656799
v 0.000000 24.000000 10.000000
v 0.000000 24.000000 8.000000
v 7.071000 24.000000 7.071000
v 5.656800 24.000000 5.656799
v 7.391200 24.000000 3.061599
v 9.239000 24.000000 -3.827000
v 0.000000 24.000000 -10.000000
v 0.000000 5.000000 -10.000000
v 0.000000 5.000000 -8.000000
v -10.000000 5.000000 0.000000
v -7.071000 5.000000 7.071001
v -5.656800 5.000000 5.656800
v -3.827000 5.000000 9.239000
v 7.391200 5.000000 3.061600
v 10.000000 5.000000 0.000000
v 5.656800 5.000000 -5.656799
v 7.391200 4.000000 -3.061599
v 8.000000 5.000000 0.000000
v 7.391200 5.000000 -3.061600
v 3.061600 4.000000 -7.391200
v 3.061600 5.000000 -7.391200
v 0.000000 4.000000 -8.000000
v -3.061600 5.000000 -7.391200
v -5.656800 5.000000 -5.656799
v -7.391200 5.000000 -3.061600
v -7.391200 4.000000 3.061600
v -8.000000 5.000000 0.000000
v -7.391200 5.000000 3.061600
v -3.061600 5.000000 7.391201
v 0.000000 4.000000 8.000000
v 0.000000 5.000000 8.000000
v 3.061600 5.000000 7.391201
v 5.656800 5.000000 5.656800
v 5.543400 0.000000 2.296201
v 4.242600 0.000000 4.242600
v 2.296200 0.000000 5.543400
v 0.000000 0.000000 6.000000
v 0.000000 4.000000 6.000000
v -6.000000 0.000000 0.000001
v -6.000000 4.000000 0.000000
v -5.543400 4.000000 2.296201
v -5.543400 0.000000 -2.296200
v -2.296200 4.000000 -5.543399
v 2.296200 0.000000 -5.543399
v 0.000000 4.000000 -6.000000
v 4.242600 4.000000 -4.242599
v 5.543400 0.000000 -2.296200
v 6.000000 0.000000 0.000001
v 6.000000 4.000000 0.000000
v 8.000000 4.000000 0.000000
v 7.391200 4.000000 3.061600
v 7.391200 0.000000 3.061600
v 5.656800 4.000000 5.656800
v 3.061600 0.000000 7.391201
v 5.656800 0.000000 5.656800
v 3.061600 4.000000 7.391201
v 0.000000 0.000000 8.000000
v -3.061600 4.000000 7.391201
v -5.656800 4.000000 5.656800
v -7.391200 0.000000 3.061600
v -8.000000 4.000000 0.000000
v -8.000000 0.000000 0.000001
v -7.391200 4.000000 -3.061599
v -5.656800 4.000000 -5.656799
v -7.391200 0.000000 -3.061599
v -5.656800 0.000000 -5.656799
v -3.061600 4.000000 -7.391200
v 5.656800 4.000000 -5.656799
v 5.656800 0.000000 -5.656799
v 8.000000 0.000000 0.000001
v -3.061600 0.000000 7.391201
v -2.296200 0.000000 5.543400
v -5.656800 0.000000 5.656800
v -5.543400 0.000000 2.296201
v -4.242600 0.000000 4.242600
v -4.242600 0.000000 -4.242599
v -2.296200 0.000000 -5.543399
v -3.061600 0.000000 -7.391200
v 0.000000 0.000000 -6.000000
v 0.000000 0.000000 -8.000000
v 4.242600 0.000000 -4.242599
v 3.061600 0.000000 -7.391200
v 7.391200 0.000000 -3.061599
v -7.071000 5.000000 -7.070999
v -9.239000 5.000000 -3.827000
v -9.239000 24.000000 -3.827000
v -7.071000 24.000000 -7.071000
v 0.000000 5.000000 10.000000
v 3.827000 5.000000 9.239000
v 7.071000 5.000000 7.071000
v 9.239000 5.000000 3.827000
v 10.000000 24.000000 -0.000000
v 9.239000 24.000000 3.826999
v -2.828400 20.000000 2.828400
v -3.695600 20.000000 1.530800
v 1.530800 20.000000 3.695600
v 0.000000 20.000000 4.000000
v 4.242600 20.000000 4.242599
v 5.543400 20.000000 2.296200
v -1.530800 28.000000 3.695599
v 0.000000 28.000000 3.999999
v 5.543400 24.000000 -2.296201
v 4.242600 24.000000 -4.242600
v -2.296200 24.000000 -5.543400
v -4.242600 24.000000 -4.242600
v -6.000000 24.000000 -0.000000
v -5.543400 24.000000 2.296200
v 0.000000 28.000000 6.000000
v -2.296200 28.000000 5.543399
v 0.000000 24.000000 6.000000
v 2.296200 24.000000 5.543399
v -2.828400 28.000000 -2.828401
v -1.530800 28.000000 -3.695601
v -5.543400 28.000000 -2.296201
v -4.242600 28.000000 -4.242600
v 2.828400 28.000000 2.828399
v 1.530800 28.000000 3.695599
v 0.000000 28.000000 -4.000000
v 1.530800 28.000000 -3.695601
v 3.695600 20.000000 -1.530800
v 2.828400 20.000000 -2.828400
v -7.071000 24.000000 7.071000
v -9.239000 24.000000 3.826999
v 4.242600 0.000000 4.242600
v 2.296200 0.000000 5.543400
v 5.543400 0.000000 -2.296200
v 6.000000 0.000000 0.000001
v 3.061600 0.000000 7.391201
v 5.656800 0.000000 5.656800
v -5.543400 0.000000 2.296201
v -4.242600 0.000000 4.242600
v 10.000000 5.000000 0.000000
v 9.239000 5.000000 -3.827000
v 9.239000 24.000000 -3.827000
v 7.071000 5.000000 -7.070999
v 7.071000 24.000000 -7.071000
v 3.827000 5.000000 -9.239000
v 3.827000 24.000000 -9.239000
v 0.000000 5.000000 -10.000000
v 0.000000 24.000000 -10.000000
v -3.827000 5.000000 -9.239000
v -3.827000 24.000000 -9.239000
v -10.000000 5.000000 0.000000
v -10.000000 24.000000 -0.000000
v -9.239000 5.000000 3.827000
v -7.071000 5.000000 7.071001
v -3.827000 5.000000 9.239000
v -3.827000 24.000000 9.239000
v 0.000000 24.000000 10.000000
v 3.827000 24.000000 9.239000
v 7.071000 24.000000 7.071000
v 4.000000 20.000000 -0.000000
v 1.530800 20.000000 -3.695600
v 0.000000 20.000000 -4.000000
v -1.530800 20.000000 -3.695600
v -2.828400 20.000000 -2.828400
v -3.695600 20.000000 -1.530800
v -4.000000 20.000000 -0.000000
v -1.530800 20.000000 3.695600
v 2.828400 20.000000 2.828400
v 3.695600 20.000000 1.530800
v 6.000000 20.000000 -0.000000
v 5.543400 20.000000 -2.296200
v 4.242600 20.000000 -4.242600
v 2.296200 20.000000 -5.543400
v 0.000000 20.000000 -6.000000
v -2.296200 20.000000 -5.543400
v -4.242600 20.000000 -4.242600
v -5.543400 20.000000 -2.296200
v -6.000000 20.000000 -0.000000
v -5.543400 20.000000 2.296200
v -4.242600 20.000000 4.242599
v -2.296200 20.000000 5.543399
v 0.000000 20.000000 6.000000
v 2.296200 20.000000 5.543399
v 4.000000 28.000000 -0.000001
v 3.695600 28.000000 -1.530801
v 2.828400 28.000000 -2.828401
v -3.695600 28.000000 -1.530801
v -4.000000 28.000000 -0.000001
v -3.695600 28.000000 1.530799
v -2.828400 28.000000 2.828399
v 3.695600 28.000000 1.530799
v 6.000000 24.000000 -0.000000
v 5.543400 28.000000 -2.296201
v 6.000000 28.000000 -0.000001
v 4.242600 28.000000 -4.242600
v 2.296200 24.000000 -5.543400
v 2.296200 28.000000 -5.543400
v 0.000000 24.000000 -6.000000
v 0.000000 28.000000 -6.000000
v -2.296200 28.000000 -5.543400
v -5.543400 24.000000 -2.296201
v -6.000000 28.000000 -0.000001
v -5.543400 28.000000 2.296199
v -4.242600 24.000000 4.242599
v -4.242600 28.000000 4.242599
v -2.296200 24.000000 5.543399
v 2.296200 28.000000 5.543399
v 4.242600 24.000000 4.242599
v 4.242600 28.000000 4.242599
v 5.543400 24.000000 2.296200
v 5.543400 28.000000 2.296199
v 0.000000 5.000000 -8.000000
v -3.061600 5.000000 -7.391200
v -5.656800 5.000000 -5.656799
v -7.391200 5.000000 -3.061600
v -8.000000 5.000000 0.000000
v -7.391200 5.000000 3.061600
v -5.656800 5.000000 5.656800
v -3.061600 5.000000 7.391201
v 0.000000 5.000000 8.000000
v 3.061600 5.000000 7.391201
v 5.656800 5.000000 5.656800
v 7.391200 5.000000 3.061600
v 8.000000 5.000000 0.000000
v 7.391200 5.000000 -3.061600
v 5.656800 5.000000 -5.656799
v 3.061600 5.000000 -7.391200
v 5.543400 0.000000 2.296201
v 0.000000 0.000000 6.000000
v -2.296200 0.000000 5.543400
v -6.000000 0.000000 0.000001
v -5.543400 0.000000 -2.296200
v -4.242600 0.000000 -4.242599
v -2.296200 0.000000 -5.543399
v 0.000000 0.000000 -6.000000
v 2.296200 0.000000 -5.543399
v 4.242600 0.000000 -4.242599
v 7.391200 0.000000 3.061600
v 8.000000 0.000000 0.000001
v 0.000000 0.000000 8.000000
v -3.061600 0.000000 7.391201
v -5.656800 0.000000 5.656800
v -7.391200 0.000000 3.061600
v -8.000000 0.000000 0.000001
v -7.391200 0.000000 -3.061599
v -5.656800 0.000000 -5.656799
v -3.061600 0.000000 -7.391200
v 0.000000 0.000000 -8.000000
v 3.061600 0.000000 -7.391200
v 5.656800 0.000000 -5.656799
v 7.391200 0.000000 -3.061599
vn 1.0000 0.0000 0.0000
vn 0.9239 0.0000 -0.3827
vn 0.7071 0.0000 -0.7071
vn 0.3827 0.0000 -0.9239
vn 0.0000 0.0000 -1.0000
vn -0.3827 0.0000 -0.9239
vn -0.7071 0.0000 -0.7071
vn -0.9239 0.0000 -0.3827
vn -1.0000 0.0000 0.0000
vn -0.9239 0.0000 0.3827
vn -0.7071 0.0000 0.7071
vn -0.3827 0.0000 0.9239
vn 0.0000 0.0000 1.0000
vn 0.3827 0.0000 0.9239
vn 0.7071 0.0000 0.7071
vn 0.9239 0.0000 0.3827
vn 0.0000 1.0000 0.0000
vn 0.0000 -1.0000 0.0000
s 1
f 273//1 274//2 275//2 233//1
f 274//2 276//3 277//3 275//2
f 276//3 278//4 279//4 277//3
f 278//4 149//5 281//5 279//4
f 149//5 282//6 283//6 281//5
f 282//6 225//7 228//7 283//6
f 225//7 226//8 227//8 228//7
f 226//8 284//9 285//9 227//8
f 284//9 286//10 264//10 285//9
f 286//10 287//11 263//11 264//10
f 287//11 288//12 289//12 263//11
f 288//12 229//13 142//13 289//12
f 229//13 230//14 291//14 142//13
f 230//14 231//15 144//15 291//14
f 231//15 232//16 234//16 144//15
f 232//16 273//1 233//1 234//16
f 22//9 56//10 261//10 131//9
f 56//10 23//11 262//11 261//10
f 23//11 57//12 294//12 262//11
f 57//12 24//13 295//13 294//12
f 24//13 58//14 296//14 295//13
f 58//14 28//15 297//15 296//14
f 28//15 59//16 298//16 297//15
f 59//16 60//1 299//1 298//16
f 60//1 30//2 236//2 299//1
f 30//2 33//3 235//3 236//2
f 33//3 61//4 300//4 235//3
f 61//4 65//5 238//5 300//4
f 65//5 64//6 237//6 238//5
f 64//6 66//7 301//7 237//6
f 66//7 38//8 302//8 301//7
f 38//8 22//9 131//9 302//8
f 130//9 304//10 40//10 190//9
f 304//10 305//11 187//11 40//10
f 305//11 306//12 42//12 187//11
f 306//12 307//13 186//13 42//12
f 307//13 308//14 184//14 186//13
f 308//14 309//15 43//15 184//14
f 309//15 310//16 44//16 43//15
f 310//16 311//1 181//1 44//16
f 311//1 312//2 182//2 181//1
f 312//2 313//3 49//3 182//2
f 313//3 314//4 48//4 49//3
f 314//4 315//5 179//5 48//4
f 315//5 316//6 50//6 179//5
f 316//6 239//7 53//7 50//6
f 239//7 240//8 54//8 53//7
f 240//8 130//9 190//9 54//8
f 317//9 318//10 56//10 22//9
f 318//10 319//11 23//11 56//10
f 319//11 260//12 57//12 23//11
f 260//12 259//13 24//13 57//12
f 259//13 254//14 58//14 24//13
f 254//14 253//15 28//15 58//14
f 253//15 96//16 59//16 28//15
f 96//16 98//1 60//1 59//16
f 98//1 100//2 30//2 60//1
f 100//2 102//3 33//3 30//2
f 102//3 241//4 61//4 33//3
f 241//4 242//5 65//5 61//4
f 242//5 258//6 64//6 65//5
f 258//6 257//7 66//7 64//6
f 257//7 324//8 38//8 66//7
f 324//8 317//9 22//9 38//8
f 325//1 243//2 326//2 327//1
f 243//2 244//3 328//3 326//2
f 244//3 329//4 330//4 328//3
f 329//4 331//5 332//5 330//4
f 331//5 245//6 333//6 332//5
f 245//6 246//7 256//7 333//6
f 246//7 334//8 255//8 256//7
f 334//8 247//9 99//9 255//8
f 247//9 248//10 101//10 99//9
f 248//10 337//11 103//11 101//10
f 337//11 339//12 250//12 103//11
f 339//12 251//13 249//13 250//12
f 251//13 252//14 340//14 249//13
f 252//14 341//15 342//15 340//14
f 341//15 343//16 344//16 342//15
f 343//16 325//1 327//1 344//16
f 76//17 94//17 109//17 74//17
f 97//17 93//17 94//17 76//17
f 95//17 320//17 93//17 97//17
f 335//17 321//17 320//17 95//17
f 336//17 322//17 321//17 335//17
f 338//17 323//17 322//17 336//17
f 85//17 62//17 323//17 338//17
f 84//17 63//17 62//17 85//17
f 104//17 106//17 63//17 84//17
f 88//17 105//17 106//17 104//17
f 90//17 67//17 105//17 88//17
f 92//17 68//17 67//17 90//17
f 71//17 55//17 68//17 92//17
f 108//17 107//17 55//17 71//17
f 72//17 110//17 107//17 108//17
f 74//17 109//17 110//17 72//17
f 111//17 77//17 75//17 136//17
f 137//17 78//17 77//17 111//17
f 112//17 79//17 78//17 137//17
f 138//17 80//17 79//17 112//17
f 113//17 81//17 80//17 138//17
f 141//17 82//17 81//17 113//17
f 114//17 83//17 82//17 141//17
f 143//17 86//17 83//17 114//17
f 116//17 87//17 86//17 143//17
f 145//17 115//17 87//17 116//17
f 146//17 89//17 115//17 145//17
f 118//17 91//17 89//17 146//17
f 117//17 69//17 91//17 118//17
f 120//17 70//17 69//17 117//17
f 119//17 73//17 70//17 120//17
f 136//17 75//17 73//17 119//17
f 135//18 121//18 26//18 122//18
f 122//18 26//18 27//18 123//18
f 123//18 27//18 29//18 124//18
f 124//18 29//18 125//18 45//18
f 45//18 125//18 32//18 46//18
f 46//18 32//18 31//18 47//18
f 47//18 31//18 126//18 127//18
f 127//18 126//18 35//18 128//18
f 128//18 35//18 34//18 129//18
f 129//18 34//18 36//18 51//18
f 51//18 36//18 37//18 52//18
f 52//18 37//18 293//18 303//18
f 303//18 293//18 132//18 39//18
f 39//18 132//18 133//18 134//18
f 134//18 133//18 25//18 41//18
f 41//18 25//18 121//18 135//18
f 7//17 111//17 136//17 148//17
f 11//17 137//17 111//17 7//17
f 10//17 112//17 137//17 11//17
f 12//17 138//17 112//17 10//17
f 140//17 113//17 138//17 12//17
f 139//17 141//17 113//17 140//17
f 14//17 114//17 141//17 139//17
f 290//17 143//17 114//17 14//17
f 17//17 116//17 143//17 290//17
f 292//17 145//17 116//17 17//17
f 21//17 146//17 145//17 292//17
f 20//17 118//17 146//17 21//17
f 147//17 117//17 118//17 20//17
f 3//17 120//17 117//17 147//17
f 5//17 119//17 120//17 3//17
f 148//17 136//17 119//17 5//17
f 280//18 345//18 346//18 6//18
f 6//18 346//18 347//18 8//18
f 8//18 347//18 348//18 9//18
f 9//18 348//18 349//18 151//18
f 151//18 349//18 350//18 13//18
f 13//18 350//18 351//18 152//18
f 152//18 351//18 352//18 154//18
f 154//18 352//18 172//18 15//18
f 15//18 172//18 354//18 16//18
f 16//18 354//18 355//18 18//18
f 18//18 355//18 356//18 19//18
f 19//18 356//18 357//18 156//18
f 156//18 357//18 358//18 1//18
f 1//18 358//18 359//18 2//18
f 2//18 359//18 162//18 4//18
f 4//18 162//18 345//18 280//18
f 191//1 158//2 160//2 159//1
f 158//2 209//3 157//3 160//2
f 209//3 161//4 360//4 157//3
f 161//4 163//5 150//5 360//4
f 163//5 208//6 164//6 150//5
f 208//6 205//7 165//7 164//6
f 205//7 204//8 166//8 165//7
f 204//8 202//9 168//9 166//8
f 202//9 167//10 169//10 168//9
f 167//10 200//11 153//11 169//10
f 200//11 199//12 170//12 153//11
f 199//12 171//13 353//13 170//12
f 171//13 197//14 173//14 353//13
f 197//14 194//15 174//15 173//14
f 194//15 192//16 155//16 174//15
f 192//16 191//1 159//1 155//16
f 268//9 361//8 54//8 190//9
f 361//8 265//7 53//7 54//8
f 265//7 266//6 50//6 53//7
f 266//6 362//5 179//5 50//6
f 362//5 213//4 48//4 179//5
f 213//4 272//3 49//3 48//4
f 272//3 271//2 182//2 49//3
f 271//2 364//1 181//1 182//2
f 364//1 365//16 44//16 181//1
f 365//16 366//15 43//15 44//16
f 366//15 218//14 184//14 43//15
f 218//14 220//13 186//13 184//14
f 220//13 369//12 42//12 186//13
f 369//12 370//11 187//11 42//12
f 370//11 267//10 40//10 187//11
f 267//10 268//9 190//9 40//10
f 191//1 192//16 371//16 372//1
f 192//16 194//15 270//15 371//16
f 194//15 197//14 269//14 270//15
f 197//14 171//13 373//13 269//14
f 171//13 199//12 212//12 373//13
f 199//12 200//11 375//11 212//12
f 200//11 167//10 376//10 375//11
f 167//10 202//9 377//9 376//10
f 202//9 204//8 378//8 377//9
f 204//8 205//7 379//7 378//8
f 205//7 208//6 219//6 379//7
f 208//6 163//5 221//5 219//6
f 163//5 161//4 382//4 221//5
f 161//4 209//3 383//3 382//4
f 209//3 158//2 384//2 383//3
f 158//2 191//1 372//1 384//2
f 374//18 363//18 178//18 198//18
f 214//18 216//18 363//18 374//18
f 201//18 215//18 216//18 214//18
f 203//18 180//18 215//18 201//18
f 206//18 183//18 180//18 203//18
f 207//18 217//18 183//18 206//18
f 380//18 367//18 217//18 207//18
f 381//18 368//18 367//18 380//18
f 223//18 185//18 368//18 381//18
f 210//18 222//18 185//18 223//18
f 224//18 188//18 222//18 210//18
f 211//18 189//18 188//18 224//18
f 193//18 175//18 189//18 211//18
f 196//18 176//18 175//18 193//18
f 195//18 177//18 176//18 196//18
f 198//18 178//18 177//18 195//18
