# Blender v2.82 (sub 7) OBJ File: ''
# www.blender.org
o 00000_3069b.dat_Mesh_3069b.dat_4
v 20.000000 8.000000 10.000000
v 19.000000 0.000000 9.000000
v 19.000000 0.000000 -9.000000
v -19.000000 0.000000 9.000000
v 16.000000 0.000000 6.000000
v -19.000000 1.000000 9.000000
v -20.000000 1.000000 10.000000
v 19.000000 1.000000 -9.000000
v 19.000000 1.000000 9.000000
v 20.000000 1.000000 10.000000
v -20.000000 8.000000 -10.000000
v 20.000000 8.000000 -10.000000
v -20.000000 8.000000 10.000000
v -20.000000 1.000000 -10.000000
v 20.000000 1.000000 -10.000000
v -19.000000 1.000000 -9.000000
v -19.000000 0.000000 -9.000000
v 16.000000 4.000000 6.000000
v -16.000000 4.000000 -6.000000
v -16.000000 0.000000 6.000000
v -16.000000 0.000000 -6.000000
v -16.000000 4.000000 6.000000
v 16.000000 4.000000 -6.000000
v 16.000000 0.000000 -6.000000
v 19.000000 0.000000 9.000000
v 19.000000 0.000000 9.000000
v 19.000000 0.000000 -9.000000
v 19.000000 0.000000 -9.000000
v -20.000000 8.000000 -10.000000
v -20.000000 8.000000 -10.000000
v 20.000000 8.000000 -10.000000
v 20.000000 8.000000 -10.000000
v -16.000000 0.000000 6.000000
v -16.000000 0.000000 6.000000
v -16.000000 0.000000 -6.000000
v -16.000000 0.000000 -6.000000
v 16.000000 4.000000 -6.000000
v 16.000000 4.000000 -6.000000
v 16.000000 0.000000 -6.000000
v 16.000000 0.000000 -6.000000
v 20.000000 8.000000 10.000000
v 20.000000 8.000000 10.000000
v -20.000000 8.000000 10.000000
v -20.000000 8.000000 10.000000
v -19.000000 0.000000 -9.000000
v -19.000000 0.000000 -9.000000
v -19.000000 0.000000 9.000000
v -19.000000 0.000000 9.000000
v 16.000000 0.000000 6.000000
v 16.000000 0.000000 6.000000
v -20.000000 1.000000 -10.000000
v -20.000000 1.000000 -10.000000
v -20.000000 1.000000 10.000000
v -20.000000 1.000000 10.000000
v -19.000000 1.000000 -9.000000
v -19.000000 1.000000 -9.000000
v -19.000000 1.000000 9.000000
v -19.000000 1.000000 9.000000
v 20.000000 1.000000 10.000000
v 20.000000 1.000000 10.000000
v 20.000000 1.000000 -10.000000
v 20.000000 1.000000 -10.000000
v 19.000000 1.000000 9.000000
v 19.000000 1.000000 9.000000
v 19.000000 1.000000 -9.000000
v 19.000000 1.000000 -9.000000
v -16.000000 4.000000 -6.000000
v -16.000000 4.000000 -6.000000
v -16.000000 4.000000 6.000000
v -16.000000 4.000000 6.000000
v 16.000000 4.000000 6.000000
v 16.000000 4.000000 6.000000
vn 0.0000 1.0000 0.0000
vn 0.0000 -1.0000 0.0000
vn 0.0000 0.0000 -1.0000
vn -1.0000 0.0000 0.0000
vn 0.0000 0.0000 1.0000
vn 1.0000 0.0000 0.0000
s 1
f 41//1 31//1 29//1 43//1
f 45//2 35//2 33//2 47//2
f 25//2 49//2 40//2 27//2
f 27//2 40//2 35//2 45//2
f 47//2 33//2 49//2 25//2
f 51//2 55//2 57//2 53//2
f 59//2 63//2 65//2 61//2
f 61//2 65//2 55//2 51//2
f 53//2 57//2 63//2 59//2
f 52//3 30//3 32//3 62//3
f 54//4 44//4 11//4 14//4
f 60//5 42//5 13//5 7//5
f 15//6 12//6 1//6 10//6
f 46//3 56//3 66//3 28//3
f 48//4 58//4 16//4 17//4
f 26//5 64//5 6//5 4//5
f 3//6 8//6 9//6 2//6
f 67//2 38//2 71//2 69//2
f 68//5 36//5 39//5 37//5
f 70//6 34//6 21//6 19//6
f 72//3 50//3 20//3 22//3
f 23//4 24//4 5//4 18//4
