# Blender v2.82 (sub 7) OBJ File: ''
# www.blender.org
o 00000_3070b.dat_Mesh_3070b.dat_4
v 10.000000 8.000000 -10.000000
v 9.000000 0.000000 -9.000000
v -6.000000 0.000000 6.000000
v 6.000000 0.000000 -6.000000
v -10.000000 1.000000 -10.000000
v 10.000000 1.000000 10.000000
v -10.000000 8.000000 10.000000
v -10.000000 8.000000 -10.000000
v 10.000000 8.000000 10.000000
v -10.000000 1.000000 10.000000
v 10.000000 1.000000 -10.000000
v -6.000000 4.000000 -6.000000
v 6.000000 4.000000 -6.000000
v -6.000000 4.000000 6.000000
v -6.000000 0.000000 -6.000000
v 6.000000 4.000000 6.000000
v 6.000000 0.000000 6.000000
v -9.000000 1.000000 -9.000000
v -9.000000 0.000000 9.000000
v -9.000000 1.000000 9.000000
v -9.000000 0.000000 -9.000000
v 9.000000 1.000000 9.000000
v 9.000000 1.000000 -9.000000
v 9.000000 0.000000 9.000000
v -10.000000 8.000000 10.000000
v -10.000000 8.000000 10.000000
v -10.000000 8.000000 -10.000000
v -10.000000 8.000000 -10.000000
v -6.000000 4.000000 -6.000000
v -6.000000 4.000000 -6.000000
v -6.000000 4.000000 6.000000
v -6.000000 4.000000 6.000000
v 6.000000 4.000000 -6.000000
v 6.000000 4.000000 -6.000000
v -9.000000 0.000000 9.000000
v -9.000000 0.000000 9.000000
v -9.000000 0.000000 -9.000000
v -9.000000 0.000000 -9.000000
v -9.000000 1.000000 9.000000
v -9.000000 1.000000 9.000000
v 10.000000 8.000000 -10.000000
v 10.000000 8.000000 -10.000000
v 10.000000 8.000000 10.000000
v 10.000000 8.000000 10.000000
v 9.000000 0.000000 -9.000000
v 9.000000 0.000000 -9.000000
v 6.000000 0.000000 -6.000000
v 6.000000 0.000000 -6.000000
v -6.000000 0.000000 -6.000000
v -6.000000 0.000000 -6.000000
v -6.000000 0.000000 6.000000
v -6.000000 0.000000 6.000000
v 9.000000 0.000000 9.000000
v 9.000000 0.000000 9.000000
v 6.000000 0.000000 6.000000
v 6.000000 0.000000 6.000000
v 10.000000 1.000000 -10.000000
v 10.000000 1.000000 -10.000000
v -10.000000 1.000000 -10.000000
v -10.000000 1.000000 -10.000000
v 9.000000 1.000000 -9.000000
v 9.000000 1.000000 -9.000000
v -9.000000 1.000000 -9.000000
v -9.000000 1.000000 -9.000000
v -10.000000 1.000000 10.000000
v -10.000000 1.000000 10.000000
v 10.000000 1.000000 10.000000
v 10.000000 1.000000 10.000000
v 9.000000 1.000000 9.000000
v 9.000000 1.000000 9.000000
v 6.000000 4.000000 6.000000
v 6.000000 4.000000 6.000000
vn 0.0000 1.0000 0.0000
vn 0.0000 -1.0000 0.0000
vn 0.0000 0.0000 -1.0000
vn -1.0000 0.0000 0.0000
vn 0.0000 0.0000 1.0000
vn 1.0000 0.0000 0.0000
s 1
f 27//1 25//1 43//1 41//1
f 45//2 47//2 49//2 37//2
f 37//2 49//2 51//2 35//2
f 35//2 51//2 55//2 53//2
f 53//2 55//2 47//2 45//2
f 57//2 61//2 63//2 59//2
f 59//2 63//2 40//2 65//2
f 65//2 40//2 69//2 67//2
f 67//2 69//2 61//2 57//2
f 60//3 28//3 42//3 58//3
f 66//4 26//4 8//4 5//4
f 68//5 44//5 7//5 10//5
f 11//6 1//6 9//6 6//6
f 29//2 33//2 71//2 31//2
f 30//5 50//5 48//5 34//5
f 32//6 52//6 15//6 12//6
f 72//3 56//3 3//3 14//3
f 13//4 4//4 17//4 16//4
f 38//3 64//3 62//3 46//3
f 36//4 39//4 18//4 21//4
f 54//5 70//5 20//5 19//5
f 2//6 23//6 22//6 24//6
