# Blender v2.82 (sub 7) OBJ File: ''
# www.blender.org
o 00000_3245a.dat_Mesh_3245a.dat_4
v 20.000000 0.000000 10.000001
v -16.000000 0.000000 -5.999999
v 20.000000 0.000000 -9.999999
v -16.000000 0.000000 6.000001
v -20.000000 48.000000 9.999999
v -20.000000 0.000000 -9.999999
v -20.000000 48.000000 -10.000001
v -20.000000 0.000000 10.000001
v 20.000000 48.000000 9.999999
v 20.000000 48.000000 -10.000001
v 2.828400 0.000000 -2.828399
v -1.530800 0.000000 -3.695599
v 0.000000 0.000000 -3.999999
v -3.695600 0.000000 -1.530799
v -2.828400 0.000000 -2.828399
v -4.000000 0.000000 0.000001
v 0.000000 0.000000 4.000001
v 0.000000 0.000000 0.000001
v 3.695600 0.000000 1.530801
v 2.828400 0.000000 2.828401
v 4.000000 0.000000 0.000001
v 4.000000 44.000000 -0.000001
v 3.695600 0.000000 -1.530799
v 2.828400 44.000000 -2.828401
v 3.695600 44.000000 -1.530801
v 1.530800 0.000000 -3.695599
v 0.000000 44.000000 -4.000001
v 1.530800 44.000000 -3.695601
v -1.530800 44.000000 -3.695601
v -2.828400 44.000000 -2.828401
v -4.000000 44.000000 -0.000001
v -3.695600 44.000000 -1.530801
v -3.695600 44.000000 1.530799
v -3.695600 0.000000 1.530801
v -2.828400 0.000000 2.828401
v -1.530800 0.000000 3.695601
v -1.530800 44.000000 3.695599
v -2.828400 44.000000 2.828399
v 1.530800 0.000000 3.695601
v 1.530800 44.000000 3.695599
v 0.000000 44.000000 3.999999
v 2.828400 44.000000 2.828399
v 3.695600 44.000000 1.530799
v 16.000000 44.000000 -6.000001
v 16.000000 0.000000 -5.999999
v -16.000000 44.000000 -6.000001
v 16.000000 0.000000 6.000001
v -16.000000 44.000000 5.999999
v 16.000000 44.000000 5.999999
v -4.456600 52.000000 -2.296201
v -4.456600 48.000000 -2.296201
v -5.757400 48.000000 -4.242601
v -7.703800 48.000000 -5.543401
v -10.000000 48.000000 -6.000001
v -12.296200 48.000000 -5.543401
v -14.242599 52.000000 -4.242601
v -12.296200 52.000000 -5.543401
v -14.242599 48.000000 -4.242601
v -15.543400 48.000000 -2.296201
v -16.000000 48.000000 -0.000001
v -15.543400 52.000000 -2.296201
v -15.543400 48.000000 2.296199
v -15.543400 52.000000 2.296199
v -14.242599 48.000000 4.242599
v -12.296200 48.000000 5.543399
v -14.242599 52.000000 4.242599
v -10.000000 48.000000 5.999999
v -10.000000 52.000000 5.999999
v -7.703800 48.000000 5.543399
v -5.757400 52.000000 4.242599
v -7.703800 52.000000 5.543399
v -5.757400 48.000000 4.242599
v -4.456600 48.000000 2.296199
v -4.000000 48.000000 -0.000001
v -4.456600 52.000000 2.296199
v -5.757400 52.000000 -4.242601
v -7.703800 52.000000 -5.543401
v -10.000000 52.000000 -6.000001
v -16.000000 52.000000 -0.000001
v -12.296200 52.000000 5.543399
v -10.000000 52.000000 -0.000001
v -4.000000 52.000000 -0.000001
v 16.000000 48.000000 -0.000001
v 15.543400 48.000000 -2.296201
v 14.242599 48.000000 -4.242601
v 14.242599 52.000000 -4.242601
v 15.543400 52.000000 -2.296201
v 12.296200 48.000000 -5.543401
v 10.000000 52.000000 -6.000001
v 10.000000 48.000000 -6.000001
v 7.703800 48.000000 -5.543401
v 7.703800 52.000000 -5.543401
v 5.757400 48.000000 -4.242601
v 4.456600 48.000000 -2.296201
v 4.000000 48.000000 -0.000001
v 4.456600 52.000000 2.296199
v 4.000000 52.000000 -0.000001
v 4.456600 48.000000 2.296199
v 5.757400 48.000000 4.242599
v 5.757400 52.000000 4.242599
v 7.703800 48.000000 5.543399
v 10.000000 48.000000 5.999999
v 7.703800 52.000000 5.543399
v 12.296200 48.000000 5.543399
v 14.242599 48.000000 4.242599
v 15.543400 48.000000 2.296199
v 15.543400 52.000000 2.296199
v 16.000000 52.000000 -0.000001
v 12.296200 52.000000 -5.543401
v 5.757400 52.000000 -4.242601
v 4.456600 52.000000 -2.296201
v 10.000000 52.000000 -0.000001
v 10.000000 52.000000 5.999999
v 12.296200 52.000000 5.543399
v 14.242599 52.000000 4.242599
v -20.000000 0.000000 -9.999999
v -20.000000 0.000000 -9.999999
v -20.000000 48.000000 -10.000001
v -20.000000 48.000000 -10.000001
v -1.530800 0.000000 -3.695599
v 0.000000 0.000000 -3.999999
v -3.695600 0.000000 -1.530799
v -2.828400 0.000000 -2.828399
v 3.695600 0.000000 1.530801
v 2.828400 0.000000 2.828401
v -3.695600 0.000000 1.530801
v -2.828400 0.000000 2.828401
v -14.242599 52.000000 -4.242601
v -12.296200 52.000000 -5.543401
v -5.757400 52.000000 4.242599
v -7.703800 52.000000 5.543399
v -7.703800 52.000000 -5.543401
v -10.000000 52.000000 -6.000001
v 14.242599 52.000000 -4.242601
v 15.543400 52.000000 -2.296201
v 4.456600 52.000000 2.296199
v 4.000000 52.000000 -0.000001
v 12.296200 52.000000 5.543399
v 14.242599 52.000000 4.242599
v 16.000000 0.000000 6.000001
v 16.000000 0.000000 6.000001
v -16.000000 0.000000 6.000001
v -16.000000 0.000000 6.000001
v 20.000000 0.000000 10.000001
v 20.000000 0.000000 10.000001
v -20.000000 0.000000 10.000001
v -20.000000 0.000000 10.000001
v 16.000000 0.000000 -5.999999
v 16.000000 0.000000 -5.999999
v 20.000000 0.000000 -9.999999
v 20.000000 0.000000 -9.999999
v -16.000000 0.000000 -5.999999
v -16.000000 0.000000 -5.999999
v -20.000000 48.000000 9.999999
v -20.000000 48.000000 9.999999
v 20.000000 48.000000 9.999999
v 20.000000 48.000000 9.999999
v 20.000000 48.000000 -10.000001
v 20.000000 48.000000 -10.000001
v 3.695600 0.000000 -1.530799
v 4.000000 0.000000 0.000001
v 2.828400 0.000000 -2.828399
v 1.530800 0.000000 -3.695599
v -4.000000 0.000000 0.000001
v -1.530800 0.000000 3.695601
v 0.000000 0.000000 4.000001
v 1.530800 0.000000 3.695601
v -16.000000 44.000000 -6.000001
v -16.000000 44.000000 -6.000001
v -16.000000 44.000000 5.999999
v -16.000000 44.000000 5.999999
v 16.000000 44.000000 -6.000001
v 16.000000 44.000000 -6.000001
v 16.000000 44.000000 5.999999
v 16.000000 44.000000 5.999999
v -4.456600 52.000000 -2.296201
v -4.000000 52.000000 -0.000001
v -5.757400 52.000000 -4.242601
v -15.543400 52.000000 -2.296201
v -16.000000 52.000000 -0.000001
v -15.543400 52.000000 2.296199
v -14.242599 52.000000 4.242599
v -12.296200 52.000000 5.543399
v -10.000000 52.000000 5.999999
v -4.456600 52.000000 2.296199
v 16.000000 52.000000 -0.000001
v 12.296200 52.000000 -5.543401
v 10.000000 52.000000 -6.000001
v 7.703800 52.000000 -5.543401
v 5.757400 52.000000 -4.242601
v 4.456600 52.000000 -2.296201
v 5.757400 52.000000 4.242599
v 7.703800 52.000000 5.543399
v 10.000000 52.000000 5.999999
v 15.543400 52.000000 2.296199
vn 0.0000 -1.0000 0.0000
vn 0.0000 1.0000 0.0000
vn 0.0000 0.0000 -1.0000
vn -1.0000 0.0000 0.0000
vn 0.0000 0.0000 1.0000
vn 1.0000 0.0000 0.0000
vn 0.9239 0.0000 -0.3827
vn 0.7071 0.0000 -0.7071
vn 0.3827 0.0000 -0.9239
vn -0.3827 0.0000 -0.9239
vn -0.7071 0.0000 -0.7071
vn -0.9239 0.0000 -0.3827
vn -0.9239 0.0000 0.3827
vn -0.7071 0.0000 0.7071
vn -0.3827 0.0000 0.9239
vn 0.3827 0.0000 0.9239
vn 0.7071 0.0000 0.7071
vn 0.9239 0.0000 0.3827
s 1
f 140//1 144//1 146//1 142//1
f 148//1 150//1 144//1 140//1
f 152//1 117//1 150//1 148//1
f 142//1 146//1 117//1 152//1
f 154//2 156//2 158//2 119//2
f 159//3 151//3 116//3 118//3
f 7//4 6//4 147//4 155//4
f 5//5 8//5 145//5 157//5
f 9//6 1//6 3//6 10//6
f 23//1 21//1 18//1
f 162//1 23//1 18//1
f 163//1 162//1 18//1
f 121//1 163//1 18//1
f 120//1 121//1 18//1
f 123//1 120//1 18//1
f 122//1 123//1 18//1
f 164//1 122//1 18//1
f 126//1 164//1 18//1
f 127//1 126//1 18//1
f 36//1 127//1 18//1
f 166//1 36//1 18//1
f 39//1 166//1 18//1
f 125//1 39//1 18//1
f 124//1 125//1 18//1
f 21//1 124//1 18//1
f 161//6 160//7 25//7 22//6
f 160//7 11//8 24//8 25//7
f 11//8 26//9 28//9 24//8
f 26//9 13//3 27//3 28//9
f 13//3 12//10 29//10 27//3
f 12//10 15//11 30//11 29//10
f 15//11 14//12 32//12 30//11
f 14//12 16//4 31//4 32//12
f 16//4 34//13 33//13 31//4
f 34//13 35//14 38//14 33//13
f 35//14 165//15 37//15 38//14
f 165//15 17//5 41//5 37//15
f 17//5 167//16 40//16 41//5
f 167//16 20//17 42//17 40//16
f 20//17 19//18 43//18 42//17
f 19//18 161//6 22//6 43//18
f 168//1 172//1 174//1 170//1
f 169//5 153//5 149//5 173//5
f 171//6 143//6 2//6 46//6
f 175//3 141//3 4//3 48//3
f 44//4 45//4 47//4 49//4
f 74//6 51//7 176//7 82//6
f 51//7 52//8 178//8 176//7
f 52//8 53//9 132//9 178//8
f 53//9 54//3 133//3 132//9
f 54//3 55//10 129//10 133//3
f 55//10 58//11 128//11 129//10
f 58//11 59//12 179//12 128//11
f 59//12 60//4 180//4 179//12
f 60//4 62//13 181//13 180//4
f 62//13 64//14 182//14 181//13
f 64//14 65//15 183//15 182//14
f 65//15 67//5 184//5 183//15
f 67//5 69//16 131//16 184//5
f 69//16 72//17 130//17 131//16
f 72//17 73//18 185//18 130//17
f 73//18 74//6 82//6 185//18
f 81//2 177//2 50//2
f 81//2 50//2 76//2
f 81//2 76//2 77//2
f 81//2 77//2 78//2
f 81//2 78//2 57//2
f 81//2 57//2 56//2
f 81//2 56//2 61//2
f 81//2 61//2 79//2
f 81//2 79//2 63//2
f 81//2 63//2 66//2
f 81//2 66//2 80//2
f 81//2 80//2 68//2
f 81//2 68//2 71//2
f 81//2 71//2 70//2
f 81//2 70//2 75//2
f 81//2 75//2 177//2
f 83//6 84//7 135//7 186//6
f 84//7 85//8 134//8 135//7
f 85//8 88//9 187//9 134//8
f 88//9 90//3 188//3 187//9
f 90//3 91//10 189//10 188//3
f 91//10 93//11 190//11 189//10
f 93//11 94//12 191//12 190//11
f 94//12 95//4 137//4 191//12
f 95//4 98//13 136//13 137//4
f 98//13 99//14 192//14 136//13
f 99//14 101//15 193//15 192//14
f 101//15 102//5 194//5 193//15
f 102//5 104//16 138//16 194//5
f 104//16 105//17 139//17 138//16
f 105//17 106//18 195//18 139//17
f 106//18 83//6 186//6 195//18
f 112//2 108//2 87//2
f 112//2 87//2 86//2
f 112//2 86//2 109//2
f 112//2 109//2 89//2
f 112//2 89//2 92//2
f 112//2 92//2 110//2
f 112//2 110//2 111//2
f 112//2 111//2 97//2
f 112//2 97//2 96//2
f 112//2 96//2 100//2
f 112//2 100//2 103//2
f 112//2 103//2 113//2
f 112//2 113//2 114//2
f 112//2 114//2 115//2
f 112//2 115//2 107//2
f 112//2 107//2 108//2
