# Blender v2.82 (sub 7) OBJ File: ''
# www.blender.org
o 00000_3298.dat.001_Mesh_3298.dat_4
v 20.000000 24.000000 -30.000000
v 20.000000 0.000002 30.000000
v 20.000000 24.000000 -10.000000
v 16.000000 4.000002 26.000000
v 16.000000 0.000000 -26.000000
v 16.000000 20.000000 -10.000000
v 16.000000 20.000000 -26.000000
v -16.000000 0.000000 -26.000000
v -16.000000 4.000002 26.000000
v -16.000000 0.000002 26.000000
v -16.000000 20.000000 -10.000000
v -20.000000 0.000000 -30.000000
v -20.000000 4.000002 30.000000
v 5.543400 16.000000 -12.296200
v 5.543400 0.000000 -12.296199
v 0.000000 0.000000 -15.999999
v -4.242600 16.000000 -14.242599
v -4.242600 0.000000 -14.242599
v -2.296200 0.000000 -15.543399
v -5.543400 16.000000 -12.296200
v -6.000000 16.000000 -10.000000
v -5.543400 0.000000 -12.296199
v -5.543400 16.000000 -7.703800
v -5.543400 0.000000 -7.703799
v -2.296200 0.000000 -4.456599
v 4.242600 16.000000 -5.757401
v 5.543400 0.000000 -7.703799
v 4.242600 0.000000 -5.757400
v 5.543400 16.000000 -7.703800
v 6.000000 0.000000 -9.999999
v 8.000000 0.000000 -9.999999
v 8.000000 16.000000 -10.000000
v 7.391200 0.000000 -13.061599
v 5.656800 0.000000 -15.656799
v 3.061600 16.000000 -17.391199
v -5.656800 16.000000 -15.656799
v -3.061600 16.000000 -17.391199
v -8.000000 0.000000 -9.999999
v -7.391200 0.000000 -6.938399
v -5.656800 0.000000 -4.343200
v 0.000000 0.000000 -1.999998
v -3.061600 16.000000 -2.608799
v 3.061600 0.000000 -2.608797
v 5.656800 0.000000 -4.343200
v -3.061600 0.000000 -17.391199
v -5.656800 0.000000 -15.656799
v -7.391200 0.000000 -13.061599
v -6.000000 0.000000 -9.999999
v -4.242600 0.000000 -5.757400
v -3.061600 0.000000 -2.608797
v 0.000000 0.000000 -3.999998
v 2.296200 0.000000 -4.456599
v 7.391200 0.000000 -6.938399
v 4.242600 0.000000 -14.242599
v 3.061600 0.000000 -17.391199
v 2.296200 0.000000 -15.543399
v 0.000000 0.000000 -18.000000
v 0.000000 16.000000 -2.000000
v 3.061600 16.304401 -2.608799
v 3.061600 16.000000 -2.608799
v 5.656800 16.000000 -4.343201
v 7.391200 18.469200 -6.938400
v 5.656800 17.171600 -4.343201
v 7.391200 16.000000 -6.938400
v -3.061600 16.304401 -2.608799
v -5.656800 17.171600 -4.343201
v -5.656800 16.000000 -4.343201
v -7.391200 18.469200 -6.938400
v -8.000000 16.000000 -10.000000
v -7.391200 16.000000 -6.938400
v 7.391200 16.000000 -13.061600
v 8.000000 20.000000 -10.000000
v 5.656800 20.000000 -15.656799
v 7.391200 20.000000 -13.061600
v 3.061600 20.000000 -17.391199
v 5.656800 16.000000 -15.656799
v 0.000000 16.000000 -18.000000
v 0.000000 20.000000 -18.000000
v -5.656800 20.000000 -15.656799
v -3.061600 20.000000 -17.391199
v -7.391200 20.000000 -13.061600
v -8.000000 20.000000 -10.000000
v -7.391200 16.000000 -13.061600
v 2.296200 17.228300 -4.456600
v 4.242600 17.878700 -5.757401
v 5.543400 18.851900 -7.703800
v 4.242600 17.000000 -5.757401
v 0.000000 17.000000 -4.000000
v -2.296200 17.228300 -4.456600
v -4.242600 17.878700 -5.757401
v -4.242600 17.000000 -5.757401
v -5.543400 18.851900 -7.703800
v 6.000000 17.000000 -10.000000
v 6.000000 20.000000 -10.000000
v 5.543400 17.000000 -12.296200
v 5.543400 20.000000 -12.296200
v 4.242600 20.000000 -14.242599
v 2.296200 20.000000 -15.543400
v 0.000000 20.000000 -16.000000
v -2.296200 20.000000 -15.543400
v -4.242600 20.000000 -14.242599
v -5.543400 20.000000 -12.296200
v -6.000000 20.000000 -10.000000
v 4.242600 17.000000 -14.242599
v 2.296200 17.000000 -15.543400
v 2.296200 16.000000 -15.543400
v 4.242600 16.000000 -14.242599
v 0.000000 17.000000 -16.000000
v -2.296200 17.000000 -15.543400
v -2.296200 16.000000 -15.543400
v 0.000000 16.000000 -16.000000
v -4.242600 17.000000 -14.242599
v -5.543400 17.000000 -12.296200
v -6.000000 17.000000 -10.000000
v -5.543400 17.000000 -7.703800
v -2.296200 17.000000 -4.456600
v -4.242600 16.000000 -5.757401
v 0.000000 16.000000 -4.000000
v -2.296200 16.000000 -4.456600
v 2.296200 16.000000 -4.456600
v 2.296200 17.000000 -4.456600
v 5.543400 17.000000 -7.703800
v 6.000000 16.000000 -10.000000
v 6.000000 6.000002 10.000000
v 5.543400 6.000002 7.703800
v 5.543400 0.000002 7.703802
v 6.000000 0.000002 10.000002
v 4.242600 0.000002 5.757402
v 2.296200 6.000002 4.456600
v 2.296200 0.000002 4.456602
v -2.296200 0.000002 4.456602
v -4.242600 0.000002 5.757402
v -6.000000 0.000002 10.000002
v -4.242600 0.000002 14.242599
v -2.296200 0.000002 15.543400
v 0.000000 0.000002 16.000000
v 0.000000 6.000002 16.000000
v 2.296200 6.000002 15.543400
v 4.242600 6.000002 14.242599
v 5.543400 6.000002 12.296200
v 7.391200 6.000002 6.938400
v 8.000000 6.000002 10.000000
v 5.656800 6.000002 4.343201
v 3.061600 0.000002 2.608801
v 3.061600 6.000002 2.608799
v -3.061600 0.000002 2.608801
v -5.656800 6.000002 4.343201
v -3.061600 6.000002 2.608799
v -7.391200 0.000002 13.061600
v 0.000000 0.000002 18.000000
v 0.000000 6.000002 18.000000
v 5.656800 6.000002 15.656799
v 3.061600 6.000002 17.391201
v 7.391200 0.000002 13.061600
v 0.000000 0.000002 2.000002
v 0.000000 0.000002 4.000002
v -5.656800 0.000002 4.343203
v -5.543400 0.000002 7.703802
v -7.391200 0.000002 6.938402
v -8.000000 0.000002 10.000002
v -5.543400 0.000002 12.296200
v -5.656800 0.000002 15.656799
v -3.061600 0.000002 17.391201
v 2.296200 0.000002 15.543400
v 3.061600 0.000002 17.391201
v 5.656800 0.000002 15.656799
v 4.242600 0.000002 14.242599
v 5.543400 0.000002 12.296200
v 8.000000 0.000002 10.000002
v 7.391200 0.000002 6.938402
v 5.656800 0.000002 4.343203
v 3.061600 6.304401 17.391201
v 5.656800 7.171602 15.656799
v 7.391200 6.000002 13.061600
v 8.000000 10.000001 10.000000
v 7.391200 8.469202 13.061600
v 7.391200 11.530801 6.938400
v 5.656800 12.828401 4.343201
v 0.000000 6.000002 2.000000
v 3.061600 13.695601 2.608799
v 0.000000 14.000001 2.000000
v -3.061600 13.695601 2.608799
v -5.656800 12.828401 4.343201
v -7.391200 6.000002 6.938400
v -7.391200 11.530801 6.938400
v -8.000000 6.000002 10.000000
v -8.000000 10.000001 10.000000
v -7.391200 6.000002 13.061600
v -5.656800 6.000002 15.656799
v -5.656800 7.171602 15.656799
v -7.391200 8.469202 13.061600
v -3.061600 6.304401 17.391201
v -3.061600 6.000002 17.391201
v 2.296200 7.000002 15.543400
v 0.000000 7.000002 16.000000
v 2.296200 7.228302 15.543400
v 4.242600 7.878702 14.242599
v 4.242600 7.000002 14.242599
v 5.543400 8.851901 12.296200
v 6.000000 7.000002 10.000000
v 6.000000 10.000001 10.000000
v 5.543400 11.148101 7.703800
v 4.242600 7.000002 5.757401
v 5.543400 7.000002 7.703800
v 4.242600 12.121301 5.757401
v 2.296200 12.771701 4.456600
v 0.000000 13.000001 4.000000
v 2.296200 7.000002 4.456600
v -2.296200 12.771701 4.456600
v -4.242600 12.121301 5.757401
v -4.242600 7.000002 5.757401
v -2.296200 7.000002 4.456600
v -5.543400 11.148101 7.703800
v -6.000000 10.000001 10.000000
v -5.543400 8.851901 12.296200
v -6.000000 7.000002 10.000000
v -4.242600 7.878702 14.242599
v -2.296200 7.228302 15.543400
v -2.296200 7.000002 15.543400
v -4.242600 7.000002 14.242599
v 5.543400 7.000002 12.296200
v 4.242600 6.000002 5.757401
v 0.000000 7.000002 4.000000
v 0.000000 6.000002 4.000000
v -2.296200 6.000002 4.456600
v -5.543400 7.000002 7.703800
v -4.242600 6.000002 5.757401
v -5.543400 6.000002 7.703800
v -5.543400 6.000002 12.296200
v -6.000000 6.000002 10.000000
v -5.543400 7.000002 12.296200
v -4.242600 6.000002 14.242599
v -2.296200 6.000002 15.543400
v -16.000000 20.000000 -26.000000
v -16.000000 4.000002 22.000000
v 16.000000 4.000002 22.000000
v 16.000000 0.000002 26.000000
v -20.000000 24.000000 -10.000000
v 20.000000 0.000000 -30.000000
v -20.000000 24.000000 -30.000000
v 20.000000 4.000002 30.000000
v -20.000000 0.000002 30.000000
v -4.456600 24.000000 -22.296200
v -4.456600 28.000000 -22.296200
v -5.757400 24.000000 -24.242599
v -7.703800 24.000000 -25.543400
v -10.000000 24.000000 -26.000000
v -12.296200 24.000000 -25.543400
v -12.296200 28.000000 -25.543400
v -14.242599 24.000000 -24.242599
v -15.543400 24.000000 -22.296200
v -16.000000 24.000000 -20.000000
v -15.543400 28.000000 -22.296200
v -15.543400 24.000000 -17.703800
v -14.242599 28.000000 -15.757401
v -14.242599 24.000000 -15.757401
v -12.296200 24.000000 -14.456600
v -10.000000 24.000000 -14.000000
v -10.000000 28.000000 -14.000000
v -7.703800 24.000000 -14.456600
v -5.757400 24.000000 -15.757401
v -5.757400 28.000000 -15.757401
v -4.456600 24.000000 -17.703800
v -4.000000 24.000000 -20.000000
v -4.456600 28.000000 -17.703800
v -5.757400 28.000000 -24.242599
v -7.703800 28.000000 -25.543400
v -10.000000 28.000000 -26.000000
v -14.242599 28.000000 -24.242599
v -16.000000 28.000000 -20.000000
v -15.543400 28.000000 -17.703800
v -12.296200 28.000000 -14.456600
v -10.000000 28.000000 -20.000000
v -7.703800 28.000000 -14.456600
v -4.000000 28.000000 -20.000000
v 16.000000 24.000000 -20.000000
v 15.543400 24.000000 -22.296200
v 14.242599 24.000000 -24.242599
v 12.296200 24.000000 -25.543400
v 12.296200 28.000000 -25.543400
v 10.000000 24.000000 -26.000000
v 7.703800 24.000000 -25.543400
v 5.757400 24.000000 -24.242599
v 4.456600 24.000000 -22.296200
v 4.000000 24.000000 -20.000000
v 4.456600 24.000000 -17.703800
v 4.000000 28.000000 -20.000000
v 5.757400 28.000000 -15.757401
v 5.757400 24.000000 -15.757401
v 7.703800 24.000000 -14.456600
v 10.000000 24.000000 -14.000000
v 7.703800 28.000000 -14.456600
v 12.296200 24.000000 -14.456600
v 12.296200 28.000000 -14.456600
v 14.242599 24.000000 -15.757401
v 15.543400 24.000000 -17.703800
v 16.000000 28.000000 -20.000000
v 15.543400 28.000000 -22.296200
v 14.242599 28.000000 -24.242599
v 10.000000 28.000000 -20.000000
v 10.000000 28.000000 -26.000000
v 7.703800 28.000000 -25.543400
v 5.757400 28.000000 -24.242599
v 4.456600 28.000000 -22.296200
v 4.456600 28.000000 -17.703800
v 10.000000 28.000000 -14.000000
v 14.242599 28.000000 -15.757401
v 15.543400 28.000000 -17.703800
v 16.000000 0.000000 -26.000000
v 16.000000 0.000000 -26.000000
v 16.000000 20.000000 -26.000000
v 16.000000 20.000000 -26.000000
v 16.000000 20.000000 -10.000000
v 16.000000 20.000000 -10.000000
v -16.000000 0.000000 -26.000000
v -16.000000 0.000000 -26.000000
v -16.000000 0.000002 26.000000
v -16.000000 0.000002 26.000000
v -16.000000 4.000002 26.000000
v -16.000000 4.000002 26.000000
v -4.242600 0.000000 -14.242599
v -2.296200 0.000000 -15.543399
v 5.543400 0.000000 -7.703799
v 4.242600 0.000000 -5.757400
v -8.000000 0.000000 -9.999999
v -7.391200 0.000000 -6.938399
v -5.656800 0.000000 -15.656799
v -7.391200 0.000000 -13.061599
v 3.061600 0.000000 -17.391199
v 0.000000 0.000000 -18.000000
v 5.543400 0.000002 7.703802
v 6.000000 0.000002 10.000002
v -5.656800 0.000002 4.343203
v -7.391200 0.000002 6.938402
v 4.242600 0.000002 14.242599
v 5.543400 0.000002 12.296200
v 15.543400 28.000000 -22.296200
v 14.242599 28.000000 -24.242599
v 7.703800 28.000000 -25.543400
v 5.757400 28.000000 -24.242599
v 20.000000 4.000002 30.000000
v 20.000000 4.000002 30.000000
v -20.000000 4.000002 30.000000
v -20.000000 4.000002 30.000000
v 20.000000 24.000000 -10.000000
v 20.000000 24.000000 -10.000000
v -20.000000 24.000000 -10.000000
v -20.000000 24.000000 -10.000000
v 20.000000 0.000000 -30.000000
v 20.000000 0.000000 -30.000000
v -20.000000 0.000000 -30.000000
v -20.000000 0.000000 -30.000000
v -20.000000 0.000002 30.000000
v -20.000000 0.000002 30.000000
v 20.000000 0.000002 30.000000
v 20.000000 0.000002 30.000000
v 16.000000 0.000002 26.000000
v 16.000000 0.000002 26.000000
v 20.000000 24.000000 -30.000000
v 20.000000 24.000000 -30.000000
v 16.000000 4.000002 26.000000
v 16.000000 4.000002 26.000000
v 16.000000 4.000002 22.000000
v 16.000000 4.000002 22.000000
v -16.000000 4.000002 22.000000
v -16.000000 4.000002 22.000000
v -16.000000 20.000000 -10.000000
v -16.000000 20.000000 -10.000000
v -16.000000 20.000000 -26.000000
v -16.000000 20.000000 -26.000000
v -20.000000 24.000000 -30.000000
v -20.000000 24.000000 -30.000000
v 5.543400 0.000000 -12.296199
v 6.000000 0.000000 -9.999999
v 4.242600 0.000000 -14.242599
v 2.296200 0.000000 -15.543399
v 0.000000 0.000000 -15.999999
v -5.543400 0.000000 -12.296199
v -6.000000 0.000000 -9.999999
v -5.543400 0.000000 -7.703799
v -4.242600 0.000000 -5.757400
v -2.296200 0.000000 -4.456599
v 0.000000 0.000000 -3.999998
v 2.296200 0.000000 -4.456599
v 8.000000 0.000000 -9.999999
v 7.391200 0.000000 -13.061599
v 5.656800 0.000000 -15.656799
v -3.061600 0.000000 -17.391199
v -5.656800 0.000000 -4.343200
v -3.061600 0.000000 -2.608797
v 0.000000 0.000000 -1.999998
v 3.061600 0.000000 -2.608797
v 5.656800 0.000000 -4.343200
v 7.391200 0.000000 -6.938399
v 4.242600 0.000002 5.757402
v 2.296200 0.000002 4.456602
v 0.000000 0.000002 4.000002
v -2.296200 0.000002 4.456602
v -4.242600 0.000002 5.757402
v -5.543400 0.000002 7.703802
v -6.000000 0.000002 10.000002
v -5.543400 0.000002 12.296200
v -4.242600 0.000002 14.242599
v -2.296200 0.000002 15.543400
v 0.000000 0.000002 16.000000
v 2.296200 0.000002 15.543400
v 8.000000 0.000002 10.000002
v 7.391200 0.000002 6.938402
v 5.656800 0.000002 4.343203
v 3.061600 0.000002 2.608801
v 0.000000 0.000002 2.000002
v -3.061600 0.000002 2.608801
v -8.000000 0.000002 10.000002
v -7.391200 0.000002 13.061600
v -5.656800 0.000002 15.656799
v -3.061600 0.000002 17.391201
v 0.000000 0.000002 18.000000
v 3.061600 0.000002 17.391201
v 5.656800 0.000002 15.656799
v 7.391200 0.000002 13.061600
v -4.456600 28.000000 -22.296200
v -4.000000 28.000000 -20.000000
v -5.757400 28.000000 -24.242599
v -7.703800 28.000000 -25.543400
v -10.000000 28.000000 -26.000000
v -12.296200 28.000000 -25.543400
v -14.242599 28.000000 -24.242599
v -15.543400 28.000000 -22.296200
v -16.000000 28.000000 -20.000000
v -15.543400 28.000000 -17.703800
v -14.242599 28.000000 -15.757401
v -12.296200 28.000000 -14.456600
v -10.000000 28.000000 -14.000000
v -7.703800 28.000000 -14.456600
v -5.757400 28.000000 -15.757401
v -4.456600 28.000000 -17.703800
v 16.000000 28.000000 -20.000000
v 12.296200 28.000000 -25.543400
v 10.000000 28.000000 -26.000000
v 4.456600 28.000000 -22.296200
v 4.000000 28.000000 -20.000000
v 4.456600 28.000000 -17.703800
v 5.757400 28.000000 -15.757401
v 7.703800 28.000000 -14.456600
v 10.000000 28.000000 -14.000000
v 12.296200 28.000000 -14.456600
v 14.242599 28.000000 -15.757401
v 15.543400 28.000000 -17.703800
vn 0.0000 0.8944 0.4472
vn 0.0000 -1.0000 0.0000
vn 1.0000 0.0000 0.0000
vn -1.0000 0.0000 0.0000
vn -0.9239 0.0000 0.3827
vn -0.7071 0.0000 0.7071
vn -0.3827 0.0000 0.9239
vn 0.0000 0.0000 1.0000
vn 0.3827 0.0000 0.9239
vn 0.7071 0.0000 0.7071
vn 0.9239 0.0000 0.3827
vn 0.9239 0.0000 -0.3827
vn 0.7071 0.0000 -0.7071
vn 0.3827 0.0000 -0.9239
vn 0.0000 0.0000 -1.0000
vn -0.3827 0.0000 -0.9239
vn -0.7071 0.0000 -0.7071
vn -0.9239 0.0000 -0.3827
vn 0.4030 0.0000 0.9152
vn 0.7351 0.0000 0.6779
vn 0.9427 0.0000 0.3334
vn 0.9994 0.0000 -0.0337
vn -0.4030 0.0000 0.9152
vn -0.7351 0.0000 0.6779
vn -0.9427 0.0000 0.3334
vn -0.9994 0.0000 -0.0337
vn -0.4030 0.0000 -0.9152
vn -0.7351 0.0000 -0.6779
vn -0.9427 0.0000 -0.3334
vn -0.9994 0.0000 0.0337
vn 0.4030 0.0000 -0.9152
vn 0.7351 0.0000 -0.6779
vn 0.9427 0.0000 -0.3334
vn 0.9994 0.0000 0.0337
vn 0.9983 0.0000 -0.0576
vn 0.9015 0.0000 -0.4328
vn 0.6755 0.0000 -0.7374
vn 0.3598 0.0000 -0.9330
vn -0.3598 0.0000 -0.9330
vn -0.6755 0.0000 -0.7374
vn -0.9015 0.0000 -0.4328
vn -0.9983 0.0000 -0.0576
vn -0.9983 0.0000 0.0576
vn -0.9015 0.0000 0.4328
vn -0.6755 0.0000 0.7374
vn -0.3598 0.0000 0.9330
vn 0.3598 0.0000 0.9330
vn 0.6755 0.0000 0.7374
vn 0.9015 0.0000 0.4328
vn 0.9983 0.0000 0.0576
vn 0.0000 -0.8944 -0.4472
vn 0.0000 1.0000 0.0000
s 1
f 341//1 345//1 347//1 343//1
f 349//2 310//2 315//2 351//2
f 351//2 315//2 317//2 353//2
f 353//2 317//2 357//2 355//2
f 355//2 357//2 310//2 349//2
f 350//3 359//3 342//3 356//3
f 359//3 346//3 342//3
f 358//4 361//4 363//4 309//4
f 309//4 363//4 313//4 311//4
f 316//3 365//3 319//3 318//3
f 365//3 316//3 369//3 367//3
f 354//4 344//4 371//4 352//4
f 344//4 348//4 371//4
f 123//4 14//5 373//5 374//4
f 14//5 107//6 375//6 373//5
f 107//6 106//7 56//7 375//6
f 106//7 111//8 377//8 56//7
f 111//8 110//9 322//9 377//8
f 110//9 17//10 321//10 322//9
f 17//10 20//11 378//11 321//10
f 20//11 21//3 379//3 378//11
f 21//3 23//12 380//12 379//3
f 23//12 117//13 381//13 380//12
f 117//13 119//14 382//14 381//13
f 119//14 118//15 383//15 382//14
f 118//15 120//16 384//16 383//15
f 120//16 26//17 324//17 384//16
f 26//17 29//18 323//18 324//17
f 29//18 123//4 374//4 323//18
f 385//3 386//12 71//12 32//3
f 386//12 387//13 76//13 71//12
f 387//13 329//14 35//14 76//13
f 329//14 330//15 77//15 35//14
f 330//15 388//16 37//16 77//15
f 388//16 327//17 36//17 37//16
f 327//17 328//18 83//18 36//17
f 328//18 325//4 69//4 83//18
f 325//4 326//5 70//5 69//4
f 326//5 389//6 67//6 70//5
f 389//6 390//7 42//7 67//6
f 390//7 391//8 58//8 42//7
f 391//8 392//9 60//9 58//8
f 392//9 393//10 61//10 60//9
f 393//10 394//11 64//11 61//10
f 394//11 385//3 32//3 64//11
f 57//2 16//2 19//2 45//2
f 45//2 19//2 18//2 46//2
f 46//2 18//2 22//2 47//2
f 47//2 22//2 48//2 38//2
f 38//2 48//2 24//2 39//2
f 39//2 24//2 49//2 40//2
f 40//2 49//2 25//2 50//2
f 50//2 25//2 51//2 41//2
f 41//2 51//2 52//2 43//2
f 43//2 52//2 28//2 44//2
f 44//2 28//2 27//2 53//2
f 53//2 27//2 30//2 31//2
f 31//2 30//2 15//2 33//2
f 33//2 15//2 54//2 34//2
f 34//2 54//2 376//2 55//2
f 55//2 376//2 16//2 57//2
f 58//8 60//9 59//19
f 60//9 61//10 63//20 59//19
f 61//10 64//11 62//21 63//20
f 64//11 32//3 72//22 62//21
f 65//23 42//7 58//8
f 65//23 66//24 67//6 42//7
f 66//24 68//25 70//5 67//6
f 68//25 82//26 69//4 70//5
f 71//12 74//12 72//22 32//3
f 76//13 73//13 74//12 71//12
f 35//14 75//14 73//13 76//13
f 77//15 78//15 75//14 35//14
f 37//16 80//16 78//15 77//15
f 36//17 79//17 80//16 37//16
f 83//18 81//18 79//17 36//17
f 69//4 82//26 81//18 83//18
f 84//27 121//16 88//15
f 84//27 85//28 87//17 121//16
f 85//28 86//29 122//18 87//17
f 86//29 94//30 93//4 122//18
f 88//15 116//14 89//31
f 116//14 91//13 90//32 89//31
f 91//13 115//12 92//33 90//32
f 115//12 114//3 103//34 92//33
f 93//4 94//30 96//5 95//5
f 95//5 96//5 97//6 104//6
f 104//6 97//6 98//7 105//7
f 105//7 98//7 99//8 108//8
f 108//8 99//8 100//9 109//9
f 109//9 100//9 101//10 112//10
f 112//10 101//10 102//11 113//11
f 113//11 102//11 103//34 114//3
f 93//4 95//5 14//5 123//4
f 95//5 104//6 107//6 14//5
f 104//6 105//7 106//7 107//6
f 105//7 108//8 111//8 106//7
f 108//8 109//9 110//9 111//8
f 109//9 112//10 17//10 110//9
f 112//10 113//11 20//11 17//10
f 113//11 114//3 21//3 20//11
f 114//3 115//12 23//12 21//3
f 115//12 91//13 117//13 23//12
f 91//13 116//14 119//14 117//13
f 116//14 88//15 118//15 119//14
f 88//15 121//16 120//16 118//15
f 121//16 87//17 26//17 120//16
f 87//17 122//18 29//18 26//17
f 122//18 93//4 123//4 29//18
f 124//4 125//5 331//5 332//4
f 125//5 222//6 395//6 331//5
f 222//6 129//7 396//7 395//6
f 129//7 224//8 156//8 396//7
f 224//8 225//9 398//9 156//8
f 225//9 227//10 399//10 398//9
f 227//10 228//11 158//11 399//10
f 228//11 230//3 401//3 158//11
f 230//3 229//12 402//12 401//3
f 229//12 232//13 403//13 402//12
f 232//13 233//14 404//14 403//13
f 233//14 137//15 405//15 404//14
f 137//15 138//16 164//16 405//15
f 138//16 139//17 167//17 164//16
f 139//17 140//18 336//18 167//17
f 140//18 124//4 332//4 336//18
f 407//3 408//12 141//12 142//3
f 408//12 409//13 143//13 141//12
f 409//13 410//14 145//14 143//13
f 410//14 155//15 179//15 145//14
f 155//15 412//16 148//16 179//15
f 412//16 333//17 147//17 148//16
f 333//17 334//18 184//18 147//17
f 334//18 413//4 186//4 184//18
f 413//4 414//5 188//5 186//4
f 414//5 415//6 189//6 188//5
f 415//6 416//7 193//7 189//6
f 416//7 417//8 151//8 193//7
f 417//8 165//9 153//9 151//8
f 165//9 166//10 152//10 153//9
f 166//10 420//11 174//11 152//10
f 420//11 407//3 142//3 174//11
f 411//2 397//2 131//2 146//2
f 146//2 131//2 132//2 157//2
f 157//2 132//2 400//2 159//2
f 159//2 400//2 133//2 160//2
f 160//2 133//2 161//2 149//2
f 149//2 161//2 134//2 162//2
f 162//2 134//2 135//2 163//2
f 163//2 135//2 136//2 150//2
f 150//2 136//2 406//2 418//2
f 418//2 406//2 335//2 419//2
f 419//2 335//2 168//2 154//2
f 154//2 168//2 127//2 169//2
f 169//2 127//2 126//2 170//2
f 170//2 126//2 128//2 171//2
f 171//2 128//2 130//2 144//2
f 144//2 130//2 397//2 411//2
f 151//8 153//9 172//19
f 153//9 152//10 173//20 172//19
f 152//10 174//11 176//21 173//20
f 174//11 142//3 175//35 176//21
f 142//3 141//12 177//36 175//35
f 141//12 143//13 178//37 177//36
f 143//13 145//14 180//38 178//37
f 145//14 179//15 181//15 180//38
f 179//15 148//16 182//39 181//15
f 148//16 147//17 183//40 182//39
f 147//17 184//18 185//41 183//40
f 184//18 186//4 187//42 185//41
f 186//4 188//5 191//25 187//42
f 188//5 189//6 190//24 191//25
f 189//6 193//7 192//23 190//24
f 151//8 192//23 193//7
f 196//27 194//16 195//15
f 196//27 197//28 198//17 194//16
f 197//28 199//29 221//18 198//17
f 199//29 201//43 200//4 221//18
f 201//43 202//44 204//5 200//4
f 202//44 205//45 203//6 204//5
f 205//45 206//46 208//7 203//6
f 206//46 207//8 223//8 208//7
f 207//8 209//47 212//9 223//8
f 209//47 210//48 211//10 212//9
f 210//48 213//49 226//11 211//10
f 213//49 214//50 216//3 226//11
f 214//50 215//33 231//12 216//3
f 215//33 217//32 220//13 231//12
f 217//32 218//31 219//14 220//13
f 219//14 218//31 195//15
f 195//15 194//16 138//16 137//15
f 194//16 198//17 139//17 138//16
f 198//17 221//18 140//18 139//17
f 221//18 200//4 124//4 140//18
f 200//4 204//5 125//5 124//4
f 204//5 203//6 222//6 125//5
f 203//6 208//7 129//7 222//6
f 208//7 223//8 224//8 129//7
f 223//8 212//9 225//9 224//8
f 212//9 211//10 227//10 225//9
f 211//10 226//11 228//11 227//10
f 226//11 216//3 230//3 228//11
f 216//3 231//12 229//12 230//3
f 231//12 220//13 232//13 229//12
f 220//13 219//14 233//14 232//13
f 219//14 195//15 137//15 233//14
f 312//2 314//2 368//2 370//2
f 7//8 234//8 8//8 5//8
f 364//2 362//2 320//2 366//2
f 236//51 235//51 11//51 6//51
f 10//15 9//15 4//15 237//15
f 372//52 238//52 3//52 360//52
f 239//15 12//15 240//15 1//15
f 2//8 241//8 13//8 242//8
f 264//3 243//12 421//12 422//3
f 243//12 245//13 423//13 421//12
f 245//13 246//14 424//14 423//13
f 246//14 247//15 425//15 424//14
f 247//15 248//16 426//16 425//15
f 248//16 250//17 427//17 426//16
f 250//17 251//18 428//18 427//17
f 251//18 252//4 429//4 428//18
f 252//4 254//5 430//5 429//4
f 254//5 256//6 431//6 430//5
f 256//6 257//7 432//7 431//6
f 257//7 258//8 433//8 432//7
f 258//8 260//9 274//9 433//8
f 260//9 261//10 435//10 274//9
f 261//10 263//11 436//11 435//10
f 263//11 264//3 422//3 436//11
f 273//52 275//52 244//52
f 273//52 244//52 266//52
f 273//52 266//52 267//52
f 273//52 267//52 268//52
f 273//52 268//52 249//52
f 273//52 249//52 269//52
f 273//52 269//52 253//52
f 273//52 253//52 270//52
f 273//52 270//52 271//52
f 273//52 271//52 255//52
f 273//52 255//52 272//52
f 273//52 272//52 259//52
f 273//52 259//52 434//52
f 273//52 434//52 262//52
f 273//52 262//52 265//52
f 273//52 265//52 275//52
f 276//3 277//12 337//12 437//3
f 277//12 278//13 338//13 337//12
f 278//13 279//14 438//14 338//13
f 279//14 281//15 439//15 438//14
f 281//15 282//16 339//16 439//15
f 282//16 283//17 340//17 339//16
f 283//17 284//18 440//18 340//17
f 284//18 285//4 441//4 440//18
f 285//4 286//5 442//5 441//4
f 286//5 289//6 443//6 442//5
f 289//6 290//7 444//7 443//6
f 290//7 291//8 445//8 444//7
f 291//8 293//9 446//9 445//8
f 293//9 295//10 447//10 446//9
f 295//10 296//11 448//11 447//10
f 296//11 276//3 437//3 448//11
f 300//52 297//52 298//52
f 300//52 298//52 299//52
f 300//52 299//52 280//52
f 300//52 280//52 301//52
f 300//52 301//52 302//52
f 300//52 302//52 303//52
f 300//52 303//52 304//52
f 300//52 304//52 287//52
f 300//52 287//52 305//52
f 300//52 305//52 288//52
f 300//52 288//52 292//52
f 300//52 292//52 306//52
f 300//52 306//52 294//52
f 300//52 294//52 307//52
f 300//52 307//52 308//52
f 300//52 308//52 297//52
