# Blender v2.82 (sub 7) OBJ File: ''
# www.blender.org
o 00000_37352.dat_Mesh_37352.dat_4
v -5.000000 0.000000 3.500000
v -3.500000 0.000000 -5.000000
v -6.500000 0.000000 -5.000000
v 16.000000 18.000000 -6.000000
v 16.000000 0.000000 6.000000
v -16.000000 0.000000 -6.000000
v -3.500000 0.000000 -6.000000
v -20.000000 0.000000 -10.000000
v -16.000000 0.000000 6.000000
v -6.500000 0.000000 6.000000
v -3.500000 0.000000 6.000000
v 20.000000 0.000000 10.000000
v 3.500000 0.000000 6.000000
v 20.000000 0.000000 -10.000000
v -20.000000 24.000000 -10.000000
v 20.000000 24.000000 -10.000000
v 16.000000 17.086800 -1.407600
v 16.000000 10.592401 5.086800
v 16.000000 6.000000 6.000000
v -16.000000 10.592401 5.086800
v -16.000000 14.485200 2.485200
v 16.000000 14.485200 2.485200
v -16.000000 17.086800 -1.407600
v -16.000000 18.000000 -6.000000
v 6.500000 0.000000 5.000000
v 6.500000 0.000000 6.000000
v 6.500000 11.000000 5.000000
v 6.500000 11.000000 6.000000
v 3.500000 11.000000 6.000000
v 3.500000 11.000000 5.000000
v 3.500000 0.000000 5.000001
v 3.500000 13.000000 5.000000
v 5.000000 0.000000 3.500001
v 5.000000 13.000000 3.500000
v 6.500000 13.000000 5.000000
v -3.500000 6.000000 6.000000
v 3.500000 6.000000 6.000000
v -3.500000 11.000000 5.000000
v -3.500000 11.000000 6.000000
v -6.500000 11.000000 6.000000
v -6.500000 11.000000 5.000000
v -6.500000 0.000000 5.000001
v -6.500000 13.000000 5.000000
v -5.000000 13.000000 3.500000
v -3.500000 13.000000 5.000000
v -3.500000 0.000000 5.000001
v -6.500000 18.000000 -5.000000
v -6.500000 18.000000 -6.000000
v -3.500000 18.000000 -6.000000
v -3.500000 18.000000 -5.000000
v -5.000000 18.000000 -3.500000
v -5.000000 0.000000 -3.500000
v 3.500000 0.000000 -4.999999
v 3.500000 18.000000 -5.000000
v 3.500000 18.000000 -6.000000
v 3.500000 0.000000 -5.999999
v 6.500000 0.000000 -5.999999
v 6.500000 18.000000 -6.000000
v 6.500000 18.000000 -5.000000
v 5.000000 0.000000 -3.500000
v 6.500000 0.000000 -5.000000
v 5.000000 18.000000 -3.500000
v 16.000000 0.000000 -6.000000
v 6.500000 6.000000 6.000000
v -16.000000 6.000000 6.000000
v -6.500000 6.000000 6.000000
v -6.500000 0.000000 -6.000000
v 20.000000 22.478001 -2.346000
v 20.000000 18.142000 4.141999
v -20.000000 22.478001 -2.346000
v 20.000000 4.000000 10.000000
v -20.000000 11.654000 8.478001
v 20.000000 11.654000 8.478001
v -20.000000 18.142000 4.141999
v -20.000000 4.000000 10.000000
v -20.000000 0.000000 10.000000
v -16.000000 10.592401 5.086800
v -16.000000 14.485200 2.485200
v -16.000000 17.086800 -1.407600
v -16.000000 18.000000 -6.000000
v -16.000000 18.000000 -6.000000
v 6.500000 0.000000 5.000000
v 6.500000 0.000000 5.000000
v 6.500000 0.000000 6.000000
v 6.500000 0.000000 6.000000
v 5.000000 0.000000 3.500001
v 5.000000 0.000000 3.500001
v 5.000000 13.000000 3.500000
v -6.500000 18.000000 -5.000000
v -6.500000 18.000000 -6.000000
v -3.500000 18.000000 -6.000000
v -3.500000 18.000000 -5.000000
v 3.500000 0.000000 -4.999999
v 3.500000 0.000000 -4.999999
v 3.500000 0.000000 -5.999999
v 3.500000 0.000000 -5.999999
v 3.500000 18.000000 -5.000000
v 3.500000 18.000000 -6.000000
v 6.500000 0.000000 -5.999999
v 6.500000 0.000000 -5.999999
v 6.500000 18.000000 -6.000000
v 6.500000 18.000000 -5.000000
v 5.000000 0.000000 -3.500000
v 5.000000 0.000000 -3.500000
v 5.000000 18.000000 -3.500000
v 6.500000 0.000000 -5.000000
v 6.500000 0.000000 -5.000000
v 20.000000 22.478001 -2.346000
v 20.000000 18.142000 4.141999
v -20.000000 4.000000 10.000000
v -20.000000 0.000000 10.000000
v -20.000000 0.000000 10.000000
v 3.500000 0.000000 5.000001
v 3.500000 0.000000 5.000001
v -6.500000 0.000000 5.000001
v -6.500000 0.000000 5.000001
v -5.000000 0.000000 3.500000
v -5.000000 0.000000 3.500000
v -3.500000 0.000000 5.000001
v -3.500000 0.000000 5.000001
v -3.500000 0.000000 -5.000000
v -3.500000 0.000000 -5.000000
v -5.000000 0.000000 -3.500000
v -5.000000 0.000000 -3.500000
v -6.500000 0.000000 -5.000000
v -6.500000 0.000000 -5.000000
v 16.000000 18.000000 -6.000000
v 16.000000 18.000000 -6.000000
v 16.000000 0.000000 -6.000000
v 16.000000 0.000000 -6.000000
v 16.000000 0.000000 6.000000
v 16.000000 0.000000 6.000000
v 16.000000 6.000000 6.000000
v 16.000000 6.000000 6.000000
v -16.000000 6.000000 6.000000
v -16.000000 6.000000 6.000000
v -16.000000 0.000000 6.000000
v -16.000000 0.000000 6.000000
v -16.000000 0.000000 -6.000000
v -16.000000 0.000000 -6.000000
v 20.000000 0.000000 -10.000000
v 20.000000 0.000000 -10.000000
v -20.000000 0.000000 -10.000000
v -20.000000 0.000000 -10.000000
v -3.500000 0.000000 -6.000000
v -3.500000 0.000000 -6.000000
v -6.500000 0.000000 -6.000000
v -6.500000 0.000000 -6.000000
v -6.500000 0.000000 6.000000
v -6.500000 0.000000 6.000000
v 20.000000 0.000000 10.000000
v 20.000000 0.000000 10.000000
v -3.500000 0.000000 6.000000
v -3.500000 0.000000 6.000000
v 3.500000 0.000000 6.000000
v 3.500000 0.000000 6.000000
v -20.000000 24.000000 -10.000000
v -20.000000 24.000000 -10.000000
v 20.000000 4.000000 10.000000
v 20.000000 24.000000 -10.000000
v 20.000000 24.000000 -10.000000
v 16.000000 10.592401 5.086800
v 16.000000 17.086800 -1.407600
v 16.000000 14.485200 2.485200
v -5.000000 13.000000 3.500000
v -5.000000 18.000000 -3.500000
v 20.000000 11.654000 8.478001
v -20.000000 11.654000 8.478001
v -20.000000 22.478001 -2.346000
v -20.000000 18.142000 4.141999
vn 0.0000 -1.0000 0.0000
vn -1.0000 0.0000 0.0000
vn 1.0000 0.0000 0.0000
vn 0.0000 -0.1950 -0.9808
vn 0.0000 -0.3827 -0.9239
vn 0.0000 -0.7071 -0.7071
vn 0.0000 -0.9239 -0.3827
vn 0.0000 -0.9808 -0.1950
vn -0.7071 0.0000 -0.7071
vn 0.7071 0.0000 -0.7071
vn 0.0000 0.0000 -1.0000
vn 0.7071 0.0000 0.7071
vn -0.7071 0.0000 0.7071
vn 0.0000 0.0000 1.0000
vn 0.0000 0.0980 0.9952
vn 0.0000 0.3827 0.9239
vn 0.0000 0.7071 0.7071
vn 0.0000 0.9239 0.3827
vn 0.0000 0.9808 0.1950
s 1
f 114//1 87//1 82//1
f 116//1 117//1 120//1
f 121//1 123//1 125//1
f 106//1 104//1 93//1
f 127//2 129//2 131//2 133//2
f 136//3 137//3 139//3 80//3
f 141//1 130//1 100//1
f 141//1 100//1 95//1
f 141//1 95//1 145//1 143//1
f 145//1 147//1 143//1
f 147//1 140//1 143//1
f 143//1 140//1 138//1 112//1
f 112//1 138//1 149//1
f 112//1 149//1 153//1
f 112//1 153//1 155//1 151//1
f 155//1 84//1 151//1
f 84//1 132//1 151//1
f 151//1 132//1 130//1 141//1
f 144//2 111//2 110//2 157//2
f 152//3 142//3 160//3 159//3
f 162//2 163//2 127//2 133//2
f 164//2 163//2 162//2
f 136//3 80//3 79//3 77//3
f 77//3 79//3 78//3
f 65//4 20//5 18//5 134//4
f 20//5 21//6 22//6 18//5
f 21//6 23//7 17//7 22//6
f 23//7 81//8 128//8 17//7
f 155//1 114//1 82//1 84//1
f 83//3 27//3 28//3 85//3
f 156//2 29//2 30//2 31//2
f 86//9 113//9 32//9 88//9
f 33//10 34//10 35//10 25//10
f 36//11 37//11 13//11 154//11
f 149//1 116//1 120//1 153//1
f 46//3 38//3 39//3 11//3
f 150//2 40//2 41//2 42//2
f 118//9 115//9 43//9 44//9
f 1//10 165//10 45//10 119//10
f 145//1 121//1 125//1 147//1
f 126//2 89//2 90//2 148//2
f 146//3 91//3 92//3 122//3
f 124//12 2//12 50//12 166//12
f 52//13 51//13 47//13 3//13
f 49//14 7//14 96//14 55//14
f 100//1 106//1 93//1 95//1
f 94//2 97//2 98//2 56//2
f 99//3 101//3 102//3 107//3
f 103//12 61//12 59//12 105//12
f 60//13 62//13 54//13 53//13
f 4//14 58//14 57//14 63//14
f 26//11 64//11 19//11 5//11
f 135//11 66//11 10//11 9//11
f 6//14 67//14 48//14 24//14
f 159//3 160//3 108//3 167//3
f 167//3 108//3 109//3
f 168//2 169//2 157//2 110//2
f 170//2 169//2 168//2
f 71//15 73//16 72//16 75//15
f 73//16 69//17 74//17 72//16
f 69//17 68//18 70//18 74//17
f 68//18 161//19 158//19 70//18
f 16//11 14//11 8//11 15//11
f 12//14 71//15 75//15 76//14
