# Blender v2.82 (sub 7) OBJ File: ''
# www.blender.org
o 00000_4073.dat_Mesh_4073.dat_4
v -6.000000 0.000000 0.000000
v -5.543400 5.000000 -2.296200
v -5.543400 0.000000 -2.296200
v -4.242600 0.000000 -4.242599
v -2.296200 0.000000 -5.543399
v 0.000000 0.000000 -6.000000
v 0.000000 5.000000 -6.000000
v 5.543400 0.000000 -2.296200
v 5.543400 0.000000 2.296200
v 6.000000 5.000000 0.000000
v 4.242600 0.000000 4.242600
v 2.296200 0.000000 5.543400
v 0.000000 0.000000 6.000000
v 0.000000 5.000000 6.000000
v -4.242600 0.000000 4.242600
v -2.296200 5.000000 5.543400
v -5.543400 5.000000 2.296200
v -5.543400 0.000000 2.296200
v -7.391200 0.000000 -3.061600
v -3.061600 5.000000 -7.391200
v -5.656800 0.000000 -5.656799
v 0.000000 5.000000 -8.000000
v 3.061600 0.000000 -7.391200
v 0.000000 0.000000 -8.000000
v 3.061600 5.000000 -7.391200
v 5.656800 0.000000 -5.656799
v 8.000000 5.000000 0.000000
v 7.391200 0.000000 3.061600
v 5.656800 5.000000 5.656800
v 3.061600 5.000000 7.391200
v 5.656800 0.000000 5.656800
v -7.391200 0.000000 3.061600
v -5.656800 0.000000 5.656800
v -8.000000 5.000000 0.000000
v -8.000000 0.000000 0.000000
v 2.296200 0.000000 -5.543399
v 7.391200 0.000000 -3.061600
v 4.242600 0.000000 -4.242599
v 6.000000 0.000000 0.000000
v 8.000000 0.000000 0.000000
v 0.000000 0.000000 8.000000
v 3.061600 0.000000 7.391201
v -2.296200 0.000000 5.543400
v -3.061600 0.000000 7.391201
v -3.061600 0.000000 -7.391200
v 0.000000 5.000000 0.000000
v -4.242600 5.000000 -4.242600
v -2.296200 5.000000 -5.543400
v 2.296200 5.000000 -5.543400
v 4.242600 5.000000 -4.242600
v 5.543400 5.000000 -2.296200
v 5.543400 5.000000 2.296200
v 4.242600 5.000000 4.242600
v 2.296200 5.000000 5.543400
v -4.242600 5.000000 4.242600
v -6.000000 5.000000 0.000000
v 5.656800 5.000000 -5.656800
v 7.391200 5.000000 -3.061600
v 9.239000 5.000000 3.827000
v 7.071000 5.000000 7.071000
v 7.391200 5.000000 3.061600
v 0.000000 5.000000 8.000000
v -7.071000 5.000000 7.071000
v -5.656800 5.000000 5.656800
v -3.061600 5.000000 7.391200
v -7.391200 5.000000 3.061600
v -9.239000 5.000000 -3.827000
v -7.391200 5.000000 -3.061600
v -5.656800 5.000000 -5.656800
v 9.239000 5.000000 -3.827000
v 7.071000 5.000000 -7.071000
v 7.071000 8.000000 -7.071000
v 3.827000 5.000000 -9.239000
v 0.000000 8.000000 -10.000000
v 0.000000 5.000000 -10.000000
v -3.827000 5.000000 -9.239000
v -7.071000 5.000000 -7.071000
v -7.071000 8.000000 -7.071000
v -3.827000 8.000000 -9.239000
v -10.000000 5.000000 0.000000
v -10.000000 8.000000 0.000000
v -9.239000 5.000000 3.827000
v -3.827000 8.000000 9.239000
v -3.827000 5.000000 9.239000
v 0.000000 5.000000 10.000000
v 3.827000 5.000000 9.239000
v 9.239000 8.000000 3.827000
v 7.071000 8.000000 7.071000
v 10.000000 5.000000 0.000000
v 0.000000 8.000000 -8.000000
v -3.061600 8.000000 -7.391200
v -9.239000 8.000000 -3.827000
v -7.071000 8.000000 7.071000
v -9.239000 8.000000 3.827000
v 3.827000 8.000000 9.239000
v 0.000000 8.000000 8.000000
v 0.000000 8.000000 10.000000
v 5.656800 8.000000 5.656800
v 3.061600 8.000000 7.391200
v 7.391200 8.000000 3.061600
v 10.000000 8.000000 0.000000
v 9.239000 8.000000 -3.827000
v 3.827000 8.000000 -9.239000
v -7.391200 8.000000 -3.061600
v -5.656800 8.000000 -5.656800
v -8.000000 8.000000 0.000000
v -6.000000 8.000000 0.000000
v -7.391200 8.000000 3.061600
v -3.061600 8.000000 7.391200
v -5.656800 8.000000 5.656800
v 0.000000 8.000000 6.000000
v 5.543400 8.000000 2.296200
v 6.000000 8.000000 0.000000
v 8.000000 8.000000 0.000000
v 4.242600 8.000000 -4.242600
v 7.391200 8.000000 -3.061600
v 2.296200 8.000000 -5.543400
v 5.656800 8.000000 -5.656800
v 3.061600 8.000000 -7.391200
v 5.543400 8.000000 -2.296200
v 6.000000 12.000000 -0.000000
v 4.242600 12.000000 -4.242600
v 5.543400 12.000000 -2.296200
v 2.296200 12.000000 -5.543400
v 0.000000 8.000000 -6.000000
v -2.296200 8.000000 -5.543400
v 0.000000 12.000000 -6.000000
v -4.242600 12.000000 -4.242600
v -4.242600 8.000000 -4.242600
v -5.543400 8.000000 -2.296200
v -5.543400 12.000000 -2.296200
v -6.000000 12.000000 -0.000000
v -5.543400 8.000000 2.296200
v -4.242600 12.000000 4.242600
v -4.242600 8.000000 4.242600
v -2.296200 8.000000 5.543400
v -2.296200 12.000000 5.543400
v 2.296200 8.000000 5.543400
v 4.242600 12.000000 4.242600
v 2.296200 12.000000 5.543400
v 4.242600 8.000000 4.242600
v 5.543400 12.000000 2.296200
v -2.296200 12.000000 -5.543400
v -5.543400 12.000000 2.296200
v 0.000000 12.000000 6.000000
v 0.000000 12.000000 -0.000000
v -5.543400 0.000000 -2.296200
v -4.242600 0.000000 -4.242599
v 3.061600 0.000000 -7.391200
v 0.000000 0.000000 -8.000000
v -7.391200 0.000000 3.061600
v -5.656800 0.000000 5.656800
v 0.000000 0.000000 8.000000
v 3.061600 0.000000 7.391201
v 4.242600 5.000000 -4.242600
v 5.543400 5.000000 -2.296200
v 4.242600 5.000000 4.242600
v 2.296200 5.000000 5.543400
v -5.656800 5.000000 5.656800
v -3.061600 5.000000 7.391200
v 0.000000 5.000000 -10.000000
v -3.827000 5.000000 -9.239000
v -7.071000 8.000000 -7.071000
v -3.827000 8.000000 -9.239000
v 0.000000 5.000000 10.000000
v 3.827000 5.000000 9.239000
v 9.239000 8.000000 3.827000
v 7.071000 8.000000 7.071000
v -7.071000 8.000000 7.071000
v -9.239000 8.000000 3.827000
v 3.827000 8.000000 9.239000
v 0.000000 8.000000 10.000000
v 4.242600 12.000000 -4.242600
v 5.543400 12.000000 -2.296200
v -4.242600 8.000000 -4.242600
v -5.543400 8.000000 -2.296200
v 4.242600 12.000000 4.242600
v 2.296200 12.000000 5.543400
v -6.000000 0.000000 0.000000
v -5.543400 5.000000 -2.296200
v -6.000000 5.000000 0.000000
v -4.242600 5.000000 -4.242600
v -2.296200 0.000000 -5.543399
v -2.296200 5.000000 -5.543400
v 0.000000 0.000000 -6.000000
v 0.000000 5.000000 -6.000000
v 2.296200 0.000000 -5.543399
v 2.296200 5.000000 -5.543400
v 4.242600 0.000000 -4.242599
v 5.543400 0.000000 -2.296200
v 6.000000 0.000000 0.000000
v 6.000000 5.000000 0.000000
v 5.543400 0.000000 2.296200
v 5.543400 5.000000 2.296200
v 4.242600 0.000000 4.242600
v 2.296200 0.000000 5.543400
v 0.000000 0.000000 6.000000
v 0.000000 5.000000 6.000000
v -2.296200 0.000000 5.543400
v -2.296200 5.000000 5.543400
v -4.242600 0.000000 4.242600
v -4.242600 5.000000 4.242600
v -5.543400 0.000000 2.296200
v -5.543400 5.000000 2.296200
v -8.000000 5.000000 0.000000
v -7.391200 5.000000 -3.061600
v -7.391200 0.000000 -3.061600
v -8.000000 0.000000 0.000000
v -5.656800 5.000000 -5.656800
v -5.656800 0.000000 -5.656799
v -3.061600 5.000000 -7.391200
v -3.061600 0.000000 -7.391200
v 0.000000 5.000000 -8.000000
v 3.061600 5.000000 -7.391200
v 5.656800 5.000000 -5.656800
v 5.656800 0.000000 -5.656799
v 7.391200 5.000000 -3.061600
v 7.391200 0.000000 -3.061600
v 8.000000 5.000000 0.000000
v 8.000000 0.000000 0.000000
v 7.391200 5.000000 3.061600
v 7.391200 0.000000 3.061600
v 5.656800 5.000000 5.656800
v 5.656800 0.000000 5.656800
v 3.061600 5.000000 7.391200
v 0.000000 5.000000 8.000000
v -3.061600 0.000000 7.391201
v -7.391200 5.000000 3.061600
v 3.827000 5.000000 -9.239000
v 7.071000 5.000000 -7.071000
v 9.239000 5.000000 -3.827000
v 10.000000 5.000000 0.000000
v 9.239000 5.000000 3.827000
v 7.071000 5.000000 7.071000
v -3.827000 5.000000 9.239000
v -7.071000 5.000000 7.071000
v -9.239000 5.000000 3.827000
v -10.000000 5.000000 0.000000
v -9.239000 5.000000 -3.827000
v -7.071000 5.000000 -7.071000
v 9.239000 8.000000 -3.827000
v 10.000000 8.000000 0.000000
v 7.071000 8.000000 -7.071000
v 3.827000 8.000000 -9.239000
v 0.000000 8.000000 -10.000000
v -9.239000 8.000000 -3.827000
v -10.000000 8.000000 0.000000
v -3.827000 8.000000 9.239000
v -2.296200 8.000000 -5.543400
v 0.000000 8.000000 -6.000000
v -6.000000 8.000000 0.000000
v -5.543400 8.000000 2.296200
v -4.242600 8.000000 4.242600
v -2.296200 8.000000 5.543400
v 0.000000 8.000000 6.000000
v 2.296200 8.000000 5.543400
v 4.242600 8.000000 4.242600
v 5.543400 8.000000 2.296200
v 6.000000 8.000000 0.000000
v 5.543400 8.000000 -2.296200
v 4.242600 8.000000 -4.242600
v 2.296200 8.000000 -5.543400
v 6.000000 12.000000 -0.000000
v 2.296200 12.000000 -5.543400
v 0.000000 12.000000 -6.000000
v -2.296200 12.000000 -5.543400
v -4.242600 12.000000 -4.242600
v -5.543400 12.000000 -2.296200
v -6.000000 12.000000 -0.000000
v -5.543400 12.000000 2.296200
v -4.242600 12.000000 4.242600
v -2.296200 12.000000 5.543400
v 0.000000 12.000000 6.000000
v 5.543400 12.000000 2.296200
vn 1.0000 0.0000 0.0000
vn 0.9239 0.0000 0.3827
vn 0.7071 0.0000 0.7071
vn 0.3827 0.0000 0.9239
vn 0.0000 0.0000 1.0000
vn -0.3827 0.0000 0.9239
vn -0.7071 0.0000 0.7071
vn -0.9239 0.0000 0.3827
vn -1.0000 0.0000 0.0000
vn -0.9239 0.0000 -0.3827
vn -0.7071 0.0000 -0.7071
vn -0.3827 0.0000 -0.9239
vn 0.0000 0.0000 -1.0000
vn 0.3827 0.0000 -0.9239
vn 0.7071 0.0000 -0.7071
vn 0.9239 0.0000 -0.3827
vn 0.0000 -1.0000 0.0000
vn 0.0000 1.0000 0.0000
s 1
f 179//1 147//2 180//2 181//1
f 147//2 148//3 182//3 180//2
f 148//3 183//4 184//4 182//3
f 183//4 185//5 186//5 184//4
f 185//5 187//6 188//6 186//5
f 187//6 189//7 155//7 188//6
f 189//7 190//8 156//8 155//7
f 190//8 39//9 192//9 156//8
f 39//9 193//10 194//10 192//9
f 193//10 195//11 157//11 194//10
f 195//11 196//12 158//12 157//11
f 196//12 197//13 198//13 158//12
f 197//13 43//14 200//14 198//13
f 43//14 201//15 202//15 200//14
f 201//15 203//16 204//16 202//15
f 203//16 179//1 181//1 204//16
f 205//9 206//10 207//10 208//9
f 206//10 209//11 210//11 207//10
f 209//11 211//12 212//12 210//11
f 211//12 213//13 150//13 212//12
f 213//13 214//14 149//14 150//13
f 214//14 215//15 216//15 149//14
f 215//15 217//16 218//16 216//15
f 217//16 219//1 40//1 218//16
f 219//1 221//2 222//2 40//1
f 221//2 223//3 224//3 222//2
f 223//3 225//4 154//4 224//3
f 225//4 226//5 153//5 154//4
f 226//5 160//6 44//6 153//5
f 160//6 64//7 152//7 44//6
f 64//7 228//8 151//8 152//7
f 228//8 205//9 208//9 151//8
f 23//17 36//17 6//17 24//17
f 26//17 38//17 36//17 23//17
f 37//17 8//17 38//17 26//17
f 220//17 191//17 8//17 37//17
f 28//17 9//17 191//17 220//17
f 31//17 11//17 9//17 28//17
f 42//17 12//17 11//17 31//17
f 41//17 13//17 12//17 42//17
f 227//17 199//17 13//17 41//17
f 33//17 15//17 199//17 227//17
f 32//17 18//17 15//17 33//17
f 35//17 1//17 18//17 32//17
f 19//17 3//17 1//17 35//17
f 21//17 4//17 3//17 19//17
f 45//17 5//17 4//17 21//17
f 24//17 6//17 5//17 45//17
f 46//17 56//17 2//17
f 46//17 2//17 47//17
f 46//17 47//17 48//17
f 46//17 48//17 7//17
f 46//17 7//17 49//17
f 46//17 49//17 50//17
f 46//17 50//17 51//17
f 46//17 51//17 10//17
f 46//17 10//17 52//17
f 46//17 52//17 53//17
f 46//17 53//17 54//17
f 46//17 54//17 14//17
f 46//17 14//17 16//17
f 46//17 16//17 55//17
f 46//17 55//17 17//17
f 46//17 17//17 56//17
f 229//17 25//17 22//17 161//17
f 71//17 57//17 25//17 229//17
f 231//17 58//17 57//17 71//17
f 232//17 27//17 58//17 231//17
f 233//17 61//17 27//17 232//17
f 234//17 29//17 61//17 233//17
f 166//17 30//17 29//17 234//17
f 165//17 62//17 30//17 166//17
f 235//17 65//17 62//17 165//17
f 236//17 159//17 65//17 235//17
f 237//17 66//17 159//17 236//17
f 80//17 34//17 66//17 237//17
f 239//17 68//17 34//17 80//17
f 77//17 69//17 68//17 239//17
f 162//17 20//17 69//17 77//17
f 161//17 22//17 20//17 162//17
f 89//1 70//16 241//16 242//1
f 70//16 230//15 243//15 241//16
f 230//15 73//14 244//14 243//15
f 73//14 75//13 245//13 244//14
f 75//13 76//12 164//12 245//13
f 76//12 240//11 163//11 164//12
f 240//11 67//10 246//10 163//11
f 67//10 238//9 247//9 246//10
f 238//9 82//8 170//8 247//9
f 82//8 63//7 169//7 170//8
f 63//7 84//6 248//6 169//7
f 84//6 85//5 172//5 248//6
f 85//5 86//4 171//4 172//5
f 86//4 60//3 168//3 171//4
f 60//3 59//2 167//2 168//3
f 59//2 89//1 242//1 167//2
f 79//18 91//18 90//18 74//18
f 78//18 105//18 91//18 79//18
f 92//18 104//18 105//18 78//18
f 81//18 106//18 104//18 92//18
f 94//18 108//18 106//18 81//18
f 93//18 110//18 108//18 94//18
f 83//18 109//18 110//18 93//18
f 97//18 96//18 109//18 83//18
f 95//18 99//18 96//18 97//18
f 88//18 98//18 99//18 95//18
f 87//18 100//18 98//18 88//18
f 101//18 114//18 100//18 87//18
f 102//18 116//18 114//18 101//18
f 72//18 118//18 116//18 102//18
f 103//18 119//18 118//18 72//18
f 74//18 90//18 119//18 103//18
f 91//18 249//18 250//18 90//18
f 105//18 175//18 249//18 91//18
f 104//18 176//18 175//18 105//18
f 106//18 251//18 176//18 104//18
f 108//18 252//18 251//18 106//18
f 110//18 253//18 252//18 108//18
f 109//18 136//18 253//18 110//18
f 96//18 255//18 136//18 109//18
f 99//18 138//18 255//18 96//18
f 98//18 257//18 138//18 99//18
f 100//18 258//18 257//18 98//18
f 114//18 259//18 258//18 100//18
f 116//18 260//18 259//18 114//18
f 118//18 261//18 260//18 116//18
f 119//18 262//18 261//18 118//18
f 90//18 250//18 262//18 119//18
f 113//1 120//16 174//16 263//1
f 120//16 115//15 173//15 174//16
f 115//15 117//14 264//14 173//15
f 117//14 125//13 265//13 264//14
f 125//13 126//12 266//12 265//13
f 126//12 129//11 267//11 266//12
f 129//11 130//10 268//10 267//11
f 130//10 107//9 269//9 268//10
f 107//9 133//8 270//8 269//9
f 133//8 135//7 271//7 270//8
f 135//7 254//6 272//6 271//7
f 254//6 111//5 273//5 272//6
f 111//5 256//4 178//4 273//5
f 256//4 141//3 177//3 178//4
f 141//3 112//2 274//2 177//3
f 112//2 113//1 263//1 274//2
f 146//18 121//18 123//18
f 146//18 123//18 122//18
f 146//18 122//18 124//18
f 146//18 124//18 127//18
f 146//18 127//18 143//18
f 146//18 143//18 128//18
f 146//18 128//18 131//18
f 146//18 131//18 132//18
f 146//18 132//18 144//18
f 146//18 144//18 134//18
f 146//18 134//18 137//18
f 146//18 137//18 145//18
f 146//18 145//18 140//18
f 146//18 140//18 139//18
f 146//18 139//18 142//18
f 146//18 142//18 121//18
