# Blender v2.82 (sub 7) OBJ File: ''
# www.blender.org
o 00000_4286.dat_Mesh_4286.dat_4
v -10.000000 0.000000 -30.000000
v -10.000000 0.000002 30.000000
v -6.000000 0.000002 26.000000
v 10.000000 0.000002 30.000000
v 6.000000 0.000000 -26.000000
v -6.000000 0.000000 -13.999999
v 2.000000 0.000000 -9.999999
v 2.000000 0.000000 -5.999999
v -2.000000 0.000000 -5.999999
v 6.000000 4.000002 22.000000
v -6.000000 4.000002 22.000000
v 6.000000 0.000000 -9.999999
v -2.000000 20.000000 -10.000000
v -6.000000 20.000000 -10.000000
v 2.000000 18.000000 -6.000000
v -6.000000 4.000002 26.000000
v 6.000000 4.000002 26.000000
v 10.000000 0.000000 -30.000000
v 10.000000 24.000000 -30.000000
v 10.000000 4.000002 30.000000
v 6.000000 0.000002 26.000000
v 2.000000 20.000000 -10.000000
v -2.000000 18.000000 -6.000000
v -2.000000 0.000000 -9.999999
v -6.000000 0.000000 -9.999999
v -10.000000 24.000000 -30.000000
v -10.000000 24.000000 -10.000000
v 6.000000 20.000000 -10.000000
v 10.000000 24.000000 -10.000000
v -10.000000 4.000002 30.000000
v -2.828400 0.000002 7.171600
v -1.530800 0.000002 6.304399
v 0.000000 0.000002 6.000000
v 1.530800 0.000002 6.304399
v 2.828400 0.000002 7.171600
v 0.000000 0.000002 10.000000
v 3.695600 0.000002 11.530800
v 1.530800 0.000002 13.695599
v -1.530800 0.000002 13.695599
v -4.000000 0.000002 10.000000
v -4.000000 4.000002 10.000000
v -3.695600 4.000002 8.469200
v -3.695600 0.000002 8.469200
v -2.828400 4.000002 7.171600
v -1.530800 4.000002 6.304399
v 1.530800 4.000002 6.304399
v 2.828400 4.000002 7.171600
v 3.695600 0.000002 8.469200
v 3.695600 4.000002 8.469200
v 4.000000 4.000002 10.000000
v 4.000000 0.000002 10.000000
v 3.695600 4.000002 11.530800
v 2.828400 4.000002 12.828400
v 1.530800 4.000002 13.695599
v 2.828400 0.000002 12.828400
v 0.000000 4.000002 14.000000
v -1.530800 4.000002 13.695599
v -2.828400 0.000002 12.828400
v -2.828400 4.000002 12.828400
v -3.695600 4.000002 11.530800
v -3.695600 0.000002 11.530800
v 3.695600 9.234601 11.530800
v 3.695600 1.234600 11.530800
v 2.828400 8.585801 12.828400
v 2.828400 0.585800 12.828400
v 1.530800 8.152201 13.695599
v 1.530800 0.152201 13.695599
v 0.000000 8.000001 14.000000
v -1.530800 0.152201 13.695599
v 0.000000 0.000002 14.000000
v -1.530800 8.152201 13.695599
v -2.828400 8.585801 12.828400
v -3.695600 9.234601 11.530800
v -3.695600 1.234600 11.530800
v -2.828400 0.585800 12.828400
v -4.000000 10.000001 10.000000
v -4.000000 2.000000 10.000000
v -3.695600 10.765401 8.469200
v -2.828400 11.414201 7.171600
v -2.828400 3.414200 7.171600
v -3.695600 2.765400 8.469200
v -1.530800 11.847801 6.304399
v -1.530800 3.847801 6.304399
v 0.000000 12.000001 6.000000
v 1.530800 11.847801 6.304399
v 0.000000 4.000000 6.000000
v 1.530800 3.847801 6.304399
v 2.828400 11.414201 7.171600
v 3.695600 10.765401 8.469200
v 2.828400 3.414200 7.171600
v 4.000000 10.000001 10.000000
v 4.000000 2.000000 10.000000
v 3.695600 2.765400 8.469200
v 6.000000 20.000000 -14.000000
v -6.000000 20.000000 -14.000000
v 6.000000 20.000000 -26.000000
v -6.000000 20.000000 -26.000000
v 6.000000 0.000000 -13.999999
v -6.000000 0.000000 -26.000000
v 6.000000 24.000000 -20.000000
v 6.000000 28.000000 -20.000000
v 5.543400 24.000000 -22.296200
v 4.242600 24.000000 -24.242599
v 2.296200 24.000000 -25.543400
v 0.000000 24.000000 -26.000000
v 0.000000 28.000000 -26.000000
v -2.296200 24.000000 -25.543400
v -4.242600 24.000000 -24.242599
v -4.242600 28.000000 -24.242599
v -5.543400 24.000000 -22.296200
v -5.543400 28.000000 -22.296200
v -6.000000 24.000000 -20.000000
v -5.543400 28.000000 -17.703800
v -6.000000 28.000000 -20.000000
v -5.543400 24.000000 -17.703800
v -4.242600 24.000000 -15.757401
v -4.242600 28.000000 -15.757401
v -2.296200 24.000000 -14.456600
v 0.000000 24.000000 -14.000000
v 0.000000 28.000000 -14.000000
v -2.296200 28.000000 -14.456600
v 2.296200 24.000000 -14.456600
v 4.242600 24.000000 -15.757401
v 2.296200 28.000000 -14.456600
v 5.543400 24.000000 -17.703800
v 5.543400 28.000000 -17.703800
v 5.543400 28.000000 -22.296200
v 4.242600 28.000000 -24.242599
v 2.296200 28.000000 -25.543400
v 0.000000 28.000000 -20.000000
v -2.296200 28.000000 -25.543400
v 4.242600 28.000000 -15.757401
v 2.000000 0.000000 -9.999999
v 2.000000 0.000000 -9.999999
v 2.000000 0.000000 -5.999999
v 2.000000 0.000000 -5.999999
v -2.000000 0.000000 -5.999999
v -2.000000 0.000000 -5.999999
v 6.000000 4.000002 22.000000
v -6.000000 4.000002 22.000000
v -2.000000 20.000000 -10.000000
v -6.000000 20.000000 -10.000000
v -6.000000 20.000000 -10.000000
v -6.000000 4.000002 26.000000
v -6.000000 4.000002 26.000000
v 6.000000 4.000002 26.000000
v 6.000000 4.000002 26.000000
v 10.000000 0.000000 -30.000000
v 10.000000 0.000000 -30.000000
v 10.000000 24.000000 -30.000000
v 10.000000 24.000000 -30.000000
v -1.530800 0.000002 6.304399
v 0.000000 0.000002 6.000000
v 6.000000 20.000000 -14.000000
v 6.000000 20.000000 -14.000000
v 6.000000 20.000000 -26.000000
v 6.000000 20.000000 -26.000000
v -6.000000 20.000000 -14.000000
v -6.000000 20.000000 -14.000000
v -5.543400 28.000000 -17.703800
v -6.000000 28.000000 -20.000000
v 0.000000 28.000000 -14.000000
v -2.296200 28.000000 -14.456600
v 5.543400 28.000000 -22.296200
v 4.242600 28.000000 -24.242599
v -10.000000 0.000000 -30.000000
v -10.000000 0.000000 -30.000000
v 6.000000 0.000000 -26.000000
v 6.000000 0.000000 -26.000000
v -6.000000 0.000000 -26.000000
v -6.000000 0.000000 -26.000000
v -10.000000 0.000002 30.000000
v -10.000000 0.000002 30.000000
v 10.000000 0.000002 30.000000
v 10.000000 0.000002 30.000000
v -6.000000 0.000002 26.000000
v -6.000000 0.000002 26.000000
v 6.000000 0.000002 26.000000
v 6.000000 0.000002 26.000000
v 6.000000 0.000000 -13.999999
v 6.000000 0.000000 -13.999999
v -6.000000 0.000000 -13.999999
v -6.000000 0.000000 -13.999999
v -2.000000 0.000000 -9.999999
v -2.000000 0.000000 -9.999999
v -10.000000 24.000000 -10.000000
v -10.000000 24.000000 -10.000000
v -10.000000 24.000000 -30.000000
v -10.000000 24.000000 -30.000000
v 10.000000 24.000000 -10.000000
v 10.000000 24.000000 -10.000000
v 6.000000 0.000000 -9.999999
v 6.000000 0.000000 -9.999999
v 6.000000 20.000000 -10.000000
v 6.000000 20.000000 -10.000000
v 2.000000 20.000000 -10.000000
v -6.000000 0.000000 -9.999999
v -6.000000 0.000000 -9.999999
v 2.000000 18.000000 -6.000000
v -2.000000 18.000000 -6.000000
v 10.000000 4.000002 30.000000
v 10.000000 4.000002 30.000000
v -10.000000 4.000002 30.000000
v -10.000000 4.000002 30.000000
v -4.000000 0.000002 10.000000
v -3.695600 0.000002 8.469200
v -2.828400 0.000002 7.171600
v 1.530800 0.000002 6.304399
v 2.828400 0.000002 7.171600
v 3.695600 0.000002 8.469200
v 4.000000 0.000002 10.000000
v 3.695600 0.000002 11.530800
v 2.828400 0.000002 12.828400
v 1.530800 0.000002 13.695599
v 0.000000 0.000002 14.000000
v 0.000000 0.000002 14.000000
v -1.530800 0.000002 13.695599
v -2.828400 0.000002 12.828400
v -3.695600 0.000002 11.530800
v -6.000000 20.000000 -26.000000
v -6.000000 20.000000 -26.000000
v 6.000000 28.000000 -20.000000
v 2.296200 28.000000 -25.543400
v 0.000000 28.000000 -26.000000
v -2.296200 28.000000 -25.543400
v -4.242600 28.000000 -24.242599
v -5.543400 28.000000 -22.296200
v -4.242600 28.000000 -15.757401
v 2.296200 28.000000 -14.456600
v 4.242600 28.000000 -15.757401
v 5.543400 28.000000 -17.703800
vn 0.0000 -1.0000 0.0000
vn 0.0000 1.0000 0.0000
vn 0.0000 0.0000 -1.0000
vn 0.0000 0.0000 1.0000
vn 1.0000 0.0000 0.0000
vn -1.0000 0.0000 0.0000
vn 0.0000 -0.8944 -0.4472
vn 0.0000 0.8944 0.4472
vn -0.9239 0.0000 -0.3827
vn -0.7071 0.0000 -0.7071
vn -0.3827 0.0000 -0.9239
vn 0.3827 0.0000 -0.9239
vn 0.7071 0.0000 -0.7071
vn 0.9239 0.0000 -0.3827
vn 0.9239 0.0000 0.3827
vn 0.7071 0.0000 0.7071
vn 0.3827 0.0000 0.9239
vn -0.3827 0.0000 0.9239
vn -0.7071 0.0000 0.7071
vn -0.9239 0.0000 0.3827
vn 0.9983 0.0000 -0.0576
vn 0.9427 0.0000 0.3334
vn 0.9015 0.0000 0.4328
vn 0.9983 0.0000 0.0576
vn 0.7351 0.0000 0.6779
vn 0.6755 0.0000 0.7374
vn 0.4030 0.0000 0.9152
vn 0.3598 0.0000 0.9330
vn -0.4030 0.0000 0.9152
vn -0.3598 0.0000 0.9330
vn -0.7351 0.0000 0.6779
vn -0.6755 0.0000 0.7374
vn -0.9427 0.0000 0.3334
vn -0.9015 0.0000 0.4328
vn -0.9983 0.0000 -0.0576
vn -0.9983 0.0000 0.0576
vn -0.9015 0.0000 -0.4328
vn -0.9427 0.0000 -0.3334
vn -0.6755 0.0000 -0.7374
vn -0.7351 0.0000 -0.6779
vn -0.3598 0.0000 -0.9330
vn -0.4030 0.0000 -0.9152
vn 0.3598 0.0000 -0.9330
vn 0.4030 0.0000 -0.9152
vn 0.6755 0.0000 -0.7374
vn 0.7351 0.0000 -0.6779
vn 0.9015 0.0000 -0.4328
vn 0.9427 0.0000 -0.3334
s 1
f 149//1 168//1 170//1 166//1
f 166//1 170//1 176//1 172//1
f 172//1 176//1 178//1 174//1
f 174//1 178//1 168//1 149//1
f 180//1 192//1 197//1 182//1
f 133//1 135//1 137//1 184//1
f 139//1 146//1 144//1 140//1
f 186//2 190//2 19//2 188//2
f 189//3 150//3 148//3 167//3
f 193//4 194//4 196//4 134//4
f 141//4 142//4 198//4 185//4
f 136//4 199//4 200//4 138//4
f 145//3 147//3 179//3 177//3
f 175//4 202//4 203//4 173//4
f 18//5 151//5 201//5 4//5
f 151//5 191//5 201//5
f 17//6 195//6 12//6 21//6
f 7//5 22//5 15//5 8//5
f 23//6 13//6 24//6 9//6
f 25//5 143//5 16//5 3//5
f 204//6 26//6 1//6 2//6
f 204//6 187//6 26//6
f 14//7 28//7 10//7 11//7
f 20//8 29//8 27//8 30//8
f 36//1 205//1 43//1
f 36//1 43//1 207//1
f 36//1 207//1 152//1
f 36//1 152//1 153//1
f 36//1 153//1 208//1
f 36//1 208//1 209//1
f 36//1 209//1 210//1
f 36//1 210//1 211//1
f 36//1 211//1 212//1
f 36//1 212//1 55//1
f 36//1 55//1 214//1
f 36//1 214//1 216//1
f 36//1 216//1 217//1
f 36//1 217//1 218//1
f 36//1 218//1 61//1
f 36//1 61//1 205//1
f 41//6 42//9 206//9 40//6
f 42//9 44//10 31//10 206//9
f 44//10 45//11 32//11 31//10
f 45//11 86//3 33//3 32//11
f 86//3 46//12 34//12 33//3
f 46//12 47//13 35//13 34//12
f 47//13 49//14 48//14 35//13
f 49//14 50//5 51//5 48//14
f 50//5 52//15 37//15 51//5
f 52//15 53//16 213//16 37//15
f 53//16 54//17 38//17 213//16
f 54//17 56//4 70//4 38//17
f 56//4 57//18 39//18 70//4
f 57//18 59//19 58//19 39//18
f 59//19 60//20 219//20 58//19
f 60//20 41//6 40//6 219//20
f 91//21 62//22 63//23 92//24
f 62//22 64//25 65//26 63//23
f 64//25 66//27 67//28 65//26
f 66//27 68//4 215//4 67//28
f 68//4 71//29 69//30 215//4
f 71//29 72//31 75//32 69//30
f 72//31 73//33 74//34 75//32
f 73//33 76//35 77//36 74//34
f 76//35 78//37 81//38 77//36
f 78//37 79//39 80//40 81//38
f 79//39 82//41 83//42 80//40
f 82//41 84//3 86//3 83//42
f 84//3 85//43 87//44 86//3
f 85//43 88//45 90//46 87//44
f 88//45 89//47 93//48 90//46
f 89//47 91//21 92//24 93//48
f 154//1 158//1 220//1 156//1
f 221//4 171//4 169//4 157//4
f 96//6 5//6 181//6 155//6
f 94//3 98//3 183//3 159//3
f 95//5 6//5 99//5 97//5
f 100//5 102//14 164//14 222//5
f 102//14 103//13 165//13 164//14
f 103//13 104//12 223//12 165//13
f 104//12 105//3 224//3 223//12
f 105//3 107//11 225//11 224//3
f 107//11 108//10 226//10 225//11
f 108//10 110//9 227//9 226//10
f 110//9 112//6 161//6 227//9
f 112//6 115//20 160//20 161//6
f 115//20 116//19 228//19 160//20
f 116//19 118//18 163//18 228//19
f 118//18 119//4 162//4 163//18
f 119//4 122//17 229//17 162//4
f 122//17 123//16 230//16 229//17
f 123//16 125//15 231//15 230//16
f 125//15 100//5 222//5 231//15
f 130//2 101//2 127//2
f 130//2 127//2 128//2
f 130//2 128//2 129//2
f 130//2 129//2 106//2
f 130//2 106//2 131//2
f 130//2 131//2 109//2
f 130//2 109//2 111//2
f 130//2 111//2 114//2
f 130//2 114//2 113//2
f 130//2 113//2 117//2
f 130//2 117//2 121//2
f 130//2 121//2 120//2
f 130//2 120//2 124//2
f 130//2 124//2 132//2
f 130//2 132//2 126//2
f 130//2 126//2 101//2
