# Blender v2.82 (sub 7) OBJ File: ''
# www.blender.org
o 00000_4460b.dat_Mesh_4460b.dat_4
v 6.000000 68.000000 -16.000002
v 10.000000 0.000000 20.000002
v 10.000000 72.000000 -20.000002
v 10.000000 4.000000 20.000002
v -10.000000 72.000000 -20.000002
v 6.000000 50.500000 2.999999
v 6.000000 0.000000 3.000001
v 6.000000 68.000000 -2.000002
v -6.000000 68.000000 -2.000002
v -6.000000 50.500000 2.999999
v -4.000000 43.500000 4.999999
v -4.000000 0.000000 5.000001
v -6.000000 36.500000 7.000000
v 4.000000 0.000000 5.000001
v 6.000000 36.500000 7.000000
v 4.000000 43.500000 4.999999
v -6.000000 5.000000 16.000002
v 6.000000 5.000000 16.000002
v 4.000000 0.000000 -4.999999
v -6.000000 0.000000 -15.999998
v -6.000000 0.000000 -6.999999
v -10.000000 0.000000 -20.000000
v -10.000000 0.000000 20.000002
v -6.000000 0.000000 3.000001
v -6.000000 0.000000 7.000002
v -6.000000 0.000000 16.000002
v 10.000000 0.000000 -20.000000
v 6.000000 0.000000 16.000002
v 6.000000 0.000000 7.000002
v 10.000000 72.000000 -0.000002
v -10.000000 72.000000 -0.000002
v -10.000000 4.000000 20.000002
v 6.000000 0.000000 -15.999998
v 6.000000 68.000000 -7.000002
v -6.000000 68.000000 -16.000002
v -6.000000 68.000000 -7.000002
v -4.000000 0.000000 -4.999999
v -4.000000 68.000000 -5.000002
v -6.000000 68.000000 -3.000002
v -6.000000 0.000000 -2.999999
v 6.000000 0.000000 -2.999999
v 6.000000 68.000000 -3.000002
v 4.000000 68.000000 -5.000002
v 6.000000 0.000000 -6.999999
v 3.695600 72.000000 -11.530802
v 3.695600 76.000000 -11.530802
v 2.828400 72.000000 -12.828402
v 1.530800 72.000000 -13.695602
v 1.530800 76.000000 -13.695602
v 0.000000 72.000000 -14.000002
v -1.530800 72.000000 -13.695602
v -2.828400 72.000000 -12.828402
v -3.695600 76.000000 -11.530802
v -3.695600 72.000000 -11.530802
v -4.000000 72.000000 -10.000002
v -2.828400 72.000000 -7.171602
v -3.695600 72.000000 -8.469202
v -2.828400 76.000000 -7.171602
v -1.530800 76.000000 -6.304402
v -1.530800 72.000000 -6.304402
v 0.000000 72.000000 -6.000002
v 1.530800 76.000000 -6.304402
v 2.828400 72.000000 -7.171602
v 1.530800 72.000000 -6.304402
v 3.695600 72.000000 -8.469202
v 4.000000 72.000000 -10.000002
v 6.000000 72.000000 -10.000002
v 5.543400 72.000000 -12.296202
v 4.242600 72.000000 -14.242601
v 2.296200 72.000000 -15.543402
v 0.000000 72.000000 -16.000002
v -2.296200 72.000000 -15.543402
v -4.242600 76.000000 -14.242601
v -4.242600 72.000000 -14.242601
v -5.543400 72.000000 -12.296202
v -5.543400 76.000000 -12.296202
v -6.000000 72.000000 -10.000002
v -6.000000 76.000000 -10.000002
v -5.543400 72.000000 -7.703802
v -4.242600 76.000000 -5.757402
v -4.242600 72.000000 -5.757402
v -2.296200 72.000000 -4.456602
v 0.000000 72.000000 -4.000002
v 0.000000 76.000000 -4.000002
v 2.296200 72.000000 -4.456602
v 4.242600 72.000000 -5.757402
v 5.543400 72.000000 -7.703802
v 6.000000 76.000000 -10.000002
v 5.543400 76.000000 -7.703802
v -2.828400 76.000000 -12.828402
v -1.530800 76.000000 -13.695602
v -2.296200 76.000000 -15.543402
v -4.000000 76.000000 -10.000002
v -3.695600 76.000000 -8.469202
v -5.543400 76.000000 -7.703802
v 0.000000 76.000000 -6.000002
v -2.296200 76.000000 -4.456602
v 4.242600 76.000000 -5.757402
v 2.296200 76.000000 -4.456602
v 3.695600 76.000000 -8.469202
v 2.828400 76.000000 -7.171602
v 4.000000 76.000000 -10.000002
v 5.543400 76.000000 -12.296202
v 2.828400 76.000000 -12.828402
v 4.242600 76.000000 -14.242601
v 0.000000 76.000000 -16.000002
v 0.000000 76.000000 -14.000002
v 2.296200 76.000000 -15.543402
v 6.000000 50.500000 2.999999
v 6.000000 0.000000 3.000001
v 6.000000 0.000000 3.000001
v -6.000000 50.500000 2.999999
v -4.000000 43.500000 4.999999
v -4.000000 0.000000 5.000001
v -4.000000 0.000000 5.000001
v 6.000000 36.500000 7.000000
v 4.000000 43.500000 4.999999
v -6.000000 0.000000 7.000002
v -6.000000 0.000000 7.000002
v -6.000000 0.000000 16.000002
v -6.000000 0.000000 16.000002
v 6.000000 0.000000 16.000002
v 6.000000 0.000000 16.000002
v 6.000000 0.000000 7.000002
v 6.000000 0.000000 7.000002
v 10.000000 72.000000 -0.000002
v 10.000000 72.000000 -0.000002
v -10.000000 72.000000 -0.000002
v -10.000000 72.000000 -0.000002
v -4.000000 0.000000 -4.999999
v -4.000000 0.000000 -4.999999
v -6.000000 0.000000 -2.999999
v -6.000000 0.000000 -2.999999
v -4.000000 68.000000 -5.000002
v -6.000000 68.000000 -3.000002
v 6.000000 0.000000 -2.999999
v 6.000000 0.000000 -2.999999
v 6.000000 68.000000 -3.000002
v 4.000000 68.000000 -5.000002
v -2.828400 76.000000 -7.171602
v -1.530800 76.000000 -6.304402
v 6.000000 76.000000 -10.000002
v 5.543400 76.000000 -7.703802
v -2.828400 76.000000 -12.828402
v -1.530800 76.000000 -13.695602
v 4.242600 76.000000 -5.757402
v 2.296200 76.000000 -4.456602
v 3.695600 76.000000 -8.469202
v 2.828400 76.000000 -7.171602
v 0.000000 76.000000 -16.000002
v 2.296200 76.000000 -15.543402
v -6.000000 68.000000 -2.000002
v -6.000000 68.000000 -2.000002
v 6.000000 68.000000 -2.000002
v 6.000000 68.000000 -2.000002
v -6.000000 68.000000 -16.000002
v -6.000000 68.000000 -16.000002
v 6.000000 68.000000 -16.000002
v 6.000000 68.000000 -16.000002
v 10.000000 72.000000 -20.000002
v 10.000000 72.000000 -20.000002
v -10.000000 72.000000 -20.000002
v -10.000000 72.000000 -20.000002
v 10.000000 0.000000 20.000002
v 10.000000 0.000000 20.000002
v 10.000000 0.000000 -20.000000
v 10.000000 0.000000 -20.000000
v 10.000000 4.000000 20.000002
v 10.000000 4.000000 20.000002
v -10.000000 0.000000 -20.000000
v -10.000000 0.000000 -20.000000
v -10.000000 0.000000 20.000002
v -10.000000 0.000000 20.000002
v -10.000000 4.000000 20.000002
v -10.000000 4.000000 20.000002
v -6.000000 0.000000 3.000001
v -6.000000 0.000000 3.000001
v -6.000000 36.500000 7.000000
v 4.000000 0.000000 5.000001
v 4.000000 0.000000 5.000001
v -6.000000 5.000000 16.000002
v -6.000000 5.000000 16.000002
v 6.000000 5.000000 16.000002
v 6.000000 5.000000 16.000002
v 6.000000 0.000000 -6.999999
v 6.000000 0.000000 -6.999999
v 4.000000 0.000000 -4.999999
v 4.000000 0.000000 -4.999999
v -6.000000 0.000000 -6.999999
v -6.000000 0.000000 -6.999999
v 6.000000 0.000000 -15.999998
v 6.000000 0.000000 -15.999998
v -6.000000 0.000000 -15.999998
v -6.000000 0.000000 -15.999998
v 6.000000 68.000000 -7.000002
v -6.000000 68.000000 -7.000002
v 4.000000 76.000000 -10.000002
v 3.695600 76.000000 -11.530802
v 2.828400 76.000000 -12.828402
v 1.530800 76.000000 -13.695602
v 0.000000 76.000000 -14.000002
v -3.695600 76.000000 -11.530802
v -4.000000 76.000000 -10.000002
v -3.695600 76.000000 -8.469202
v 0.000000 76.000000 -6.000002
v 1.530800 76.000000 -6.304402
v 5.543400 76.000000 -12.296202
v 4.242600 76.000000 -14.242601
v -2.296200 76.000000 -15.543402
v -4.242600 76.000000 -14.242601
v -5.543400 76.000000 -12.296202
v -6.000000 76.000000 -10.000002
v -5.543400 76.000000 -7.703802
v -4.242600 76.000000 -5.757402
v -2.296200 76.000000 -4.456602
v 0.000000 76.000000 -4.000002
vn 0.0000 -1.0000 0.0000
vn 0.0000 1.0000 0.0000
vn 1.0000 0.0000 0.0000
vn -1.0000 0.0000 0.0000
vn 0.7071 0.0000 -0.7071
vn 0.7071 0.0000 0.7071
vn -0.7071 0.0000 -0.7071
vn -0.7071 0.0000 0.7071
vn 0.0000 0.2821 0.9593
vn 0.0000 0.0000 1.0000
vn 0.0000 0.0000 -1.0000
vn 0.0000 -0.2747 -0.9615
vn -0.9239 0.0000 0.3827
vn -0.3827 0.0000 0.9239
vn 0.3827 0.0000 0.9239
vn 0.9239 0.0000 0.3827
vn 0.9239 0.0000 -0.3827
vn 0.3827 0.0000 -0.9239
vn -0.3827 0.0000 -0.9239
vn -0.9239 0.0000 -0.3827
s 1
f 152//1 156//1 158//1 154//1
f 160//2 162//2 128//2 126//2
f 164//3 166//3 161//3 127//3
f 164//3 127//3 168//3
f 129//4 163//4 170//4 173//4
f 174//4 129//4 173//4
f 109//4 155//4 136//4 110//4
f 155//4 138//4 136//4
f 177//3 133//3 153//3 10//3
f 133//3 39//3 153//3
f 112//5 113//5 114//5 24//5
f 115//6 11//6 178//6 119//6
f 111//7 179//7 16//7 6//7
f 116//8 117//8 180//8 125//8
f 13//3 181//3 120//3 118//3
f 183//4 15//4 124//4 122//4
f 185//1 137//1 187//1
f 189//1 130//1 132//1
f 7//1 29//1 14//1
f 176//1 12//1 25//1
f 167//1 191//1 193//1 171//1
f 172//1 121//1 123//1 165//1
f 171//1 193//1 189//1
f 171//1 189//1 132//1
f 171//1 132//1 176//1 172//1
f 25//1 172//1 176//1
f 172//1 25//1 121//1
f 185//1 191//1 167//1
f 137//1 185//1 167//1
f 165//1 7//1 137//1 167//1
f 7//1 165//1 29//1
f 123//1 29//1 165//1
f 169//9 30//9 31//9 175//9
f 4//10 32//10 23//10 2//10
f 5//11 3//11 27//11 22//11
f 182//12 9//12 8//12 184//12
f 28//11 26//11 17//11 18//11
f 194//10 192//10 159//10 157//10
f 33//4 186//4 195//4 1//4
f 35//3 196//3 190//3 20//3
f 131//5 21//5 36//5 134//5
f 37//6 38//6 135//6 40//6
f 188//8 41//8 42//8 139//8
f 19//7 43//7 34//7 44//7
f 197//4 198//13 45//13 66//4
f 198//13 104//8 47//8 45//13
f 104//8 200//14 48//14 47//8
f 200//14 107//10 50//10 48//14
f 107//10 145//15 51//15 50//10
f 145//15 144//6 52//6 51//15
f 144//6 202//16 54//16 52//6
f 202//16 203//3 55//3 54//16
f 203//3 94//17 57//17 55//3
f 94//17 140//5 56//5 57//17
f 140//5 141//18 60//18 56//5
f 141//18 205//11 61//11 60//18
f 205//11 206//19 64//19 61//11
f 206//19 149//7 63//7 64//19
f 149//7 148//20 65//20 63//7
f 148//20 197//4 66//4 65//20
f 67//3 68//17 207//17 142//3
f 68//17 69//5 105//5 207//17
f 69//5 70//18 151//18 105//5
f 70//18 71//11 150//11 151//18
f 71//11 72//19 92//19 150//11
f 72//19 74//7 210//7 92//19
f 74//7 75//20 211//20 210//7
f 75//20 77//4 212//4 211//20
f 77//4 79//13 95//13 212//4
f 79//13 81//8 214//8 95//13
f 81//8 82//14 215//14 214//8
f 82//14 83//10 216//10 215//14
f 83//10 85//15 147//15 216//10
f 85//15 86//6 146//6 147//15
f 86//6 87//16 143//16 146//6
f 87//16 67//3 142//3 143//16
f 209//2 91//2 201//2 106//2
f 73//2 90//2 91//2 209//2
f 76//2 53//2 90//2 73//2
f 78//2 93//2 53//2 76//2
f 213//2 204//2 93//2 78//2
f 80//2 58//2 204//2 213//2
f 97//2 59//2 58//2 80//2
f 84//2 96//2 59//2 97//2
f 99//2 62//2 96//2 84//2
f 98//2 101//2 62//2 99//2
f 89//2 100//2 101//2 98//2
f 88//2 102//2 100//2 89//2
f 103//2 46//2 102//2 88//2
f 208//2 199//2 46//2 103//2
f 108//2 49//2 199//2 208//2
f 106//2 201//2 49//2 108//2
