# Blender v2.82 (sub 7) OBJ File: ''
# www.blender.org
o 00000_6141.dat_Mesh_6141.dat_4
v -6.000000 0.000000 0.000000
v -5.543400 5.000000 -2.296200
v -5.543400 0.000000 -2.296200
v -4.242600 0.000000 -4.242599
v -2.296200 0.000000 -5.543399
v 0.000000 0.000000 -6.000000
v 0.000000 5.000000 -6.000000
v 5.543400 0.000000 -2.296200
v 5.543400 0.000000 2.296200
v 6.000000 5.000000 0.000000
v 4.242600 0.000000 4.242600
v 2.296200 0.000000 5.543400
v 0.000000 0.000000 6.000000
v 0.000000 5.000000 6.000000
v -4.242600 0.000000 4.242600
v -2.296200 5.000000 5.543400
v -5.543400 5.000000 2.296200
v -5.543400 0.000000 2.296200
v -7.391200 0.000000 -3.061600
v -3.061600 5.000000 -7.391200
v -5.656800 0.000000 -5.656799
v 0.000000 5.000000 -8.000000
v 3.061600 0.000000 -7.391200
v 0.000000 0.000000 -8.000000
v 3.061600 5.000000 -7.391200
v 5.656800 0.000000 -5.656799
v 8.000000 5.000000 0.000000
v 7.391200 0.000000 3.061600
v 5.656800 5.000000 5.656800
v 3.061600 5.000000 7.391200
v 5.656800 0.000000 5.656800
v -7.391200 0.000000 3.061600
v -5.656800 0.000000 5.656800
v -8.000000 5.000000 0.000000
v -8.000000 0.000000 0.000000
v 2.296200 0.000000 -5.543399
v 7.391200 0.000000 -3.061600
v 4.242600 0.000000 -4.242599
v 6.000000 0.000000 0.000000
v 8.000000 0.000000 0.000000
v 0.000000 0.000000 8.000000
v 3.061600 0.000000 7.391201
v -2.296200 0.000000 5.543400
v -3.061600 0.000000 7.391201
v -3.061600 0.000000 -7.391200
v 0.000000 5.000000 0.000000
v -4.242600 5.000000 -4.242600
v -2.296200 5.000000 -5.543400
v 2.296200 5.000000 -5.543400
v 4.242600 5.000000 -4.242600
v 5.543400 5.000000 -2.296200
v 5.543400 5.000000 2.296200
v 4.242600 5.000000 4.242600
v 2.296200 5.000000 5.543400
v -4.242600 5.000000 4.242600
v -6.000000 5.000000 0.000000
v 5.656800 5.000000 -5.656800
v 7.391200 5.000000 -3.061600
v 9.239000 5.000000 3.827000
v 7.071000 5.000000 7.071000
v 7.391200 5.000000 3.061600
v 0.000000 5.000000 8.000000
v -7.071000 5.000000 7.071000
v -5.656800 5.000000 5.656800
v -3.061600 5.000000 7.391200
v -7.391200 5.000000 3.061600
v -9.239000 5.000000 -3.827000
v -7.391200 5.000000 -3.061600
v -5.656800 5.000000 -5.656800
v 9.239000 8.000000 -3.827000
v 9.239000 5.000000 -3.827000
v 7.071000 5.000000 -7.071000
v 7.071000 8.000000 -7.071000
v 3.827000 5.000000 -9.239000
v 0.000000 5.000000 -10.000000
v -3.827000 5.000000 -9.239000
v -7.071000 5.000000 -7.071000
v -7.071000 8.000000 -7.071000
v -3.827000 8.000000 -9.239000
v -10.000000 5.000000 0.000000
v -10.000000 8.000000 0.000000
v -9.239000 8.000000 -3.827000
v -9.239000 5.000000 3.827000
v -3.827000 8.000000 9.239000
v -3.827000 5.000000 9.239000
v 0.000000 5.000000 10.000000
v 3.827000 5.000000 9.239000
v 9.239000 8.000000 3.827000
v 7.071000 8.000000 7.071000
v 10.000000 5.000000 0.000000
v 0.000000 8.000000 -10.000000
v -7.071000 8.000000 7.071000
v -9.239000 8.000000 3.827000
v 3.827000 8.000000 9.239000
v 0.000000 8.000000 8.000000
v 0.000000 8.000000 10.000000
v 5.656800 8.000000 5.656800
v 3.061600 8.000000 7.391200
v 7.391200 8.000000 3.061600
v 10.000000 8.000000 0.000000
v 3.827000 8.000000 -9.239000
v -3.061600 8.000000 -7.391200
v -4.242600 8.000000 -4.242600
v -7.391200 8.000000 -3.061600
v -5.656800 8.000000 -5.656800
v -6.000000 8.000000 0.000000
v -8.000000 8.000000 0.000000
v -7.391200 8.000000 3.061600
v -3.061600 8.000000 7.391200
v -5.656800 8.000000 5.656800
v 0.000000 8.000000 6.000000
v 5.543400 8.000000 2.296200
v 6.000000 8.000000 0.000000
v 8.000000 8.000000 0.000000
v 4.242600 8.000000 -4.242600
v 7.391200 8.000000 -3.061600
v 2.296200 8.000000 -5.543400
v 5.656800 8.000000 -5.656800
v 0.000000 8.000000 -8.000000
v 0.000000 8.000000 -6.000000
v 3.061600 8.000000 -7.391200
v 5.543400 8.000000 -2.296200
v 6.000000 12.000000 -0.000000
v 4.242600 12.000000 -4.242600
v 5.543400 12.000000 -2.296200
v 2.296200 12.000000 -5.543400
v 0.000000 12.000000 -6.000000
v -2.296200 8.000000 -5.543400
v -5.543400 8.000000 -2.296200
v -6.000000 12.000000 -0.000000
v -5.543400 12.000000 -2.296200
v -5.543400 8.000000 2.296200
v -4.242600 12.000000 4.242600
v -4.242600 8.000000 4.242600
v -2.296200 8.000000 5.543400
v -2.296200 12.000000 5.543400
v 2.296200 8.000000 5.543400
v 4.242600 12.000000 4.242600
v 2.296200 12.000000 5.543400
v 4.242600 8.000000 4.242600
v 5.543400 12.000000 2.296200
v -2.296200 12.000000 -5.543400
v -4.242600 12.000000 -4.242600
v 0.000000 12.000000 -0.000000
v -5.543400 12.000000 2.296200
v 0.000000 12.000000 6.000000
v -5.543400 0.000000 -2.296200
v -4.242600 0.000000 -4.242599
v 3.061600 0.000000 -7.391200
v 0.000000 0.000000 -8.000000
v -7.391200 0.000000 3.061600
v -5.656800 0.000000 5.656800
v 0.000000 0.000000 8.000000
v 3.061600 0.000000 7.391201
v 4.242600 5.000000 -4.242600
v 5.543400 5.000000 -2.296200
v 4.242600 5.000000 4.242600
v 2.296200 5.000000 5.543400
v -5.656800 5.000000 5.656800
v -3.061600 5.000000 7.391200
v 0.000000 5.000000 -10.000000
v -3.827000 5.000000 -9.239000
v -7.071000 8.000000 -7.071000
v -3.827000 8.000000 -9.239000
v -10.000000 8.000000 0.000000
v -9.239000 8.000000 -3.827000
v 0.000000 5.000000 10.000000
v 3.827000 5.000000 9.239000
v 9.239000 8.000000 3.827000
v 7.071000 8.000000 7.071000
v -7.071000 8.000000 7.071000
v -9.239000 8.000000 3.827000
v 3.827000 8.000000 9.239000
v 0.000000 8.000000 10.000000
v 4.242600 12.000000 -4.242600
v 5.543400 12.000000 -2.296200
v -6.000000 12.000000 -0.000000
v -5.543400 12.000000 -2.296200
v 4.242600 12.000000 4.242600
v 2.296200 12.000000 5.543400
v -6.000000 0.000000 0.000000
v -5.543400 5.000000 -2.296200
v -6.000000 5.000000 0.000000
v -4.242600 5.000000 -4.242600
v -2.296200 0.000000 -5.543399
v -2.296200 5.000000 -5.543400
v 0.000000 0.000000 -6.000000
v 0.000000 5.000000 -6.000000
v 2.296200 0.000000 -5.543399
v 2.296200 5.000000 -5.543400
v 4.242600 0.000000 -4.242599
v 5.543400 0.000000 -2.296200
v 6.000000 0.000000 0.000000
v 6.000000 5.000000 0.000000
v 5.543400 0.000000 2.296200
v 5.543400 5.000000 2.296200
v 4.242600 0.000000 4.242600
v 2.296200 0.000000 5.543400
v 0.000000 0.000000 6.000000
v 0.000000 5.000000 6.000000
v -2.296200 0.000000 5.543400
v -2.296200 5.000000 5.543400
v -4.242600 0.000000 4.242600
v -4.242600 5.000000 4.242600
v -5.543400 0.000000 2.296200
v -5.543400 5.000000 2.296200
v -8.000000 5.000000 0.000000
v -7.391200 5.000000 -3.061600
v -7.391200 0.000000 -3.061600
v -8.000000 0.000000 0.000000
v -5.656800 5.000000 -5.656800
v -5.656800 0.000000 -5.656799
v -3.061600 5.000000 -7.391200
v -3.061600 0.000000 -7.391200
v 0.000000 5.000000 -8.000000
v 3.061600 5.000000 -7.391200
v 5.656800 5.000000 -5.656800
v 5.656800 0.000000 -5.656799
v 7.391200 5.000000 -3.061600
v 7.391200 0.000000 -3.061600
v 8.000000 5.000000 0.000000
v 8.000000 0.000000 0.000000
v 7.391200 5.000000 3.061600
v 7.391200 0.000000 3.061600
v 5.656800 5.000000 5.656800
v 5.656800 0.000000 5.656800
v 3.061600 5.000000 7.391200
v 0.000000 5.000000 8.000000
v -3.061600 0.000000 7.391201
v -7.391200 5.000000 3.061600
v 3.827000 5.000000 -9.239000
v 7.071000 5.000000 -7.071000
v 9.239000 5.000000 -3.827000
v 10.000000 5.000000 0.000000
v 9.239000 5.000000 3.827000
v 7.071000 5.000000 7.071000
v -3.827000 5.000000 9.239000
v -7.071000 5.000000 7.071000
v -9.239000 5.000000 3.827000
v -10.000000 5.000000 0.000000
v -9.239000 5.000000 -3.827000
v -7.071000 5.000000 -7.071000
v 9.239000 8.000000 -3.827000
v 10.000000 8.000000 0.000000
v 7.071000 8.000000 -7.071000
v 3.827000 8.000000 -9.239000
v 0.000000 8.000000 -10.000000
v -3.827000 8.000000 9.239000
v -2.296200 8.000000 -5.543400
v 0.000000 8.000000 -6.000000
v -4.242600 8.000000 -4.242600
v -5.543400 8.000000 -2.296200
v -6.000000 8.000000 0.000000
v -5.543400 8.000000 2.296200
v -4.242600 8.000000 4.242600
v -2.296200 8.000000 5.543400
v 0.000000 8.000000 6.000000
v 2.296200 8.000000 5.543400
v 4.242600 8.000000 4.242600
v 5.543400 8.000000 2.296200
v 6.000000 8.000000 0.000000
v 5.543400 8.000000 -2.296200
v 4.242600 8.000000 -4.242600
v 2.296200 8.000000 -5.543400
v 6.000000 12.000000 -0.000000
v 2.296200 12.000000 -5.543400
v 0.000000 12.000000 -6.000000
v -2.296200 12.000000 -5.543400
v -4.242600 12.000000 -4.242600
v -5.543400 12.000000 2.296200
v -4.242600 12.000000 4.242600
v -2.296200 12.000000 5.543400
v 0.000000 12.000000 6.000000
v 5.543400 12.000000 2.296200
vn 1.0000 0.0000 0.0000
vn 0.9239 0.0000 0.3827
vn 0.7071 0.0000 0.7071
vn 0.3827 0.0000 0.9239
vn 0.0000 0.0000 1.0000
vn -0.3827 0.0000 0.9239
vn -0.7071 0.0000 0.7071
vn -0.9239 0.0000 0.3827
vn -1.0000 0.0000 0.0000
vn -0.9239 0.0000 -0.3827
vn -0.7071 0.0000 -0.7071
vn -0.3827 0.0000 -0.9239
vn 0.0000 0.0000 -1.0000
vn 0.3827 0.0000 -0.9239
vn 0.7071 0.0000 -0.7071
vn 0.9239 0.0000 -0.3827
vn 0.0000 -1.0000 0.0000
vn 0.0000 1.0000 0.0000
s 1
f 181//1 147//2 182//2 183//1
f 147//2 148//3 184//3 182//2
f 148//3 185//4 186//4 184//3
f 185//4 187//5 188//5 186//4
f 187//5 189//6 190//6 188//5
f 189//6 191//7 155//7 190//6
f 191//7 192//8 156//8 155//7
f 192//8 39//9 194//9 156//8
f 39//9 195//10 196//10 194//9
f 195//10 197//11 157//11 196//10
f 197//11 198//12 158//12 157//11
f 198//12 199//13 200//13 158//12
f 199//13 43//14 202//14 200//13
f 43//14 203//15 204//15 202//14
f 203//15 205//16 206//16 204//15
f 205//16 181//1 183//1 206//16
f 207//9 208//10 209//10 210//9
f 208//10 211//11 212//11 209//10
f 211//11 213//12 214//12 212//11
f 213//12 215//13 150//13 214//12
f 215//13 216//14 149//14 150//13
f 216//14 217//15 218//15 149//14
f 217//15 219//16 220//16 218//15
f 219//16 221//1 40//1 220//16
f 221//1 223//2 224//2 40//1
f 223//2 225//3 226//3 224//2
f 225//3 227//4 154//4 226//3
f 227//4 228//5 153//5 154//4
f 228//5 160//6 44//6 153//5
f 160//6 64//7 152//7 44//6
f 64//7 230//8 151//8 152//7
f 230//8 207//9 210//9 151//8
f 23//17 36//17 6//17 24//17
f 26//17 38//17 36//17 23//17
f 37//17 8//17 38//17 26//17
f 222//17 193//17 8//17 37//17
f 28//17 9//17 193//17 222//17
f 31//17 11//17 9//17 28//17
f 42//17 12//17 11//17 31//17
f 41//17 13//17 12//17 42//17
f 229//17 201//17 13//17 41//17
f 33//17 15//17 201//17 229//17
f 32//17 18//17 15//17 33//17
f 35//17 1//17 18//17 32//17
f 19//17 3//17 1//17 35//17
f 21//17 4//17 3//17 19//17
f 45//17 5//17 4//17 21//17
f 24//17 6//17 5//17 45//17
f 46//17 56//17 2//17
f 46//17 2//17 47//17
f 46//17 47//17 48//17
f 46//17 48//17 7//17
f 46//17 7//17 49//17
f 46//17 49//17 50//17
f 46//17 50//17 51//17
f 46//17 51//17 10//17
f 46//17 10//17 52//17
f 46//17 52//17 53//17
f 46//17 53//17 54//17
f 46//17 54//17 14//17
f 46//17 14//17 16//17
f 46//17 16//17 55//17
f 46//17 55//17 17//17
f 46//17 17//17 56//17
f 231//17 25//17 22//17 161//17
f 72//17 57//17 25//17 231//17
f 233//17 58//17 57//17 72//17
f 234//17 27//17 58//17 233//17
f 235//17 61//17 27//17 234//17
f 236//17 29//17 61//17 235//17
f 168//17 30//17 29//17 236//17
f 167//17 62//17 30//17 168//17
f 237//17 65//17 62//17 167//17
f 238//17 159//17 65//17 237//17
f 239//17 66//17 159//17 238//17
f 80//17 34//17 66//17 239//17
f 241//17 68//17 34//17 80//17
f 77//17 69//17 68//17 241//17
f 162//17 20//17 69//17 77//17
f 161//17 22//17 20//17 162//17
f 90//1 71//16 243//16 244//1
f 71//16 232//15 245//15 243//16
f 232//15 74//14 246//14 245//15
f 74//14 75//13 247//13 246//14
f 75//13 76//12 164//12 247//13
f 76//12 242//11 163//11 164//12
f 242//11 67//10 166//10 163//11
f 67//10 240//9 165//9 166//10
f 240//9 83//8 172//8 165//9
f 83//8 63//7 171//7 172//8
f 63//7 85//6 248//6 171//7
f 85//6 86//5 174//5 248//6
f 86//5 87//4 173//4 174//5
f 87//4 60//3 170//3 173//4
f 60//3 59//2 169//2 170//3
f 59//2 90//1 244//1 169//2
f 79//18 102//18 119//18 91//18
f 78//18 105//18 102//18 79//18
f 82//18 104//18 105//18 78//18
f 81//18 107//18 104//18 82//18
f 93//18 108//18 107//18 81//18
f 92//18 110//18 108//18 93//18
f 84//18 109//18 110//18 92//18
f 96//18 95//18 109//18 84//18
f 94//18 98//18 95//18 96//18
f 89//18 97//18 98//18 94//18
f 88//18 99//18 97//18 89//18
f 100//18 114//18 99//18 88//18
f 70//18 116//18 114//18 100//18
f 73//18 118//18 116//18 70//18
f 101//18 121//18 118//18 73//18
f 91//18 119//18 121//18 101//18
f 102//18 249//18 250//18 119//18
f 105//18 251//18 249//18 102//18
f 104//18 252//18 251//18 105//18
f 107//18 253//18 252//18 104//18
f 108//18 254//18 253//18 107//18
f 110//18 255//18 254//18 108//18
f 109//18 135//18 255//18 110//18
f 95//18 257//18 135//18 109//18
f 98//18 137//18 257//18 95//18
f 97//18 259//18 137//18 98//18
f 99//18 260//18 259//18 97//18
f 114//18 261//18 260//18 99//18
f 116//18 262//18 261//18 114//18
f 118//18 263//18 262//18 116//18
f 121//18 264//18 263//18 118//18
f 119//18 250//18 264//18 121//18
f 113//1 122//16 176//16 265//1
f 122//16 115//15 175//15 176//16
f 115//15 117//14 266//14 175//15
f 117//14 120//13 267//13 266//14
f 120//13 128//12 268//12 267//13
f 128//12 103//11 269//11 268//12
f 103//11 129//10 178//10 269//11
f 129//10 106//9 177//9 178//10
f 106//9 132//8 145//8 177//9
f 132//8 134//7 271//7 145//8
f 134//7 256//6 272//6 271//7
f 256//6 111//5 273//5 272//6
f 111//5 258//4 180//4 273//5
f 258//4 140//3 179//3 180//4
f 140//3 112//2 274//2 179//3
f 112//2 113//1 265//1 274//2
f 144//18 123//18 125//18
f 144//18 125//18 124//18
f 144//18 124//18 126//18
f 144//18 126//18 127//18
f 144//18 127//18 142//18
f 144//18 142//18 143//18
f 144//18 143//18 131//18
f 144//18 131//18 130//18
f 144//18 130//18 270//18
f 144//18 270//18 133//18
f 144//18 133//18 136//18
f 144//18 136//18 146//18
f 144//18 146//18 139//18
f 144//18 139//18 138//18
f 144//18 138//18 141//18
f 144//18 141//18 123//18
