# Blender v2.82 (sub 7) OBJ File: ''
# www.blender.org
o 00000_63864.dat_Mesh_63864.dat_4
v 30.000000 8.000000 -10.000000
v 29.000000 1.000000 -9.000000
v 30.000000 1.000000 -10.000000
v -29.000000 0.000000 9.000000
v 29.000000 0.000000 9.000000
v 29.000000 0.000000 -9.000000
v -26.000000 0.000000 6.000000
v -30.000000 1.000000 -10.000000
v -30.000000 8.000000 -10.000000
v -30.000000 1.000000 10.000000
v 30.000000 8.000000 10.000000
v -30.000000 8.000000 10.000000
v 30.000000 1.000000 10.000000
v -29.000000 0.000000 -9.000000
v -29.000000 1.000000 -9.000000
v 29.000000 1.000000 9.000000
v -29.000000 1.000000 9.000000
v 26.000000 4.000000 -6.000000
v 26.000000 0.000000 -6.000000
v 26.000000 4.000000 6.000000
v 26.000000 0.000000 6.000000
v -26.000000 4.000000 6.000000
v -26.000000 0.000000 -6.000000
v -26.000000 4.000000 -6.000000
v 10.000000 0.000000 -4.000000
v 7.171600 0.000000 -2.828400
v 8.469200 0.000000 -3.695600
v 7.171600 0.000000 2.828400
v 11.530800 0.000000 3.695600
v 12.828400 0.000000 2.828400
v 10.000000 0.000000 0.000000
v 13.695601 0.000000 1.530800
v 13.695601 0.000000 -1.530800
v 13.695601 4.000000 -1.530800
v 12.828400 0.000000 -2.828400
v 11.530800 0.000000 -3.695600
v 12.828400 4.000000 -2.828400
v 10.000000 4.000000 -4.000000
v 11.530800 4.000000 -3.695600
v 8.469200 4.000000 -3.695600
v 6.304400 0.000000 -1.530800
v 7.171600 4.000000 -2.828400
v 6.000000 0.000000 0.000000
v 6.304400 4.000000 -1.530800
v 6.304400 0.000000 1.530800
v 6.000000 4.000000 0.000000
v 6.304400 4.000000 1.530800
v 8.469200 0.000000 3.695600
v 7.171600 4.000000 2.828400
v 10.000000 0.000000 4.000000
v 10.000000 4.000000 4.000000
v 8.469200 4.000000 3.695600
v 11.530800 4.000000 3.695600
v 13.695601 4.000000 1.530800
v 12.828400 4.000000 2.828400
v 14.000000 0.000000 0.000000
v 14.000000 4.000000 0.000000
v -6.304400 0.000000 -1.530800
v -8.469200 0.000000 -3.695600
v -7.171600 0.000000 -2.828400
v -12.828400 0.000000 -2.828400
v -14.000000 0.000000 0.000000
v -12.828400 0.000000 2.828400
v -11.530800 0.000000 3.695600
v -10.000000 0.000000 0.000000
v -6.304400 4.000000 -1.530800
v -7.171600 4.000000 -2.828400
v -10.000000 0.000000 -4.000000
v -10.000000 4.000000 -4.000000
v -8.469200 4.000000 -3.695600
v -11.530800 0.000000 -3.695600
v -11.530800 4.000000 -3.695600
v -12.828400 4.000000 -2.828400
v -13.695601 0.000000 -1.530800
v -13.695601 4.000000 -1.530800
v -13.695601 0.000000 1.530800
v -13.695601 4.000000 1.530800
v -14.000000 4.000000 0.000000
v -12.828400 4.000000 2.828400
v -10.000000 0.000000 4.000000
v -11.530800 4.000000 3.695600
v -10.000000 4.000000 4.000000
v -8.469200 0.000000 3.695600
v -7.171600 4.000000 2.828400
v -8.469200 4.000000 3.695600
v -7.171600 0.000000 2.828400
v -6.304400 0.000000 1.530800
v -6.000000 0.000000 0.000000
v -6.000000 4.000000 0.000000
v -6.304400 4.000000 1.530800
v -29.000000 0.000000 9.000000
v -29.000000 0.000000 9.000000
v 29.000000 0.000000 9.000000
v 29.000000 0.000000 9.000000
v -30.000000 1.000000 -10.000000
v -30.000000 1.000000 -10.000000
v -30.000000 8.000000 -10.000000
v -30.000000 8.000000 -10.000000
v 30.000000 8.000000 10.000000
v 30.000000 8.000000 10.000000
v -30.000000 8.000000 10.000000
v -30.000000 8.000000 10.000000
v 29.000000 1.000000 9.000000
v 29.000000 1.000000 9.000000
v -29.000000 1.000000 9.000000
v -29.000000 1.000000 9.000000
v 26.000000 4.000000 6.000000
v 26.000000 4.000000 6.000000
v 26.000000 0.000000 6.000000
v 26.000000 0.000000 6.000000
v -26.000000 4.000000 6.000000
v -26.000000 4.000000 6.000000
v -26.000000 4.000000 -6.000000
v -26.000000 4.000000 -6.000000
v -26.000000 0.000000 -6.000000
v -26.000000 0.000000 -6.000000
v 7.171600 0.000000 -2.828400
v 8.469200 0.000000 -3.695600
v 12.828400 0.000000 -2.828400
v 11.530800 0.000000 -3.695600
v -8.469200 0.000000 -3.695600
v -7.171600 0.000000 -2.828400
v -6.304400 0.000000 1.530800
v -6.000000 0.000000 0.000000
v 30.000000 8.000000 -10.000000
v 30.000000 8.000000 -10.000000
v -30.000000 1.000000 10.000000
v -30.000000 1.000000 10.000000
v 30.000000 1.000000 10.000000
v 30.000000 1.000000 10.000000
v 30.000000 1.000000 -10.000000
v 30.000000 1.000000 -10.000000
v 29.000000 1.000000 -9.000000
v 29.000000 1.000000 -9.000000
v -29.000000 1.000000 -9.000000
v -29.000000 1.000000 -9.000000
v -26.000000 0.000000 6.000000
v -26.000000 0.000000 6.000000
v 29.000000 0.000000 -9.000000
v 29.000000 0.000000 -9.000000
v -29.000000 0.000000 -9.000000
v -29.000000 0.000000 -9.000000
v 26.000000 0.000000 -6.000000
v 26.000000 0.000000 -6.000000
v 26.000000 4.000000 -6.000000
v 26.000000 4.000000 -6.000000
v 13.695601 0.000000 -1.530800
v 14.000000 0.000000 0.000000
v 10.000000 0.000000 -4.000000
v 6.304400 0.000000 -1.530800
v 6.000000 0.000000 0.000000
v 6.304400 0.000000 1.530800
v 7.171600 0.000000 2.828400
v 8.469200 0.000000 3.695600
v 10.000000 0.000000 4.000000
v 11.530800 0.000000 3.695600
v 12.828400 0.000000 2.828400
v 13.695601 0.000000 1.530800
v -6.304400 0.000000 -1.530800
v -10.000000 0.000000 -4.000000
v -11.530800 0.000000 -3.695600
v -12.828400 0.000000 -2.828400
v -13.695601 0.000000 -1.530800
v -14.000000 0.000000 0.000000
v -13.695601 0.000000 1.530800
v -12.828400 0.000000 2.828400
v -11.530800 0.000000 3.695600
v -10.000000 0.000000 4.000000
v -8.469200 0.000000 3.695600
v -7.171600 0.000000 2.828400
vn 0.0000 1.0000 0.0000
vn 0.0000 -1.0000 0.0000
vn 0.0000 0.0000 -1.0000
vn -1.0000 0.0000 0.0000
vn 0.0000 0.0000 1.0000
vn 1.0000 0.0000 0.0000
vn 0.9239 0.0000 -0.3827
vn 0.7071 0.0000 -0.7071
vn 0.3827 0.0000 -0.9239
vn -0.3827 0.0000 -0.9239
vn -0.7071 0.0000 -0.7071
vn -0.9239 0.0000 -0.3827
vn -0.9239 0.0000 0.3827
vn -0.7071 0.0000 0.7071
vn -0.3827 0.0000 0.9239
vn 0.3827 0.0000 0.9239
vn 0.7071 0.0000 0.7071
vn 0.9239 0.0000 0.3827
s 1
f 101//1 99//1 125//1 98//1
f 127//2 105//2 103//2 129//2
f 131//2 133//2 135//2 96//2
f 127//2 96//2 135//2 105//2
f 131//2 129//2 103//2 133//2
f 91//2 137//2 110//2 93//2
f 139//2 143//2 116//2 141//2
f 91//2 141//2 116//2 137//2
f 139//2 93//2 110//2 143//2
f 95//3 97//3 126//3 132//3
f 128//4 102//4 9//4 8//4
f 130//5 100//5 12//5 10//5
f 3//6 1//6 11//6 13//6
f 142//3 136//3 134//3 140//3
f 92//4 106//4 15//4 14//4
f 94//5 104//5 17//5 4//5
f 6//6 2//6 16//6 5//6
f 108//2 111//2 113//2 145//2
f 114//5 115//5 144//5 146//5
f 18//4 19//4 109//4 107//4
f 20//3 21//3 138//3 112//3
f 22//6 7//6 23//6 24//6
f 33//2 56//2 31//2
f 35//2 33//2 31//2
f 120//2 35//2 31//2
f 149//2 120//2 31//2
f 118//2 149//2 31//2
f 117//2 118//2 31//2
f 150//2 117//2 31//2
f 151//2 150//2 31//2
f 152//2 151//2 31//2
f 153//2 152//2 31//2
f 154//2 153//2 31//2
f 50//2 154//2 31//2
f 156//2 50//2 31//2
f 157//2 156//2 31//2
f 158//2 157//2 31//2
f 56//2 158//2 31//2
f 148//6 147//7 34//7 57//6
f 147//7 119//8 37//8 34//7
f 119//8 36//9 39//9 37//8
f 36//9 25//3 38//3 39//9
f 25//3 27//10 40//10 38//3
f 27//10 26//11 42//11 40//10
f 26//11 41//12 44//12 42//11
f 41//12 43//4 46//4 44//12
f 43//4 45//13 47//13 46//4
f 45//13 28//14 49//14 47//13
f 28//14 48//15 52//15 49//14
f 48//15 155//5 51//5 52//15
f 155//5 29//16 53//16 51//5
f 29//16 30//17 55//17 53//16
f 30//17 32//18 54//18 55//17
f 32//18 148//6 57//6 54//18
f 159//2 124//2 65//2
f 122//2 159//2 65//2
f 121//2 122//2 65//2
f 68//2 121//2 65//2
f 71//2 68//2 65//2
f 162//2 71//2 65//2
f 74//2 162//2 65//2
f 164//2 74//2 65//2
f 76//2 164//2 65//2
f 166//2 76//2 65//2
f 167//2 166//2 65//2
f 168//2 167//2 65//2
f 83//2 168//2 65//2
f 170//2 83//2 65//2
f 87//2 170//2 65//2
f 124//2 87//2 65//2
f 88//6 58//7 66//7 89//6
f 58//7 60//8 67//8 66//7
f 60//8 59//9 70//9 67//8
f 59//9 160//3 69//3 70//9
f 160//3 161//10 72//10 69//3
f 161//10 61//11 73//11 72//10
f 61//11 163//12 75//12 73//11
f 163//12 62//4 78//4 75//12
f 62//4 165//13 77//13 78//4
f 165//13 63//14 79//14 77//13
f 63//14 64//15 81//15 79//14
f 64//15 80//5 82//5 81//15
f 80//5 169//16 85//16 82//5
f 169//16 86//17 84//17 85//16
f 86//17 123//18 90//18 84//17
f 123//18 88//6 89//6 90//18
