# Blender v2.82 (sub 7) OBJ File: ''
# www.blender.org
o 00000_6636.dat_Mesh_6636.dat_4
v 60.000000 8.000000 10.000000
v -56.000000 0.000000 -6.000000
v -59.000000 0.000000 -9.000000
v -59.000000 0.000000 9.000000
v 56.000000 0.000000 6.000000
v -59.000000 1.000000 -9.000000
v 59.000000 1.000000 9.000000
v 59.000000 1.000000 -9.000000
v 44.000000 0.000000 0.000000
v 43.695599 0.000000 1.530800
v 40.000000 0.000000 0.000000
v 41.530800 0.000000 3.695600
v 40.000000 0.000000 4.000000
v 38.469200 0.000000 3.695600
v 37.171600 0.000000 2.828400
v 36.304401 0.000000 1.530800
v 38.469200 0.000000 -3.695600
v 40.000000 0.000000 -4.000000
v 43.695599 4.000000 1.530800
v 42.828400 4.000000 2.828400
v 42.828400 0.000000 2.828400
v 41.530800 4.000000 3.695600
v 40.000000 4.000000 4.000000
v 38.469200 4.000000 3.695600
v 37.171600 4.000000 2.828400
v 36.304401 4.000000 1.530800
v 36.000000 4.000000 0.000000
v 36.304401 4.000000 -1.530800
v 36.304401 0.000000 -1.530800
v 36.000000 0.000000 0.000000
v 37.171600 4.000000 -2.828400
v 37.171600 0.000000 -2.828400
v 38.469200 4.000000 -3.695600
v 40.000000 4.000000 -4.000000
v 41.530800 4.000000 -3.695600
v 41.530800 0.000000 -3.695600
v 42.828400 0.000000 -2.828400
v 42.828400 4.000000 -2.828400
v 43.695599 0.000000 -1.530800
v 43.695599 4.000000 -1.530800
v 44.000000 4.000000 0.000000
v 23.695601 0.000000 1.530800
v 22.828400 0.000000 2.828400
v 21.530800 0.000000 3.695600
v 20.000000 0.000000 4.000000
v 18.469200 0.000000 3.695600
v 16.304399 0.000000 1.530800
v 16.000000 0.000000 0.000000
v 20.000000 0.000000 0.000000
v 24.000000 4.000000 0.000000
v 23.695601 4.000000 1.530800
v 22.828400 4.000000 2.828400
v 21.530800 4.000000 3.695600
v 20.000000 4.000000 4.000000
v 18.469200 4.000000 3.695600
v 17.171600 4.000000 2.828400
v 17.171600 0.000000 2.828400
v 16.304399 4.000000 1.530800
v 16.000000 4.000000 0.000000
v 16.304399 4.000000 -1.530800
v 17.171600 0.000000 -2.828400
v 16.304399 0.000000 -1.530800
v 17.171600 4.000000 -2.828400
v 18.469200 0.000000 -3.695600
v 18.469200 4.000000 -3.695600
v 20.000000 4.000000 -4.000000
v 21.530800 4.000000 -3.695600
v 21.530800 0.000000 -3.695600
v 20.000000 0.000000 -4.000000
v 22.828400 4.000000 -2.828400
v 23.695601 4.000000 -1.530800
v 23.695601 0.000000 -1.530800
v 22.828400 0.000000 -2.828400
v 24.000000 0.000000 0.000000
v -3.695600 0.000000 1.530800
v -4.000000 0.000000 0.000000
v -3.695600 0.000000 -1.530800
v 0.000000 0.000000 0.000000
v -1.530800 0.000000 -3.695600
v 1.530800 0.000000 -3.695600
v 3.695600 0.000000 -1.530800
v 4.000000 0.000000 0.000000
v 4.000000 4.000000 0.000000
v 3.695600 4.000000 1.530800
v 2.828400 4.000000 2.828400
v 3.695600 0.000000 1.530800
v 1.530800 0.000000 3.695600
v 2.828400 0.000000 2.828400
v 1.530800 4.000000 3.695600
v 0.000000 4.000000 4.000000
v -1.530800 4.000000 3.695600
v -1.530800 0.000000 3.695600
v 0.000000 0.000000 4.000000
v -2.828400 4.000000 2.828400
v -2.828400 0.000000 2.828400
v -3.695600 4.000000 1.530800
v -4.000000 4.000000 0.000000
v -3.695600 4.000000 -1.530800
v -2.828400 4.000000 -2.828400
v -2.828400 0.000000 -2.828400
v -1.530800 4.000000 -3.695600
v 0.000000 4.000000 -4.000000
v 0.000000 0.000000 -4.000000
v 1.530800 4.000000 -3.695600
v 2.828400 4.000000 -2.828400
v 3.695600 4.000000 -1.530800
v 2.828400 0.000000 -2.828400
v -16.304399 0.000000 1.530800
v -18.469200 0.000000 3.695600
v -21.530800 0.000000 3.695600
v -22.828400 0.000000 2.828400
v -23.695601 0.000000 1.530800
v -23.695601 0.000000 -1.530800
v -20.000000 0.000000 0.000000
v -16.304399 0.000000 -1.530800
v -16.000000 0.000000 0.000000
v -16.304399 4.000000 1.530800
v -17.171600 4.000000 2.828400
v -18.469200 4.000000 3.695600
v -17.171600 0.000000 2.828400
v -20.000000 4.000000 4.000000
v -21.530800 4.000000 3.695600
v -20.000000 0.000000 4.000000
v -22.828400 4.000000 2.828400
v -23.695601 4.000000 1.530800
v -24.000000 4.000000 0.000000
v -24.000000 0.000000 0.000000
v -23.695601 4.000000 -1.530800
v -22.828400 4.000000 -2.828400
v -22.828400 0.000000 -2.828400
v -21.530800 0.000000 -3.695600
v -21.530800 4.000000 -3.695600
v -20.000000 0.000000 -4.000000
v -20.000000 4.000000 -4.000000
v -18.469200 4.000000 -3.695600
v -17.171600 4.000000 -2.828400
v -17.171600 0.000000 -2.828400
v -18.469200 0.000000 -3.695600
v -16.304399 4.000000 -1.530800
v -16.000000 4.000000 0.000000
v -37.171600 0.000000 2.828400
v -40.000000 0.000000 4.000000
v -41.530800 0.000000 3.695600
v -42.828400 0.000000 2.828400
v -43.695599 0.000000 1.530800
v -42.828400 0.000000 -2.828400
v -40.000000 0.000000 0.000000
v -37.171600 0.000000 -2.828400
v -36.304401 0.000000 -1.530800
v -36.304401 0.000000 1.530800
v -36.000000 0.000000 0.000000
v -36.304401 4.000000 1.530800
v -37.171600 4.000000 2.828400
v -38.469200 0.000000 3.695600
v -38.469200 4.000000 3.695600
v -40.000000 4.000000 4.000000
v -41.530800 4.000000 3.695600
v -42.828400 4.000000 2.828400
v -43.695599 4.000000 1.530800
v -44.000000 0.000000 0.000000
v -44.000000 4.000000 0.000000
v -43.695599 4.000000 -1.530800
v -43.695599 0.000000 -1.530800
v -42.828400 4.000000 -2.828400
v -41.530800 4.000000 -3.695600
v -40.000000 4.000000 -4.000000
v -41.530800 0.000000 -3.695600
v -38.469200 4.000000 -3.695600
v -40.000000 0.000000 -4.000000
v -38.469200 0.000000 -3.695600
v -37.171600 4.000000 -2.828400
v -36.304401 4.000000 -1.530800
v -36.000000 4.000000 0.000000
v 60.000000 1.000000 -10.000000
v -60.000000 1.000000 -10.000000
v -60.000000 8.000000 -10.000000
v -60.000000 8.000000 10.000000
v -60.000000 1.000000 10.000000
v 60.000000 1.000000 10.000000
v 60.000000 8.000000 -10.000000
v 56.000000 4.000000 6.000000
v -56.000000 4.000000 6.000000
v 56.000000 4.000000 -6.000000
v -56.000000 4.000000 -6.000000
v -56.000000 0.000000 6.000000
v 56.000000 0.000000 -6.000000
v 59.000000 0.000000 -9.000000
v -59.000000 1.000000 9.000000
v 59.000000 0.000000 9.000000
v -59.000000 0.000000 -9.000000
v -59.000000 0.000000 -9.000000
v -59.000000 0.000000 9.000000
v -59.000000 0.000000 9.000000
v 59.000000 1.000000 9.000000
v 59.000000 1.000000 9.000000
v 59.000000 1.000000 -9.000000
v 59.000000 1.000000 -9.000000
v 40.000000 0.000000 4.000000
v 38.469200 0.000000 3.695600
v 38.469200 0.000000 -3.695600
v 40.000000 0.000000 -4.000000
v 36.304401 0.000000 -1.530800
v 36.000000 0.000000 0.000000
v 21.530800 0.000000 3.695600
v 20.000000 0.000000 4.000000
v 17.171600 0.000000 -2.828400
v 16.304399 0.000000 -1.530800
v 21.530800 0.000000 -3.695600
v 20.000000 0.000000 -4.000000
v 23.695601 0.000000 -1.530800
v 22.828400 0.000000 -2.828400
v 1.530800 0.000000 3.695600
v 2.828400 0.000000 2.828400
v -1.530800 0.000000 3.695600
v 0.000000 0.000000 4.000000
v -17.171600 0.000000 -2.828400
v -18.469200 0.000000 -3.695600
v -41.530800 0.000000 3.695600
v -42.828400 0.000000 2.828400
v -36.304401 0.000000 1.530800
v -36.000000 0.000000 0.000000
v 60.000000 1.000000 -10.000000
v 60.000000 1.000000 -10.000000
v -60.000000 1.000000 -10.000000
v -60.000000 1.000000 -10.000000
v -60.000000 8.000000 -10.000000
v -60.000000 8.000000 -10.000000
v -60.000000 8.000000 10.000000
v -60.000000 8.000000 10.000000
v -60.000000 1.000000 10.000000
v -60.000000 1.000000 10.000000
v 60.000000 1.000000 10.000000
v 60.000000 1.000000 10.000000
v 56.000000 4.000000 6.000000
v 56.000000 4.000000 6.000000
v -56.000000 4.000000 6.000000
v -56.000000 4.000000 6.000000
v 60.000000 8.000000 10.000000
v 60.000000 8.000000 10.000000
v 60.000000 8.000000 -10.000000
v 60.000000 8.000000 -10.000000
v 59.000000 0.000000 -9.000000
v 59.000000 0.000000 -9.000000
v 56.000000 0.000000 -6.000000
v 56.000000 0.000000 -6.000000
v -56.000000 0.000000 -6.000000
v -56.000000 0.000000 -6.000000
v -56.000000 0.000000 6.000000
v -56.000000 0.000000 6.000000
v 59.000000 0.000000 9.000000
v 59.000000 0.000000 9.000000
v 56.000000 0.000000 6.000000
v 56.000000 0.000000 6.000000
v -59.000000 1.000000 -9.000000
v -59.000000 1.000000 -9.000000
v -59.000000 1.000000 9.000000
v -59.000000 1.000000 9.000000
v 44.000000 0.000000 0.000000
v 43.695599 0.000000 1.530800
v 42.828400 0.000000 2.828400
v 41.530800 0.000000 3.695600
v 37.171600 0.000000 2.828400
v 36.304401 0.000000 1.530800
v 37.171600 0.000000 -2.828400
v 41.530800 0.000000 -3.695600
v 42.828400 0.000000 -2.828400
v 43.695599 0.000000 -1.530800
v 24.000000 0.000000 0.000000
v 23.695601 0.000000 1.530800
v 22.828400 0.000000 2.828400
v 18.469200 0.000000 3.695600
v 17.171600 0.000000 2.828400
v 16.304399 0.000000 1.530800
v 16.000000 0.000000 0.000000
v 18.469200 0.000000 -3.695600
v 4.000000 0.000000 0.000000
v 3.695600 0.000000 1.530800
v -2.828400 0.000000 2.828400
v -3.695600 0.000000 1.530800
v -4.000000 0.000000 0.000000
v -3.695600 0.000000 -1.530800
v -2.828400 0.000000 -2.828400
v -1.530800 0.000000 -3.695600
v 0.000000 0.000000 -4.000000
v 1.530800 0.000000 -3.695600
v 2.828400 0.000000 -2.828400
v 3.695600 0.000000 -1.530800
v -16.000000 0.000000 0.000000
v -16.304399 0.000000 1.530800
v -17.171600 0.000000 2.828400
v -18.469200 0.000000 3.695600
v -20.000000 0.000000 4.000000
v -21.530800 0.000000 3.695600
v -22.828400 0.000000 2.828400
v -23.695601 0.000000 1.530800
v -24.000000 0.000000 0.000000
v -23.695601 0.000000 -1.530800
v -22.828400 0.000000 -2.828400
v -21.530800 0.000000 -3.695600
v -20.000000 0.000000 -4.000000
v -16.304399 0.000000 -1.530800
v -37.171600 0.000000 2.828400
v -38.469200 0.000000 3.695600
v -40.000000 0.000000 4.000000
v -43.695599 0.000000 1.530800
v -44.000000 0.000000 0.000000
v -43.695599 0.000000 -1.530800
v -42.828400 0.000000 -2.828400
v -41.530800 0.000000 -3.695600
v -40.000000 0.000000 -4.000000
v -38.469200 0.000000 -3.695600
v -37.171600 0.000000 -2.828400
v -36.304401 0.000000 -1.530800
v -56.000000 4.000000 -6.000000
v -56.000000 4.000000 -6.000000
v 56.000000 4.000000 -6.000000
v 56.000000 4.000000 -6.000000
vn 0.0000 1.0000 0.0000
vn 0.0000 -1.0000 0.0000
vn 1.0000 0.0000 0.0000
vn 0.9239 0.0000 0.3827
vn 0.7071 0.0000 0.7071
vn 0.3827 0.0000 0.9239
vn 0.0000 0.0000 1.0000
vn -0.3827 0.0000 0.9239
vn -0.7071 0.0000 0.7071
vn -0.9239 0.0000 0.3827
vn -1.0000 0.0000 0.0000
vn -0.9239 0.0000 -0.3827
vn -0.7071 0.0000 -0.7071
vn -0.3827 0.0000 -0.9239
vn 0.0000 0.0000 -1.0000
vn 0.3827 0.0000 -0.9239
vn 0.7071 0.0000 -0.7071
vn 0.9239 0.0000 -0.3827
s 1
f 238//1 240//1 226//1 228//1
f 242//2 244//2 246//2 190//2
f 190//2 246//2 248//2 192//2
f 192//2 248//2 252//2 250//2
f 250//2 252//2 244//2 242//2
f 222//2 196//2 254//2 224//2
f 224//2 254//2 256//2 230//2
f 230//2 256//2 194//2 232//2
f 232//2 194//2 196//2 222//2
f 11//2 258//2 259//2
f 11//2 259//2 21//2
f 11//2 21//2 261//2
f 11//2 261//2 198//2
f 11//2 198//2 199//2
f 11//2 199//2 262//2
f 11//2 262//2 263//2
f 11//2 263//2 203//2
f 11//2 203//2 29//2
f 11//2 29//2 32//2
f 11//2 32//2 200//2
f 11//2 200//2 201//2
f 11//2 201//2 36//2
f 11//2 36//2 266//2
f 11//2 266//2 267//2
f 11//2 267//2 258//2
f 41//3 19//4 10//4 9//3
f 19//4 20//5 260//5 10//4
f 20//5 22//6 12//6 260//5
f 22//6 23//7 13//7 12//6
f 23//7 24//8 14//8 13//7
f 24//8 25//9 15//9 14//8
f 25//9 26//10 16//10 15//9
f 26//10 27//11 30//11 16//10
f 27//11 28//12 202//12 30//11
f 28//12 31//13 264//13 202//12
f 31//13 33//14 17//14 264//13
f 33//14 34//15 18//15 17//14
f 34//15 35//16 265//16 18//15
f 35//16 38//17 37//17 265//16
f 38//17 40//18 39//18 37//17
f 40//18 41//3 9//3 39//18
f 49//2 268//2 269//2
f 49//2 269//2 270//2
f 49//2 270//2 204//2
f 49//2 204//2 205//2
f 49//2 205//2 271//2
f 49//2 271//2 272//2
f 49//2 272//2 273//2
f 49//2 273//2 274//2
f 49//2 274//2 207//2
f 49//2 207//2 206//2
f 49//2 206//2 275//2
f 49//2 275//2 209//2
f 49//2 209//2 68//2
f 49//2 68//2 211//2
f 49//2 211//2 72//2
f 49//2 72//2 268//2
f 50//3 51//4 42//4 74//3
f 51//4 52//5 43//5 42//4
f 52//5 53//6 44//6 43//5
f 53//6 54//7 45//7 44//6
f 54//7 55//8 46//8 45//7
f 55//8 56//9 57//9 46//8
f 56//9 58//10 47//10 57//9
f 58//10 59//11 48//11 47//10
f 59//11 60//12 62//12 48//11
f 60//12 63//13 61//13 62//12
f 63//13 65//14 64//14 61//13
f 65//14 66//15 69//15 64//14
f 66//15 67//16 208//16 69//15
f 67//16 70//17 73//17 208//16
f 70//17 71//18 210//18 73//17
f 71//18 50//3 74//3 210//18
f 78//2 276//2 277//2
f 78//2 277//2 213//2
f 78//2 213//2 212//2
f 78//2 212//2 215//2
f 78//2 215//2 92//2
f 78//2 92//2 95//2
f 78//2 95//2 279//2
f 78//2 279//2 280//2
f 78//2 280//2 281//2
f 78//2 281//2 282//2
f 78//2 282//2 283//2
f 78//2 283//2 284//2
f 78//2 284//2 285//2
f 78//2 285//2 107//2
f 78//2 107//2 287//2
f 78//2 287//2 276//2
f 83//3 84//4 86//4 82//3
f 84//4 85//5 88//5 86//4
f 85//5 89//6 87//6 88//5
f 89//6 90//7 93//7 87//6
f 90//7 91//8 214//8 93//7
f 91//8 94//9 278//9 214//8
f 94//9 96//10 75//10 278//9
f 96//10 97//11 76//11 75//10
f 97//11 98//12 77//12 76//11
f 98//12 99//13 100//13 77//12
f 99//13 101//14 79//14 100//13
f 101//14 102//15 103//15 79//14
f 102//15 104//16 80//16 103//15
f 104//16 105//17 286//17 80//16
f 105//17 106//18 81//18 286//17
f 106//18 83//3 82//3 81//18
f 114//2 288//2 289//2
f 114//2 289//2 120//2
f 114//2 120//2 291//2
f 114//2 291//2 292//2
f 114//2 292//2 293//2
f 114//2 293//2 294//2
f 114//2 294//2 295//2
f 114//2 295//2 127//2
f 114//2 127//2 297//2
f 114//2 297//2 130//2
f 114//2 130//2 299//2
f 114//2 299//2 300//2
f 114//2 300//2 138//2
f 114//2 138//2 137//2
f 114//2 137//2 301//2
f 114//2 301//2 288//2
f 140//3 117//4 108//4 116//3
f 117//4 118//5 290//5 108//4
f 118//5 119//6 109//6 290//5
f 119//6 121//7 123//7 109//6
f 121//7 122//8 110//8 123//7
f 122//8 124//9 111//9 110//8
f 124//9 125//10 112//10 111//9
f 125//10 126//11 296//11 112//10
f 126//11 128//12 113//12 296//11
f 128//12 129//13 298//13 113//12
f 129//13 132//14 131//14 298//13
f 132//14 134//15 133//15 131//14
f 134//15 135//16 217//16 133//15
f 135//16 136//17 216//17 217//16
f 136//17 139//18 115//18 216//17
f 139//18 140//3 116//3 115//18
f 147//2 221//2 220//2
f 147//2 220//2 302//2
f 147//2 302//2 303//2
f 147//2 303//2 304//2
f 147//2 304//2 218//2
f 147//2 218//2 219//2
f 147//2 219//2 305//2
f 147//2 305//2 306//2
f 147//2 306//2 163//2
f 147//2 163//2 308//2
f 147//2 308//2 309//2
f 147//2 309//2 310//2
f 147//2 310//2 311//2
f 147//2 311//2 312//2
f 147//2 312//2 313//2
f 147//2 313//2 221//2
f 173//3 152//4 150//4 151//3
f 152//4 153//5 141//5 150//4
f 153//5 155//6 154//6 141//5
f 155//6 156//7 142//7 154//6
f 156//7 157//8 143//8 142//7
f 157//8 158//9 144//9 143//8
f 158//9 159//10 145//10 144//9
f 159//10 161//11 160//11 145//10
f 161//11 162//12 307//12 160//11
f 162//12 164//13 146//13 307//12
f 164//13 165//14 167//14 146//13
f 165//14 166//15 169//15 167//14
f 166//15 168//16 170//16 169//15
f 168//16 171//17 148//17 170//16
f 171//17 172//18 149//18 148//17
f 172//18 173//3 151//3 149//18
f 241//15 223//15 225//15 227//15
f 176//11 175//11 231//11 229//11
f 177//7 178//7 233//7 239//7
f 1//3 179//3 174//3 180//3
f 314//2 316//2 234//2 236//2
f 315//7 247//7 245//7 317//7
f 237//3 249//3 2//3 184//3
f 235//15 253//15 185//15 182//15
f 183//11 186//11 5//11 181//11
f 197//15 243//15 191//15 255//15
f 6//11 3//11 193//11 257//11
f 188//7 4//7 251//7 195//7
f 7//3 189//3 187//3 8//3
